<?xml version="1.0" encoding="UTF-8"?>
<svg xmlns="http://www.w3.org/2000/svg" xmlns:xlink="http://www.w3.org/1999/xlink" height="16px" viewBox="0 0 16 16" width="16px"><filter id="a" height="100%" width="100%" x="0%" y="0%"><feColorMatrix in="SourceGraphic" type="matrix" values="0 0 0 0 1 0 0 0 0 1 0 0 0 0 1 0 0 0 1 0"/></filter><mask id="b"><g filter="url(#a)"><path d="m 0 0 h 16 v 16 h -16 z" fill-opacity="0.3"/></g></mask><clipPath id="c"><path d="m 0 0 h 1600 v 1200 h -1600 z"/></clipPath><g fill="#474747"><path d="m 9.570312 1.183594 c -0.566406 0.078125 -1.25 0.351562 -2.015624 0.753906 c -1.539063 -0.84375 -2.742188 -0.898438 -3.746094 -0.636719 c -1.070313 0.273438 -1.941406 0.71875 -3.292969 0.679688 l -0.515625 -0.015625 v 10.808594 h 0.5 c 1.320312 0 2.480469 -0.597657 3.554688 -0.867188 c 1.074218 -0.261719 1.992187 -0.292969 3.144531 0.738281 l 0.335937 0.304688 l 0.335938 -0.304688 c 1.121094 -1.035156 2.011718 -1.003906 3.074218 -0.742187 c 1.066407 0.261718 2.226563 0.863281 3.550782 0.871094 l 0.503906 0.003906 v -10.796875 l -0.519531 0.019531 c -1.515625 0.054688 -2.269531 -0.394531 -3.25 -0.683594 c -0.535157 -0.164062 -1.101563 -0.210937 -1.660157 -0.132812 z m 0.109376 0.960937 c 0.476562 -0.070312 0.855468 0.007813 1.265624 0.128907 c 0.726563 0.214843 1.679688 0.605468 3.054688 0.664062 v 8.707031 c -0.875 -0.125 -1.777344 -0.457031 -2.8125 -0.710937 c -1.121094 -0.277344 -2.40625 -0.164063 -3.65625 0.796875 c -1.277344 -0.964844 -2.585938 -1.074219 -3.714844 -0.792969 c -1.042968 0.257812 -1.945312 0.589844 -2.816406 0.710938 v -8.730469 c 1.273438 -0.074219 2.246094 -0.445313 3.054688 -0.648438 c 0.925781 -0.238281 1.726562 -0.289062 3.242187 0.621094 l 0.253906 0.152344 l 0.253907 -0.148438 c 0.816406 -0.464843 1.394531 -0.679687 1.875 -0.75 z m 0 0"/><path d="m 7 2.398438 h 1 v 9.601562 h -1 z m 0 0"/><path d="m 0 2.5 v 13.5 h 15 v -13.480469 h -2 v 11.480469 h -11 v -11.5 z m 0 0"/></g><g clip-path="url(#c)" mask="url(#b)" transform="matrix(1 0 0 1 -580 -201)"><path d="m 580.9375 215.75 v -2.1875 l 4.21875 -1.128906 l 2.34375 0.59375 l 2.386719 -0.667969 l 3.742187 1 v 2.453125 z m 0 0" fill="#474747"/></g></svg>
