<svg xmlns="http://www.w3.org/2000/svg" width="555" height="332.81"><path style="fill:#000" d="M94.3 331.42c-8.13-2.9-9-7.63-9-49l.01-29.3H64.22l.27 16.28c.5 28.98-.64 31.63-13.56 31.8-16.31.23-16.23.41-16.26-37.67l-.02-22.12-13.1-6.98-13.11-6.99v-6.36c0-7.49-1.07-6.93 14.98-7.8 5.93-.33 10.89-.71 11.03-.86.4-.39.31-114.22-.08-114.61-.18-.18-7.26-.35-15.72-.36-8.46-.02-15.96-.39-16.67-.82-1.54-.95-1.62-74.08-.1-79.78C5.4 3.76-9.87 4.75 211.88 3.28c98.7-.65 188.79-1.52 195.46-1.9 45.7-2.53 50.94-.22 51.07 22.53.07 12.03-.99 11.05 17.24 15.91 8.63 2.3 16.05 4.4 16.48 4.68.43.26 4.52 1.5 9.1 2.74 53.22 14.49 54.23 14.93 53.38 23.5-.79 7.88.5 7.5-26.84 7.83l-24.33.3V216.2l9.28 3.93c5.1 2.16 9.68 3.92 10.17 3.92 3.39 0 5.67 11.07 2.86 13.88-.74.74-4.71 1.12-11.64 1.12h-10.52l-.31 36.8c-.26 30.52-.55 37.28-1.73 39.6l-1.42 2.82-11.33.26c-9.26.22-11.56 0-12.53-1.17-.65-.79-1.75-1.43-2.45-1.43-4.15 0-5.24-9.3-5.14-43.83l.09-31.17h-11.5c-6.32 0-15.6.28-20.63.61l-9.14.6v15.1c0 12.8-1.47 26.73-2.98 28.23-1.24 1.24-21.45.7-22.97-.6-.94-.8-2.35-1.7-3.14-1.97-2.7-.95-4.2-9.75-4.2-24.78 0-17.27 3.57-15.3-25.77-14.32a249970.81 249970.81 0 0 1-125.16 4.16c-21.74.74-72.45 2.2-97.97 2.82-12.11.3-23.4.75-25.08 1.01l-3.04.47v34.1c0 32.95-.62 42.01-3.1 45.27-1.22 1.61-15.08 1.46-19.79-.22zm16.06-2c1.14-.3 2.27-1.25 2.5-2.1l1.04-3.65c.6-2.09.5-2.1-8.84-2.1h-9.44v3.59c0 4.84 6.05 6.59 14.74 4.26zm-17.19-4.81c-1.16-4.85-4.62-7.12-3.58-2.34.97 4.42 1.25 4.92 2.74 4.92 1.11 0 1.31-.61.84-2.58zm21.22-44.06c.01-21.01.05-55.3.08-76.17.04-20.89.03-49.68-.01-63.99l-.09-26.01h-4.95l.67 16.4c.47 11.47.37 16.4-.33 16.4-.62 0-1.01-2.47-1.01-6.4 0-3.54-.28-10.94-.61-16.45l-.62-10.03-5.91.27-5.92.27-.36 101.96-.37 101.95h19.41l.02-38.2zm-15.51 22.5c1.2-22.73 2.32-31.08 1.85-13.83-.23 8.25-.41 17.64-.41 20.86 0 3.72-.4 5.86-1.07 5.86-.76 0-.87-3.54-.37-12.9zm6.54 3.98c.53-6.8 1.98-32.12 3.41-59.53 1.25-24.05 2.86-34.25 2.21-14.06-.45 14-1.04 29.6-1.88 49.22-.54 12.8-1.97 24.94-3.29 27.95-.65 1.48-.77.5-.45-3.58zm-3.2-59.95a4.18 4.18 0 0 1-.8-3.04c.4-2.13 3.58-2.86 3.58-.83 0 .81.42 1.48.94 1.48 1.51 0 1.07 2.56-.55 3.18-1.95.75-1.87.77-3.17-.8zm2.55-19.58c-.4-.94-.7-5.27-.7-9.6 0-5.03-.38-7.9-1.02-7.9-1 0-.48-19.55.69-25.64 1.43-7.47 2.2 1.15 1.98 21.95-.14 12.6-.57 22.14-.95 21.2zm-8.14-16.74c-.04-1.39.35-2.79.87-3.1 1.12-.7 1.12 1.14 0 3.75-.72 1.67-.81 1.6-.87-.65zm.88-10.21c0-7.81 2.67-44.16 3.27-44.77.67-.66.57 3.23-.41 17.66-.48 6.96-1.15 17.08-1.5 22.5-.7 11.23-1.37 13.48-1.36 4.6zm10.52-18.44c.04-13.99.32-20.52.77-17.58 1.03 6.71 1.06 39.84.04 39.84-.5 0-.83-9.5-.8-22.26zm-9.51-55.26c.06-7.38.3-9.38.9-7.38 1 3.37.84 16.4-.22 17.04-.42.26-.73-4.08-.68-9.66zm-5.87 88.44c.27-94.34.17-102.64-1.25-104.07-1.55-1.55-3.28-1.31-3.28.45 0 .52.4.7.88.4 1.79-1.1 2.03 1.88 2.01 24.25-.04 33.23-1.37 36.78-1.97 5.24-.27-14.18-.59 19.1-.7 73.96-.23 105.83-.36 102.02 3.53 102.26.26.02.61-46.1.78-102.49zm406.47 99.16c1.77-4.62.67-8.14-2.36-7.54-1.61.33-5.73.6-9.14.6-7.92.02-8.99.68-8.17 5.04l.63 3.39h9.24c7.55 0 9.33-.27 9.8-1.49zm-23.85-6.54c-.62-.74-1.55-1.35-2.06-1.35-1.28 0-.06 5.8 1.41 6.73 1.58.99 2.13-3.59.65-5.38zm8.55-8.61c.07-7.28 1.63-5.6 1.74 1.87.05 3.74.35 4.46 1.86 4.46 3.02 0 4.77-1.06 4.77-2.86 0-.95.42-1.98.94-2.3.53-.33.93.46.93 1.82 0 2.12.39 2.4 3.28 2.4h3.29V82.33l-10.24.32c-5.63.18-10.43.53-10.66.79-.24.26-.66 50.35-.94 111.33l-.5 110.86h5.46l.07-6.33zm4.34-7.97c.73-14.4 2.11-18.45 1.68-4.92l-.41 12.89c-.03.9-.44 1.64-.9 1.64-.49 0-.64-4.14-.37-9.61zm-2.03-55.05c-2.22-2.44-1.22-5.13 1.62-4.37 1.15.31 2.62.57 3.27.58 1.85.02 1.36 3.6-.65 4.66-2.36 1.27-2.3 1.28-4.24-.87zm8.23-11.28c0-3.35.17-4.72.38-3.05.2 1.68.2 4.42 0 6.1-.2 1.67-.38.3-.38-3.05zm-13.1-2.81c0-4.39.17-6.18.36-3.99a53 53 0 0 1 0 7.97c-.2 2.2-.35.4-.35-3.98zm-.32-16.25c0-4.92.38-8.13.96-8.13.87 0 .3 14.8-.62 15.86-.19.22-.34-3.26-.34-7.73zm14.28-.63c0-1.8.19-2.54.43-1.64.23.9.23 2.38 0 3.28-.24.9-.43.17-.43-1.64zm-12.81-27.65c.21-9.8.4-19.05.4-20.55s.29-2.45.64-2.1c.74.75.44 14.34-.66 29.68-.66 9.15-.72 8.08-.38-7.03zm7.45-26.27c.63-24.53.79-26.25 2.32-25.3.6.37.88 8.85.77 23.26-.13 16.25-.35 20.16-.76 13.77-.65-9.92-.78-9.73-1.55 2.35-1.02 15.96-1.39 9.3-.78-14.08zm-5.75-15.45c.8-21.06 2.04-33.73 3.43-35.05.84-.79.98-.59.6.83a76.06 76.06 0 0 0-1.1 7.97c-.32 3.35-.75 7.57-.94 9.37-.2 1.8-.64 9.82-.98 17.81-.33 8-.84 14.75-1.12 15-.28.26-.23-6.9.11-15.93zm12.95.47c.02-1.55.23-2.07.46-1.16a5.3 5.3 0 0 1-.03 2.81c-.26.64-.45-.1-.43-1.65zm-.51-8.68c-1-7.8-1.83-25.1-1.18-24.5.8.73 1.19 4.3 1.98 17.94.66 11.2.23 14.66-.8 6.56zM476 166.87c0-48.2-.32-85.12-.72-82.03-.4 3.1-.78 10.89-.84 17.32-.06 6.68-.52 12.1-1.08 12.66-.67.66-.88-4.62-.68-17.09.16-9.92-.03-18.04-.41-18.04-.4 0-.72 2-.75 4.45-.98 112.27-.28 218.06 1.45 219.27 2.54 1.79 3.03-20.19 3.03-136.54zM59.64 297.77c.06-.06.4-1.7.75-3.63l.63-3.51h-7c-3.84 0-7.66-.26-8.47-.57-1.24-.48-1.49.24-1.49 4.28v4.85l7.74-.65c4.25-.36 7.78-.7 7.84-.77zm-18.39-3.83c0-2.23-.56-3.55-1.77-4.2-1.63-.87-1.71-.69-1.06 2.2 1.32 5.87 2.83 6.93 2.83 2zm20.16-7.3c.22-.64.52-8.48.67-17.41l.26-16.25-2.41.49c-1.58.31-3.7-.3-6.1-1.78-5.17-3.18-5.08-3.31-5.08 7.12 0 6.8-.3 9.24-1.07 8.77-.73-.46-.9-3.51-.55-9.92.5-9.24-.07-11.1-3.47-11.1-.3 0-.54 9.28-.54 20.63v20.62h8.94c6.3 0 9.06-.34 9.35-1.17zM40.1 265.16c-.2-15.61-.55-20.88-1.43-21.18-1.27-.42-1.8 40.08-.55 41.33 1.9 1.9 2.2-1.24 1.98-20.15zm381.4 18.19c.56-.38 1.3-2.49 1.65-4.68l.62-3.98-4.46-.19c-16.53-.68-15.98-.9-14.67 5.66.58 2.89.58 2.89 7.74 3.2 3.93.18 7.36.4 7.62.5.26.1.93-.14 1.5-.51zm-19.87-4.68c-.58-3.15-1.72-4.86-3.26-4.9-1.15-.04.34 6.13 1.75 7.25 2.14 1.68 2.22 1.55 1.5-2.35zm4.2-8.89.78-2.1.66 2.1c.54 1.69 1.37 2.1 4.24 2.1 4.14 0 3.94.52 5.71-15 1.59-13.88 2.16-13 1.5 2.34-.51 11.92-.44 12.78.73 9.37l1.3-3.75.09 3.52c.38 13.5 3.85 3.15 3.85-11.49v-15l-5.86.01c-3.22 0-8.08.28-10.78.6l-4.92.6v14.4c0 13.94.78 17.5 2.7 12.3zm2.58-11.63c-.33-2.4-.55-6.72-.5-9.6.13-6.27 1.04-2.76 2.1 8.1.67 6.74-.7 8.03-1.6 1.5zm-8.1-1.27c0-13.21-.1-14.07-1.79-14.07-2.16 0-3.01 24.32-.94 26.82 2.31 2.79 2.73.83 2.73-12.75zM67.5 249.35c.26-.39 4.37-1 9.14-1.38 6.62-.52 8.67-1 8.67-2.03 0-1.08-1.09-1.26-5.39-.87a1647 1647 0 0 1-12.42 1.07c-7.2.59-9.38 1.49-9.38 3.87 0 1.42 8.37.83 9.38-.66zm82.28-1.57c-.9-.23-2.59-.24-3.75-.02-1.17.23-.44.42 1.63.43 2.06.01 3.01-.17 2.12-.4zm6.55 0a7.7 7.7 0 0 0-3.28 0c-.9.24-.17.43 1.64.43 1.8 0 2.54-.2 1.64-.43zm25.82-.98c-3.2-.19-8.69-.19-12.19 0-3.5.17-.88.32 5.82.33 6.7 0 9.57-.15 6.37-.33zm-8.71-1.71c11.08-.29 27.48-.92 36.43-1.4 26.26-1.43 35.24-.94 17.39.95-15.6 1.64 39.79.26 149.15-3.71 13.92-.5 28.37-.93 32.1-.93 3.74 0 6.8-.37 6.8-.81 0-.89-33.76-2.12-58.36-2.13-10.72 0-15.7-.33-15.7-1.03 0-.96 46.34-.42 58.13.67 14.68 1.37 68.88.9 69.17-.6.51-2.63-75.21-4.32-118.4-2.64-9.8.38-53.67 1.68-97.5 2.9-43.82 1.2-77.44 2.47-74.7 2.82 2.74.34 5.18.81 5.42 1.05.24.24-10.44.71-23.74 1.06a1136 1136 0 0 0-32.36 1.18c-7.67.54-11.84-.71-6.1-1.82 1.53-.3 1.27-.44-.94-.53-2.75-.12-3.04.13-3.04 2.53 0 4.1.3 4.16 18.75 3.55 9.54-.32 26.41-.82 37.5-1.11zm97.04-4.02c1.59-1.69 86.37-3.75 85.34-2.08-.3.48-4.02.81-8.26.73-11-.2-64.68 1.14-71.93 1.8-4.31.4-5.82.26-5.15-.45zm-65.17-1.1c5.14-.73 33.48-1.22 32.74-.58-.22.19-8.83.56-19.14.82-10.43.27-16.47.16-13.6-.25zm8.67 5.9c-2.19-.2-5.77-.2-7.96 0-2.2.2-.4.35 3.98.35s6.18-.16 3.98-.35zm-158.67-2.5c0-2.07-2.43-4.07-3.57-2.93-.27.27 0 .49.6.49s1.1.68 1.1 1.52c0 1.08-.34 1.25-1.17.6-1.6-1.26-9.02-2.14-9.64-1.14-.85 1.37 4.51 3.63 8.7 3.67 3.59.03 3.98-.19 3.98-2.2zm19.92-.2c10.05-.64 14.09-2.25 5.63-2.24-12.16.02-22.73 1.23-22.73 2.6 0 1.08.79 1.26 3.51.83 1.93-.3 8.05-.84 13.6-1.2zm-28.67-3.62c3.27.34 4.01.23 2.66-.41-3.33-1.58-14.43-1.24-12.3.37 1.24.94 2.28 1.07 3.45.45.91-.49 3.7-.68 6.2-.41zm113.1-.26c-4.23-.17-11.4-.17-15.94 0-4.54.17-1.08.32 7.69.32 8.76 0 12.47-.14 8.25-.32zm-81.7-1.18h7.35V214.6l-27.42.63c-15.08.34-30.78.89-34.9 1.21l-7.46.6 20.6 11.06 20.59 11.06 6.94-.52c3.81-.28 10.25-.51 14.3-.51Zm-37.65-1.95 5.16-.11-3.54-.94c-3.9-1.04-9.62-.33-10.64 1.31-.44.72.07.86 1.61.45 1.24-.33 4.58-.65 7.41-.71zm144.85-.43c9.8-.26 41.01-1.1 69.37-1.84 28.36-.74 57.9-1.57 65.63-1.85 28.34-1 69.2-2.36 98.9-3.28 16.76-.52 34.8-1.2 40.08-1.51l9.61-.57v-19.6l-3.98-1.75c-3.7-1.6-5.61-1.68-26.49-.94-12.37.44-32.2 1.04-44.06 1.35-11.86.31-33.17.96-47.35 1.44-14.17.48-48.98 1.53-77.34 2.33-28.36.8-73.35 2.07-99.98 2.84-26.64.76-49.31 1.39-50.4 1.39-1.89 0-1.96.44-1.96 11.83v11.84l25.08-.6c13.79-.32 33.09-.81 42.89-1.08zm1.43-6.95c-2.7-1.72 1.46-2.05 20.54-1.64 24.35.53 25.5 1.6 1.7 1.6-10.1 0-18.93.2-19.61.46-.69.25-1.87.06-2.63-.42zm55.75-.08c-13.7-.46-12.86-.52 9.67-.7 15.57-.12 24.46.13 24.1.7-.56.92-6.68.92-33.77 0zm37.54.1c-.41-.67 1.77-1 6.63-1 3.98 0 7.04.2 6.8.45-1.02 1.02-12.84 1.5-13.43.54zm14.57-.4c.9-.8 20.5-1.27 20.02-.5-.29.46-5 .84-10.46.84-5.47 0-9.77-.16-9.56-.35zm62.27-3.88c2.29-.77 29.53-1.11 29.53-.36 0 .46-6.86.8-15.23.76-8.38-.04-14.82-.22-14.3-.4zm32.34-.6c0-.44 1.27-.8 2.81-.8 3.67 0 3.67 1.37 0 1.5-1.54.06-2.8-.26-2.8-.7zm-242.81-.6c0-2.02 16.57-4.06 30.94-3.8 5.97.1 5.93.12-2.35.9-13.36 1.26-24.2 2.59-26.48 3.25-1.2.34-2.11.2-2.11-.35zm110.25-1.42c-3.15-2.32 15.59-4.62 34.6-4.25l5.62.1-7.03.79c-3.87.43-9.99 1.1-13.6 1.48l-6.56.7 6.1.57c5.53.51 5.2.58-3.75.74-5.42.1-10.7.4-11.72.67a4.94 4.94 0 0 1-3.66-.8zm-52.6-3.94c24.1-1.89 32.68-2.3 31.78-1.5-.92.83-33.4 3.01-41.62 2.8-2.83-.07 1.6-.66 9.85-1.3zm52.04-3.25c5.36-2.05 76.77-4.02 75.57-2.08-.28.46-15.4 1.11-33.6 1.45-18.18.33-35.6.8-38.7 1.06-4.2.35-5.02.24-3.27-.43zm81.1-.71c-1.56-.22-3.22-.8-3.71-1.27-1.11-1.08 2.11-1.02 26.67.5l19.22 1.18h-19.69c-10.83-.01-20.95-.2-22.5-.41zm44.76 0a20.7 20.7 0 0 1 5.15 0c1.42.22.26.4-2.57.4-2.84 0-4-.18-2.58-.4zm9.47.03c1.08-1.07 4.36-1.29 4.36-.28 0 .5-1.13.93-2.5.93-1.38 0-2.21-.3-1.86-.65zm5.76-.29c.32-.52 1.19-.94 1.93-.94s1.35.42 1.35.94-.87.94-1.93.94-1.67-.42-1.35-.94zm8.3.3c1.02-1.03 9.05-1.27 9.05-.28 0 .5-2.18.92-4.85.92-2.66 0-4.56-.29-4.2-.64zm10.92-.3c0-.52 1.08-.94 2.4-.94 1.36 0 2.15.4 1.82.94-.32.52-1.4.94-2.4.94s-1.82-.42-1.82-.94zm6-.16c-.27-.43 1.02-.78 2.85-.78 1.84 0 3.34.17 3.34.36 0 .77-5.74 1.16-6.2.42zm12.52-.52c1.67-.2 4.41-.2 6.09 0 1.68.21.3.38-3.05.38-3.35 0-4.72-.17-3.04-.38zm89.3 21.3c0-1.57-.67-1.89-4.23-1.99a44.39 44.39 0 0 1-5.15-.35c-.52-.13-2.42-.29-4.22-.35-1.8-.06-3.28-.49-3.28-.94 0-.45 3.8-.6 8.44-.34 7.38.43 8.43.3 8.43-1.05 0-1.73-4.54-2.01-14.86-.94l-5.76.6v7.24h10.31c9.69 0 10.31-.11 10.31-1.88zm-493.67.11c.29-.46 2.1-1.13 4.02-1.49 5.15-.96 1.42-2.78-4.15-2.02-5.63.78-6.61 1.54-3.91 3.04 2.68 1.48 3.37 1.56 4.04.47zm438.35-3.53c0-1.37-1.03-1.48-9.14-.94-5.03.33-15.05.7-22.27.81l-13.12.2 16.87.54c9.29.3 19.3.63 22.27.74 4.47.17 5.39-.07 5.39-1.35zM27.12 229.6c2.62-.79 3.5-1.42 2.68-1.93-3.3-2.1-13.27.37-10.38 2.56.92.7 2.16 1.11 2.75.9.59-.2 2.82-.9 4.95-1.53zm-6.25-3.39c1.43-.27 2.82-.86 3.1-1.32.72-1.15-5.88-1.04-8.1.14-2.55 1.37-2.32 3.16.3 2.34 1.16-.37 3.28-.89 4.7-1.16zm493.35-1.23c2.32-.02 1.68-.51-3.72-2.82a150.1 150.1 0 0 0-6.8-2.79c-.6 0-.2 5.37.44 6.02.39.4 2.18.47 3.99.17 1.8-.3 4.54-.56 6.09-.58zM16.9 221.42c-1.94-.65-5.66.79-5.66 2.18 0 1.16.51 1.13 3.36-.23 1.84-.88 2.88-1.76 2.3-1.95zm23.6-25.25c.89-53.86.5-123.36-.65-112.26-.63 6.18-1.25 11.25-1.38 11.25-.12 0-.41 26.47-.65 58.82-.39 52.08-.27 58.83.98 58.83 1.2 0 1.46-2.53 1.7-16.64zm8.59 14.06c.27-1.41.77-6.48 1.1-11.25.91-12.69 2.11-10.59 1.56 2.72-.34 8.4-.19 11.22.6 10.73.6-.37 1.08-2.35 1.08-4.42 0-2.26.37-3.52.94-3.17.51.32.93 2.25.93 4.28 0 3.28.26 3.7 2.27 3.7 5.47 0 5.13 3.36 5.2-51.61.07-54.38.23-52.46-4.37-52.46-.42 0-.61 6.33-.42 14.06.24 9.88.03 14.06-.7 14.06-.72 0-1.04-4.5-1.04-14.5v-14.52l-3.75-1.91-3.75-1.92V89.95c0-13.67-1.28-18.16-4.43-15.5-.11.1-.47 31.27-.79 69.27l-.58 69.1h2.82c2.34 0 2.92-.45 3.33-2.59zm-2.23-20.31c0-2.86.45-11.43.98-19.04.54-7.62 1.36-21.02 1.81-29.79l.83-15.93-.4 20.62c-.57 29.61-1.5 48.27-2.42 48.84-.44.27-.8-1.85-.8-4.7zm11.62-11.33c0-7.22.15-10.04.33-6.28.18 3.76.18 9.66 0 13.12-.18 3.46-.33.38-.33-6.84zm26.82-12.16V121l-5.39-2.48c-9.06-4.18-13.6-6.07-13.9-5.78-.16.16-.41 22.53-.57 49.71l-.3 49.44H85.3v-45.45zm76.88 43.11c11.6-.27 29.1-.7 38.9-.94l36.57-.94c31.67-.82 53.2-1.44 82.03-2.37 15.2-.49 38.06-1.17 50.79-1.52 22.41-.6 23.14-.69 23.66-2.59.28-1.08.53-26.22.54-55.87l.01-53.9-28.36.61c-15.6.34-61.06 1.11-101.02 1.72-39.96.61-72.73 1.19-72.83 1.29-.1.1-.27 3.01-.38 6.48-.28 8.44.7 8.1-24.36 8.4l-21.96.25.1 21.8c.09 18.82.31 22.05 1.64 23.52 3.9 4.3 1.2 8.63-5.75 9.27-6.47.58-11-4.76-7.24-8.52 1.32-1.32 2.28-44.4 1.02-45.68-.21-.22-4.37-.26-9.25-.1l-8.87.3-.04 49.38c-.04 57.82-1.7 51.06 12.32 50.42a1863 1863 0 0 1 32.48-1.01zm306.56-51.46c0-35.16-.26-45.56-1.17-46.28-1.53-1.2-38.42-13.46-38.95-12.93-.22.22-.48 23.47-.58 51.68l-.2 51.28 16.47-.48c12.18-.36 17.32-.17 19.74.73 1.8.67 3.6 1.25 3.99 1.29.38.04.7-20.34.7-45.29zm-67.63-13.47c-.08-37.4-.4-55.24-.91-50.4a458.4 458.4 0 0 1-1.96 15.48c-.8 5.36-1.21 21.84-1.28 50.39l-.11 42.42h4.4l-.13-57.9zm5.23 52.97c.3-2.7.67-6.82.84-9.14.16-2.32.38-.64.47 3.75.23 10.21.42 10.48 7.27 10.13l5.54-.29.6-7.31c.8-10.05 1.74-10.19 1.74-.27 0 6.15.3 8.1 1.17 7.82 2.33-.78 1.64-105.17-.7-105.5-1.8-.27-1.85.09-1.26 8.43.34 4.79.6 13.14.57 18.55l-.04 9.84-.79-8.9c-.43-4.9-1.1-13.55-1.5-19.22l-.73-10.3-4.87-1.39c-5.31-1.5-5.88-2.38-5.9-9.17 0-3.62-.22-3.99-2.35-3.99h-2.35l.15 22.74c.13 21.78.17 22.2.84 9.78.38-7.12.99-13.23 1.35-13.59.36-.35.35 5.47-.02 12.95-.38 7.48-1.05 13.73-1.5 13.9a1.4 1.4 0 0 0-.82 1.23c0 .5.46.63 1.03.29.72-.45.86 1.14.49 5.33-2 22.54-2.44 69.25-.65 69.25.48 0 1.12-2.21 1.41-4.92zm7.54-11.98c1.95-7.92 2.49-47.62.92-68.41-.3-4.12-.16-5.62.45-4.62 2.77 4.53 1.93 71.6-.94 74.4-.73.72-.85.33-.43-1.37zm-2.64-.6c-.9-.9-.64-20.11.3-22.34.48-1.16.8 2.9.83 10.54.03 6.84-.08 12.43-.23 12.43-.15 0-.56-.29-.9-.63zm.53-27.5c0-1.8.2-2.54.43-1.64.23.9.23 2.38 0 3.28-.24.9-.43.16-.43-1.64zm-.03-7.03c.01-1.55.22-2.07.46-1.16.24.92.22 2.18-.03 2.82-.26.63-.45-.11-.43-1.66zm-5.81-56.25c0-1.29.36-2.34.8-2.34.45 0 .61 1.05.36 2.34-.24 1.29-.6 2.34-.8 2.34-.2 0-.36-1.05-.36-2.34zm-264.38 66.15c0-2.18-1.43-3.24-3.36-2.5-1.1.42-1.19.95-.4 2.43 1.3 2.4 3.76 2.45 3.76.07zm1.57-29.74c-.66-24.9-.57-24.08-2.84-23.2-1.37.52-1.54 3.1-1.54 23.45v22.87h4.99l-.61-23.12zM83.27 108.6c-1.2-.92-2.84-1.46-3.66-1.21-2.93.9-7.85-3.55-8.4-7.58-.27-2.04-.82-4.24-1.22-4.89-.4-.65-.29-1.17.27-1.17.54 0 .98-1.8.97-3.98l-.02-3.99-8.18-3.48c-4.5-1.91-8.94-3.76-9.85-4.1-1.56-.57-1.66.24-1.41 11.85l.26 12.46 16.4 7.68 16.41 7.69.3-3.81c.24-3.09-.12-4.13-1.87-5.47zm45.17-1.36c0-.27-1.06-1.87-2.35-3.56-1.29-1.7-2.34-3.75-2.34-4.58 0-1.15-1.15-1.57-4.92-1.79l-4.92-.28-.3-3.51-.29-3.52h5.23c4.94 0 5.45-.22 9.2-4.09 2.18-2.25 4.44-4.25 5.03-4.45.58-.2 1.36-1.77 1.73-3.48l.67-3.12-4.07.58c-2.25.33-12.2.68-22.12.78-9.93.1-18.07.4-18.1.66-.15 1.53-.43 31.08-.29 31.23.43.43 37.84-.43 37.84-.87zm340.31-13.49V79.69l-26.48.01c-31.99.02-30.7-.22-30.7 5.62v4.48l9.6 3.4a945.25 945.25 0 0 0 25.93 8.53c8.97 2.82 16.53 5.34 16.8 5.6.26.27 1.46.48 2.66.48h2.19V93.75zm-381.1-2.5c0-11.66-.3-15.72-1.17-16.01-.9-.3-1.17 3.22-1.17 15.62 0 12.19.28 16.01 1.17 16.01.9 0 1.18-3.75 1.18-15.62zm101.51-.55.26-15.7-26.04.15c-14.32.09-23.72.4-20.89.7 4.17.45 5.22.91 5.5 2.43.96 5.07 7.57 10.78 12.47 10.78h4.65l-.29 3.52c-.27 3.3-.5 3.53-3.65 3.8-2.78.23-3.63.83-4.87 3.43-.83 1.74-2.33 3.42-3.35 3.74-7.63 2.42-2.66 3.36 16.53 3.11l19.43-.25.25-15.7zM82.5 88.54c0-9.65-.35-15.42-.94-15.42-.53 0-.95 2.76-.97 6.33a297.4 297.4 0 0 1-.57 14.53c-.55 8.46-.1 11.57 1.54 10.56.57-.36.94-6.67.94-16Zm-4.69 7.74c0-6.33-.9-9.1-3-9.1-1.3 0-.89 14.8.42 15.32 2.38.96 2.58.49 2.58-6.22zm63.75 5.9c0-.5-.52-.94-1.17-.94a17.8 17.8 0 0 1-3.28-.58c-1.2-.32-2.11-.15-2.11.42 0 .87 1.86 1.53 5.4 1.92.64.07 1.16-.3 1.16-.81zm10.82-1.2c4.4-3.78 2.85-12.22-2.38-12.9-9.42-1.22-11.83 11.09-2.81 14.38 2.3.84 2.6.76 5.19-1.47zm-7.07-1.6c-2.16-2.17-2.39-4.04-.66-5.47.9-.75 1.52-.51 2.41.92.89 1.43 1.91 1.82 3.95 1.52 3.17-.46 3.62 1 1.03 3.35-2.28 2.06-4.45 1.96-6.73-.33zm-6.16-2.58c-.3-1.58.21-3.95 1.33-6.1l1.82-3.51h-2.89c-6.2 0-10 7.68-4.4 8.9 1.55.35 2.6.98 2.34 1.4-.4.65.16 1.14 2.08 1.81.12.04-.01-1.09-.28-2.5zm258.08-5.63c-.21-1.42-.39-.26-.39 2.58s.18 4 .4 2.58a20.7 20.7 0 0 0 0-5.16zM4.7 59.81c0-22.65-.32-34.55-.92-33.96C2.3 27.33 2.05 94.7 3.52 94.7c.91 0 1.17-7.6 1.17-34.88Zm30.75 28.41c.36-7.75.6-7.6-13.02-8-13.6-.38-12.96-.3-11.17-1.52.9-.6 5.62-.73 12.98-.33 11 .58 11.56.53 11.24-1.14-.37-1.97-5.51-2.78-20.8-3.27l-8.3-.27.01 9.33a427 427 0 0 0 .1 10.48c.06.86 3.62 1.1 14.38.93l14.3-.21.28-6Zm-16.22-1.97c-.37-.6 2.16-.94 6.92-.94 4.12 0 7.76.42 8.08.94.37.6-2.16.94-6.92.94-4.13 0-7.76-.42-8.08-.94zm322.03 3.39 52.97-1.05.29-3.98.29-3.98h-10.6c-9.4 0-36.5.4-157.32 2.3-17.28.27-32.15.5-33.05.5-1.33 0-1.64.84-1.64 4.31v4.31l48.04-.68c26.43-.38 71.89-1.16 101.02-1.73Zm57.19-5.73c0-1.8-.42-3.28-.94-3.28s-.94 1.47-.94 3.28c0 1.8.42 3.28.94 3.28s.94-1.48.94-3.28zM77.62 79.6l-.28-5.72-7.65-3.08-7.65-3.09-.39 4.82c-.47 5.82-.13 6.22 8.2 9.82 8.53 3.68 8.1 3.83 7.77-2.75zm67.7 1.96c0-2.71-.16-2.81-4.3-2.81-7.25 0-4.8 5.1 2.65 5.53 1.22.07 1.64-.63 1.64-2.72zm67.5-2.83c5.4-.47 16.38-1.5 24.37-2.29 7.99-.79 16.64-1.39 19.22-1.33l4.68.11-4.21.79c-2.33.43-10.55 1.33-18.29 2l-14.06 1.2 27.6.26c17.4.15 27.94-.1 28.52-.69.6-.6 10.08-.72 26.78-.35 27.47.63 59.65-.5 47.88-1.66-3.35-.34-1.45-.4 4.22-.13C382.18 77.7 540 76.36 540 75.11c0-.54-76.16-1.29-147.38-1.45-18.06-.04-31.24-.42-30.77-.89 1.76-1.76 19.75-2.08 52.52-.93 56.16 1.97 68.1 2.23 65.63 1.43-1.3-.42 10.08-.7 25.31-.62 33.1.17 45.94-.26 45.94-1.53 0-.6-5.22-.74-14.77-.39-34.5 1.26-41.87 1.38-40.07.62 1.03-.44 8.62-1.07 16.87-1.4 30.75-1.24 37.97-1.75 37.97-2.68 0-.62-9.27-.74-27.42-.33-15.08.33-58.64 1-96.8 1.5-107.12 1.37-141.44 2.04-142.97 2.8-.77.4-12.37.96-25.78 1.25-13.81.3-23.36.2-22.03-.26 1.54-.52-1.93-.83-10.08-.89-7.72-.05-12.42.26-12.42.85 0 .51-1.37 1.02-3.05 1.12-1.67.1 1.39.42 6.8.7l9.84.52-14.06 1.22c-18.98 1.65-21.1 2.02-21.1 3.72 0 1.17.93 1.3 5.4.76a637.4 637.4 0 0 1 15.23-1.5zm51.56-2.8c1.28-.4 5.3-.73 8.9-.7l6.56.03-5.15.72c-7.25 1-13.5.98-10.31-.04zm74.76.25c-3.67-.19-6.33-.75-6.33-1.33 0-.59.89-.77 2.11-.44 1.16.31 4.56.57 7.56.58 3.39 0 5.22.36 4.86.95-.31.51-.87.85-1.22.75-.36-.1-3.5-.33-6.98-.51zm-48.51-2.5c0-.9 40.24 0 41.15.92.29.28-8.86.38-20.32.22-11.6-.16-20.83-.67-20.83-1.14zm58.12-.66c3.9-.78 10.07-.45 11.12.6.24.24-3.1.4-7.45.34-7.3-.1-7.57-.17-3.67-.94zm122.59-.56c1.17-.22 2.85-.21 3.75.02.9.24-.06.42-2.12.4-2.06 0-2.8-.2-1.63-.42zM58.4 66.5c-.41-.4-3.92-1.99-7.78-3.52l-7.04-2.78-.3 3.41c-.6 7.04-2.12 5.4-3.28-3.56-.23-1.8-14.94-7.72-15.79-6.36-.78 1.26-.13 8.27.85 9.26.4.4 8.11 3.84 17.13 7.65l16.4 6.93.28-5.15c.16-2.83-.06-5.48-.47-5.88zm142.97 6.16c10.26-.87 10.38-1.25.42-1.34l-8.68-.07.11 2.58c.06 1.44.3 1.88.53 1.01.32-1.22 2.01-1.7 7.62-2.18zm-41.15-.1c.22-.2-15.7-.37-35.39-.37-23.23 0-35.78.33-35.78.94 0 .89 70.23.33 71.17-.57zm-124.6-.73c0-2.62-18.2-6.16-24.52-4.77-1.65.36-2.67.2-2.67-.42 0-.64 2.71-1.03 7.26-1.05 8.91-.05 5.92-2.92-3.26-3.13-4.3-.1-4.97-.35-4.6-1.76.23-.9.04-1.87-.43-2.16-.48-.3-.85 2.54-.85 6.5v7.03l4.64-.23c2.54-.12 7.92.05 11.95.39 12.02 1 12.48 1 12.48-.4Zm138.04.6a55.8 55.8 0 0 0-7.97 0c-2.19.2-.4.37 3.99.37 4.38 0 6.17-.16 3.98-.36zm14.77-.21c0-.54-1.66-.69-3.99-.37-5.46.75-5.63 1.28-.39 1.28 2.4 0 4.38-.41 4.38-.91zm-21.1-3.32c44.35-.3 85.06-.73 90.47-.94 5.42-.2 34.31-.62 64.22-.9a6512 6512 0 0 0 69.85-.96c8.5-.24 39.3-.65 68.43-.93 29.14-.27 60.78-.76 70.31-1.08l17.35-.58-7.5-2.24c-7.36-2.2-8.03-2.23-35.16-1.76-15.2.27-48.96.7-75 .96s-59.15.7-73.6.97c-58.94 1.1-170.5 2.45-226.87 2.76-33 .18-61 .71-62.24 1.18-3.82 1.46 6.37 4.77 13.5 4.38 3.09-.16 41.9-.55 86.24-.86zm-58.59-6.57c63.62-.45 171.24-1.56 177.66-1.84 3.09-.14 49.07-.76 102.18-1.4 53.11-.63 105.42-1.42 116.25-1.76l19.68-.61-9.26-2.67-9.26-2.67-39.48.57-71.83 1.03c-58.9.85-96.51 1.47-142.97 2.37-25.27.5-74.84 1.12-110.16 1.4-35.32.27-71.13.74-79.57 1.04l-15.35.55 6.44 2.69c4.73 1.98 7.32 2.55 9.73 2.14 1.8-.3 22.48-.68 45.94-.84zM20.91 51.47c-.42-.42-3.82-2.02-7.56-3.56l-6.79-2.8.02 5.33.02 5.34 7.25 2.81 7.24 2.82.3-4.6c.15-2.51-.06-4.92-.48-5.34zm111.75 3.36c35.06-.23 70.5-.62 78.75-.88 8.25-.25 30.4-.7 49.22-.97 18.82-.28 45.6-.7 59.53-.95 30-.52 73.67-1.17 133.86-1.98 24.13-.33 43.7-.76 43.5-.96-.2-.2-4.12-1.46-8.7-2.8l-8.35-2.43-44.06.6c-24.24.32-50.18.78-57.66 1.01-7.48.23-32.16.65-54.84.93-22.7.28-48.21.7-56.72.94-8.51.24-33.82.67-56.25.95-22.43.28-44.37.7-48.75.92-4.39.23-32.23.7-61.88 1.03-29.65.34-57.49.88-61.87 1.2l-7.97.6 5.16 2.1c4.8 1.96 6.13 2.08 19.21 1.6 7.74-.28 42.75-.7 77.82-.91zM121.4 48.3c22.17-.35 42-.78 44.06-.95 2.06-.18 21.89-.57 44.06-.88 22.17-.3 47.06-.76 55.31-1 8.25-.25 31.67-.69 52.04-.98 20.36-.28 59.8-.91 87.65-1.4 27.85-.48 54.85-.91 60-.95l9.38-.08-7.5-2.29c-7.21-2.2-8.27-2.26-27.2-1.8-10.82.27-47.94.9-82.5 1.4-34.54.51-72.08 1.14-83.43 1.4-11.34.27-55.85.9-98.9 1.41-43.06.51-87.36 1.13-98.44 1.39-11.09.25-30.07.48-42.19.5l-22.03.06 5.94 2.57 5.95 2.56 28.74-.16c15.8-.1 46.88-.45 69.06-.8zm20.15-8.47c18.3-.25 45.94-.67 61.4-.92a32173 32173 0 0 1 62.82-.94c19.08-.27 42.28-.69 51.56-.93 9.29-.25 37.34-.67 62.35-.94 25-.27 52.28-.74 60.61-1.05l15.14-.55.45-2.35c1.05-5.48 1.08-5.47-16.49-5.4-8.87.03-17.38-.23-18.93-.58-1.55-.35 5.73-.69 16.17-.75l18.99-.1v-7.79l-13.6.63c-7.6.34-13.6.26-13.6-.2 0-.89 11.91-2.02 21.34-2.03 5.97 0 7.78-1.2 3.46-2.27-1.31-.33-13.21-.82-26.44-1.08-13.22-.26-24.28-.71-24.56-1-.28-.3 11.4-.38 25.97-.17 14.57.2 26.49.13 26.49-.16 0-6.03-6.35-7.65-27.92-7.1-10.69.28-54.23.74-96.77 1.01-42.54.28-84.1.7-92.34.92-8.25.23-60.76.68-116.7 1-113.7.64-104.91.03-109.76 7.68-4.79 7.54-4.17 8.65 4.97 8.79l7.74.11-6.57.81c-11.6 1.43-10.78.72-10.78 9.4v7.6l50.86-.59c27.97-.32 65.84-.8 84.14-1.06Zm11.72-4.25c-8.25-.35-22.38-.76-31.4-.92-10.7-.18-14.62-.48-11.25-.87 10.97-1.25 80.78.74 82.39 2.35.55.55-20.84.25-39.74-.56zM70.31 33.7c-1.6-.47-.35-.72 3.99-.78 3.5-.06 6.33.3 6.33.8 0 1.04-6.8 1.02-10.32-.02zm13.36.35a7.7 7.7 0 0 1 3.28 0c.9.24.17.43-1.64.43-1.8 0-2.54-.2-1.64-.43zm-68.35-2.63c.2-.58 3.9-.8 9.5-.59 13.97.53 15.29 1.57 1.97 1.55-7.44-.02-11.67-.37-11.47-.96Zm26.18.75a5.36 5.36 0 0 1 2.81.04c.64.25-.1.45-1.65.43-1.55-.02-2.07-.23-1.16-.47zm73.34-4.14c-14.36-.74-13.8-.66-13.08-1.83.42-.68-1.88-.94-7.21-.81-7.61.18-8.77-.1-8.14-1.94.4-1.15 10.87-2.69 23.28-3.4 5.41-.32 10.11-1 10.45-1.53.78-1.24 54.95-1.13 74.86.15 8 .52 23.4 1.17 34.22 1.45 32.66.86 46.39 1.6 46.96 2.54.35.55-3.65.7-10.55.39a2439 2439 0 0 0-27.97-1.01c-20.34-.62-36.45-1.26-47.82-1.89-31.34-1.74-78.75-1.3-60 .55 3.84.38 1 .62-8.9.77-8 .12-16.22.54-18.28.95-2.25.45.65.56 7.26.28 7.94-.34 11.02-.17 11.02.6 0 .7-2.24 1.11-6.33 1.16-14.14.18-14.9 1.38-1.47 2.3 10.6.73 60.14-.05 68.27-1.08 3.67-.46 4.45-.34 3.6.56-2.14 2.28-41.17 3.27-70.17 1.79zm257.82-1.81c-12.38-.91-26.93-1.94-32.35-2.28-5.41-.33-17.14-1.22-26.06-1.96a463.68 463.68 0 0 0-22.03-1.41c-3.2-.04-6.66-.46-7.69-.94-1.8-.83 18.18-.42 25.78.54 1.8.23 14.04 1.08 27.19 1.9 30.11 1.86 67.61 4.93 68.26 5.57.77.78-8.83.37-33.1-1.42zM9.9 21.68c-.54-.88 9.13-1.97 17.75-2 3.84-.01 5.18-.3 4.24-.9-2.3-1.45-.73-1.9 9.91-2.8 14.41-1.22 40.32-2.17 39.6-1.45-.34.34-8.35.97-17.8 1.42-20.5.97-29.86 1.86-29.86 2.84 0 .4.84.5 1.88.23 1.03-.27 1.87-.06 1.87.47 0 .55-3.58 1.21-8.2 1.53-4.51.31-10.61.76-13.55 1-2.94.24-5.57.09-5.84-.34zM270 18.73l-7.03-.62 8.69-.03c4.78-.02 8.91.34 9.2.79.27.45-.47.74-1.66.65-1.2-.1-5.33-.45-9.2-.8zM84.9 14.1c.64-.64 10.15-1.14 26.25-1.39 23.88-.37 24.29-.35 7.44.39-9.8.42-21.6 1.05-26.25 1.39-5.96.43-8.14.32-7.44-.39zM8 13.6l1.78-2.82-2.07 1.78c-2.26 1.95-4.26 7.75-3.24 9.38.36.57.9-.45 1.2-2.25A19.6 19.6 0 0 1 8 13.59Z"/></svg>