<?xml version="1.0" encoding="UTF-8"?>
<svg xmlns="http://www.w3.org/2000/svg" height="16px" viewBox="0 0 16 16" width="16px"><g fill="#2e3436"><path d="m 8 4.007812 c -2.195312 0 -4 1.804688 -4 4 c 0 2.191407 1.804688 4 4 4 s 4 -1.808593 4 -4 c 0 -2.195312 -1.804688 -4 -4 -4 z m 0 0"/><path d="m 7.5 0 h 1 c 0.277344 0 0.5 0.222656 0.5 0.5 v 2 c 0 0.277344 -0.222656 0.5 -0.5 0.5 h -1 c -0.277344 0 -0.5 -0.222656 -0.5 -0.5 v -2 c 0 -0.277344 0.222656 -0.5 0.5 -0.5 z m 0 0"/><path d="m 7.5 13 h 1 c 0.277344 0 0.5 0.222656 0.5 0.5 v 2 c 0 0.277344 -0.222656 0.5 -0.5 0.5 h -1 c -0.277344 0 -0.5 -0.222656 -0.5 -0.5 v -2 c 0 -0.277344 0.222656 -0.5 0.5 -0.5 z m 0 0"/><path d="m 1.988281 2.695312 l 0.707031 -0.707031 c 0.195313 -0.195312 0.511719 -0.195312 0.707032 0 l 1.414062 1.414063 c 0.195313 0.195312 0.195313 0.511718 0 0.707031 l -0.707031 0.707031 c -0.195313 0.195313 -0.511719 0.195313 -0.707031 0 l -1.414063 -1.414062 c -0.195312 -0.195313 -0.195312 -0.511719 0 -0.707032 z m 0 0"/><path d="m 11.183594 11.890625 l 0.707031 -0.707031 c 0.195313 -0.195313 0.511719 -0.195313 0.707031 0 l 1.414063 1.414062 c 0.195312 0.195313 0.195312 0.511719 0 0.707032 l -0.707031 0.707031 c -0.195313 0.195312 -0.511719 0.195312 -0.707032 0 l -1.414062 -1.414063 c -0.195313 -0.195312 -0.195313 -0.511718 0 -0.707031 z m 0 0"/><path d="m 2.695312 14.011719 l -0.707031 -0.707031 c -0.195312 -0.195313 -0.195312 -0.511719 0 -0.707032 l 1.414063 -1.414062 c 0.195312 -0.195313 0.511718 -0.195313 0.707031 0 l 0.707031 0.707031 c 0.195313 0.195313 0.195313 0.511719 0 0.707031 l -1.414062 1.414063 c -0.195313 0.195312 -0.511719 0.195312 -0.707032 0 z m 0 0"/><path d="m 11.890625 4.816406 l -0.707031 -0.707031 c -0.195313 -0.195313 -0.195313 -0.511719 0 -0.707031 l 1.414062 -1.414063 c 0.195313 -0.195312 0.511719 -0.195312 0.707032 0 l 0.707031 0.707031 c 0.195312 0.195313 0.195312 0.511719 0 0.707032 l -1.414063 1.414062 c -0.195312 0.195313 -0.511718 0.195313 -0.707031 0 z m 0 0"/><path d="m 16 7.5 v 1 c 0 0.277344 -0.222656 0.5 -0.5 0.5 h -2 c -0.277344 0 -0.5 -0.222656 -0.5 -0.5 v -1 c 0 -0.277344 0.222656 -0.5 0.5 -0.5 h 2 c 0.277344 0 0.5 0.222656 0.5 0.5 z m 0 0"/><path d="m 3 7.5 v 1 c 0 0.277344 -0.222656 0.5 -0.5 0.5 h -2 c -0.277344 0 -0.5 -0.222656 -0.5 -0.5 v -1 c 0 -0.277344 0.222656 -0.5 0.5 -0.5 h 2 c 0.277344 0 0.5 0.222656 0.5 0.5 z m 0 0"/></g></svg>
