<?xml version="1.0" encoding="UTF-8" standalone="no"?>
<svg
   height="16px"
   viewBox="0 0 16 16"
   width="16px"
   version="1.1"
   id="svg71"
   sodipodi:docname="code-symbolic.svg"
   inkscape:version="1.1-rc (52f87abb86, 2021-05-02)"
   xmlns:inkscape="http://www.inkscape.org/namespaces/inkscape"
   xmlns:sodipodi="http://sodipodi.sourceforge.net/DTD/sodipodi-0.dtd"
   xmlns="http://www.w3.org/2000/svg"
   xmlns:svg="http://www.w3.org/2000/svg">
  <defs
     id="defs75" />
  <sodipodi:namedview
     id="namedview73"
     pagecolor="#ffffff"
     bordercolor="#666666"
     borderopacity="1.0"
     objecttolerance="10.0"
     gridtolerance="10.0"
     guidetolerance="10.0"
     inkscape:pageshadow="2"
     inkscape:pageopacity="0.0"
     inkscape:pagecheckerboard="0"
     showgrid="true"
     inkscape:zoom="36.722856"
     inkscape:cx="5.024119"
     inkscape:cy="5.7457404"
     inkscape:current-layer="svg71" />
  <filter
     id="a"
     height="1"
     width="1"
     x="0"
     y="0">
    <feColorMatrix
       in="SourceGraphic"
       type="matrix"
       values="0 0 0 0 1 0 0 0 0 1 0 0 0 0 1 0 0 0 1 0"
       id="feColorMatrix2" />
  </filter>
  <mask
     id="b">
    <g
       filter="url(#a)"
       id="g7">
      <path
         d="m 0 0 h 16 v 16 h -16 z"
         fill-opacity="0.3"
         id="path5" />
    </g>
  </mask>
  <clipPath
     id="c">
    <path
       d="m 0 0 h 800 v 800 h -800 z"
       id="path10" />
  </clipPath>
  <mask
     id="d">
    <g
       filter="url(#a)"
       id="g15">
      <path
         d="m 0 0 h 16 v 16 h -16 z"
         fill-opacity="0.35"
         id="path13" />
    </g>
  </mask>
  <clipPath
     id="e">
    <path
       d="m 0 0 h 800 v 800 h -800 z"
       id="path18" />
  </clipPath>
  <mask
     id="f">
    <g
       filter="url(#a)"
       id="g23">
      <path
         d="m 0 0 h 16 v 16 h -16 z"
         fill-opacity="0.35"
         id="path21" />
    </g>
  </mask>
  <clipPath
     id="g">
    <path
       d="m 0 0 h 800 v 800 h -800 z"
       id="path26" />
  </clipPath>
  <mask
     id="h">
    <g
       filter="url(#a)"
       id="g31">
      <path
         d="m 0 0 h 16 v 16 h -16 z"
         fill-opacity="0.35"
         id="path29" />
    </g>
  </mask>
  <clipPath
     id="i">
    <path
       d="m 0 0 h 800 v 800 h -800 z"
       id="path34" />
  </clipPath>
  <mask
     id="j">
    <g
       filter="url(#a)"
       id="g39">
      <path
         d="m 0 0 h 16 v 16 h -16 z"
         fill-opacity="0.35"
         id="path37" />
    </g>
  </mask>
  <clipPath
     id="k">
    <path
       d="m 0 0 h 800 v 800 h -800 z"
       id="path42" />
  </clipPath>
  <g
     clip-path="url(#c)"
     mask="url(#b)"
     transform="matrix(1 0 0 1 -140 -600)"
     id="g47">
    <path
       d="m 142.5 351 h 10.449219 c -1.183594 0.492188 -1.296875 2.457031 0 3 h -10.449219 z m 0 0"
       fill="#2e3436"
       id="path45" />
  </g>
  <g
     clip-path="url(#e)"
     mask="url(#d)"
     transform="matrix(1 0 0 1 -140 -600)"
     id="g51">
    <path
       d="m 104 502 c 0 0.550781 -0.449219 1 -1 1 s -1 -0.449219 -1 -1 s 0.449219 -1 1 -1 s 1 0.449219 1 1 z m 0 0"
       fill="#2e3436"
       id="path49" />
  </g>
  <g
     clip-path="url(#g)"
     mask="url(#f)"
     transform="matrix(1 0 0 1 -140 -600)"
     id="g55">
    <path
       d="m 106 501 v 2 h 8 v -2 z m 0 0"
       fill="#2e3436"
       fill-rule="evenodd"
       id="path53" />
  </g>
  <g
     clip-path="url(#i)"
     mask="url(#h)"
     transform="matrix(1 0 0 1 -140 -600)"
     id="g59">
    <path
       d="m 104 514 c 0 0.550781 -0.449219 1 -1 1 s -1 -0.449219 -1 -1 s 0.449219 -1 1 -1 s 1 0.449219 1 1 z m 0 0"
       fill="#2e3436"
       id="path57" />
  </g>
  <g
     clip-path="url(#k)"
     mask="url(#j)"
     transform="matrix(1 0 0 1 -140 -600)"
     id="g63">
    <path
       d="m 106 513 v 2 h 8 v -2 z m 0 0"
       fill="#2e3436"
       fill-rule="evenodd"
       id="path61" />
  </g>
  <g
     fill="#2e3436"
     fill-rule="evenodd"
     id="g69">
    <path
       d="m 9.015625,1 v 2 h 2 v 10 h -2 v 2 h 2 c 0.832031,0 1.523437,-0.5625 1.765625,-1.050781 C 13.027344,13.457031 13.011719,13 13.011719,13 V 9 h 1 C 14.558594,8.992188 15,8.546875 15,8 15,7.453125 14.558594,7.007812 14.011719,7 h -1 V 3 c 0,0 0.01563,-0.457031 -0.230469,-0.949219 C 12.539062,1.5625 11.847656,1 11.015625,1 Z"
       id="path65"
       sodipodi:nodetypes="ccccccsccccsccccsc" />
    <path
       d="M 5,1 C 4.167969,1 3.476562,1.5625 3.230469,2.050781 2.984375,2.542969 3,3 3,3 V 7 H 2 C 1.453125,7.00781 1.015625,7.453125 1.015625,8 c 0,0.546875 0.4375,0.992188 0.984375,1 h 1 v 4 C 3,13 2.984375,13.457031 3.230469,13.949219 3.476562,14.4375 4.167969,15 5,15 H 7 V 13 H 5 V 3 H 7 V 1 Z"
       id="path67"
       sodipodi:nodetypes="sccccsccccsccccccs" />
  </g>
</svg>
