<?xml version="1.0" encoding="UTF-8"?>
<svg height="16px" viewBox="0 0 16 16" width="16px" xmlns="http://www.w3.org/2000/svg">
    <path d="m 4 1 c -2 0 -2 2 -2 2 h 11 v 11 h -11 s 0 2 2 2 h 9 s 0.457031 0.015625 0.949219 -0.230469 c 0.488281 -0.246093 1.050781 -0.9375 1.050781 -1.769531 v -11 c 0 -0.832031 -0.5625 -1.523438 -1.050781 -1.769531 c -0.492188 -0.246094 -0.949219 -0.230469 -0.949219 -0.230469 z m -2.5 3 c -0.277344 0 -0.5 0.222656 -0.5 0.5 s 0.222656 0.5 0.5 0.5 h 2 c 0.277344 0 0.5 -0.222656 0.5 -0.5 s -0.222656 -0.5 -0.5 -0.5 z m 7.023438 0.992188 c -0.078126 0.003906 -0.15625 0.007812 -0.238282 0.011718 c -0.214844 0.015625 -0.429687 0.050782 -0.640625 0.101563 c -1.710937 0.433593 -2.839843 2.082031 -2.617187 3.832031 c 0.222656 1.753906 1.722656 3.070312 3.484375 3.0625 c 0.851562 0 1.644531 -0.273438 1.644531 -0.273438 l -0.3125 -0.953124 s -0.707031 0.226562 -1.332031 0.226562 c -1.269531 0.003906 -2.332031 -0.929688 -2.492188 -2.1875 c -0.160156 -1.253906 0.640625 -2.425781 1.867188 -2.738281 c 0.617187 -0.152344 1.28125 -0.074219 1.808593 0.164062 c 0.527344 0.242188 0.890626 0.632813 1.003907 1.0625 c 0.125 0.460938 0.085937 0.96875 -0.085938 1.273438 c -0.097656 0.175781 -0.402343 0.355469 -0.613281 0.425781 v -0.5 c 0 -0.824219 -0.675781 -1.5 -1.5 -1.5 s -1.5 0.675781 -1.5 1.5 s 0.675781 1.5 1.5 1.5 c 0.175781 0 0.34375 -0.039062 0.5 -0.09375 v 0.042969 l 0.449219 0.050781 c 0.941406 0.09375 1.691406 -0.320312 2.039062 -0.9375 c 0.347657 -0.617188 0.355469 -1.359375 0.179688 -2.019531 c -0.210938 -0.785157 -0.820313 -1.375 -1.554688 -1.710938 c -0.484375 -0.222656 -1.027343 -0.34375 -1.589843 -0.339843 z m -7.023438 1.007812 c -0.277344 0 -0.5 0.222656 -0.5 0.5 s 0.222656 0.5 0.5 0.5 h 2 c 0.277344 0 0.5 -0.222656 0.5 -0.5 s -0.222656 -0.5 -0.5 -0.5 z m 0 2 c -0.277344 0 -0.5 0.222656 -0.5 0.5 s 0.222656 0.5 0.5 0.5 h 2 c 0.277344 0 0.5 -0.222656 0.5 -0.5 s -0.222656 -0.5 -0.5 -0.5 z m 7 0 c 0.28125 0 0.5 0.21875 0.5 0.5 s -0.21875 0.5 -0.5 0.5 s -0.5 -0.21875 -0.5 -0.5 s 0.21875 -0.5 0.5 -0.5 z m -7 2 c -0.277344 0 -0.5 0.222656 -0.5 0.5 s 0.222656 0.5 0.5 0.5 h 2 c 0.277344 0 0.5 -0.222656 0.5 -0.5 s -0.222656 -0.5 -0.5 -0.5 z m 0 2 c -0.277344 0 -0.5 0.222656 -0.5 0.5 s 0.222656 0.5 0.5 0.5 h 2 c 0.277344 0 0.5 -0.222656 0.5 -0.5 s -0.222656 -0.5 -0.5 -0.5 z m 0 0" fill="#222222"/>
</svg>
