<?xml version="1.0" encoding="UTF-8"?>
<svg height="16px" viewBox="0 0 16 16" width="16px" xmlns="http://www.w3.org/2000/svg">
    <g fill="#222222">
        <path d="m 10 1 v 1 c 0 0.257812 0.128906 0.527344 0.3125 0.71875 l 1.28125 1.28125 h -3.363281 c 1.378906 0.074219 2.605469 0.847656 3.269531 2 h 0.125 l -0.074219 0.078125 c 0.269531 0.496094 0.449219 1.046875 0.484375 1.648437 v 0.054688 c 0 0.265625 -0.019531 0.515625 -0.050781 0.761719 l 3.421875 -3.542969 l -3.65625 -3.71875 c -0.199219 -0.191406 -0.441406 -0.28125 -0.75 -0.28125 z m -3 3 c -0.292969 -0.003906 -0.558594 0.148438 -0.746094 0.371094 c 0.414063 -0.199219 0.871094 -0.320313 1.347656 -0.371094 z m -2.929688 3.40625 l -3.476562 3.59375 l 3.65625 3.71875 c 0.199219 0.191406 0.441406 0.28125 0.75 0.28125 h 1 v -1 c 0 -0.257812 -0.128906 -0.527344 -0.3125 -0.71875 l -1.28125 -1.28125 h 1.96875 c -0.207031 -0.292969 -0.34375 -0.632812 -0.335938 -1.039062 c 0 -0.355469 0.074219 -0.671876 0.179688 -0.960938 h -1.84375 l 0.980469 -1.03125 h -1.265625 l -0.050782 -0.941406 c -0.015624 -0.214844 0.007813 -0.417969 0.027344 -0.621094 z m 0 0" fill-opacity="0.34902"/>
        <path d="m 7.847656 4.96875 c 1.644532 -0.09375 3.097656 1.171875 3.1875 2.8125 c 0 1.402344 -0.378906 1.921875 -1.59375 2.84375 c -0.191406 0.144531 -0.324218 0.25 -0.375 0.3125 c -0.050781 0.0625 -0.03125 0.03125 -0.03125 0.03125 c 0.007813 0.527344 -0.472656 1 -1 1 s -1.007812 -0.472656 -1 -1 c 0 -0.503906 0.226563 -0.945312 0.46875 -1.25 c 0.246094 -0.308594 0.492188 -0.515625 0.71875 -0.6875 c 0.203125 -0.160156 0.460938 -0.382812 0.6875 -0.65625 c 0.09375 -0.113281 0.128906 -0.308594 0.125 -0.4375 v -0.03125 c -0.03125 -0.5625 -0.5 -0.96875 -1.0625 -0.9375 s -0.96875 0.4375 -0.9375 1 h -2 c -0.089844 -1.640625 1.171875 -2.90625 2.8125 -3 z m 0.1875 8 c 0.550782 0 1 0.449219 1 1 s -0.449218 1 -1 1 c -0.550781 0 -1 -0.449219 -1 -1 s 0.449219 -1 1 -1 z m 0 0"/>
    </g>
</svg>
