<?xml version="1.0" encoding="UTF-8"?>
<svg height="16px" viewBox="0 0 16 16" width="16px" xmlns="http://www.w3.org/2000/svg">
    <path d="m 12 13 v -10 l 1 1 h -10.078125 c -0.550781 0 -1 -0.449219 -1 -1 s 0.449219 -1 1 -1 h 10.078125 c 0.550781 0 1 0.449219 1 1 v 10 c 0 0.550781 -0.449219 1 -1 1 s -1 -0.449219 -1 -1 z m 0 0"/>
    <path d="m 13.550781 3.703125 l -9.835937 10 c -0.390625 0.390625 -1.023438 0.398437 -1.417969 0.011719 c -0.390625 -0.390625 -0.398437 -1.023438 -0.011719 -1.417969 l 9.839844 -10 c 0.386719 -0.390625 1.019531 -0.398437 1.414062 -0.011719 c 0.390626 0.390625 0.398438 1.023438 0.011719 1.417969 z m 0 0"/>
</svg>
