<?xml version="1.0" encoding="UTF-8"?>
<svg height="16px" viewBox="0 0 16 16" width="16px" xmlns="http://www.w3.org/2000/svg">
    <path d="m 1.972656 3.773438 c -0.132812 0.007812 -0.257812 0.070312 -0.34375 0.167968 c -1.066406 1.210938 -1.628906 2.585938 -1.628906 3.984375 c 0 1.402344 0.558594 2.8125 1.617188 4.105469 c 0.175781 0.214844 0.488281 0.246094 0.703124 0.070312 c 0.214844 -0.175781 0.246094 -0.488281 0.070313 -0.703124 c -0.945313 -1.152344 -1.390625 -2.332032 -1.390625 -3.472657 c 0 -1.136719 0.441406 -2.261719 1.378906 -3.324219 c 0.089844 -0.097656 0.132813 -0.226562 0.125 -0.359374 c -0.007812 -0.132813 -0.070312 -0.257813 -0.167968 -0.347657 c -0.101563 -0.085937 -0.230469 -0.128906 -0.363282 -0.121093 z m 11.984375 0 c -0.105469 0.011718 -0.207031 0.054687 -0.285156 0.121093 c -0.101563 0.089844 -0.160156 0.214844 -0.167969 0.347657 c -0.007812 0.132812 0.035156 0.261718 0.125 0.363281 c 0.933594 1.058593 1.375 2.183593 1.375 3.320312 c 0 1.140625 -0.445312 2.320313 -1.386718 3.472657 c -0.175782 0.214843 -0.144532 0.527343 0.070312 0.703124 c 0.210938 0.175782 0.527344 0.144532 0.703125 -0.070312 c 1.058594 -1.292969 1.613281 -2.703125 1.613281 -4.101562 c 0 -1.402344 -0.558594 -2.777344 -1.625 -3.988282 c -0.109375 -0.121094 -0.265625 -0.183594 -0.421875 -0.167968 z m -8.101562 0.164062 c -0.480469 0.023438 -0.855469 0.417969 -0.855469 0.898438 v 6.359374 c 0 0.3125 0.167969 0.601563 0.441406 0.753907 c 0.273438 0.148437 0.605469 0.144531 0.871094 -0.023438 l 5.265625 -3.246093 c 0.238281 -0.144532 0.378906 -0.402344 0.382813 -0.679688 c 0 -0.277344 -0.144532 -0.535156 -0.378907 -0.683594 l -5.203125 -3.246094 c -0.15625 -0.097656 -0.339844 -0.144531 -0.523437 -0.132812 z m -2.359375 1.050781 c -0.160156 -0.003906 -0.3125 0.066407 -0.410156 0.195313 c -0.679688 0.886718 -1.070313 1.824218 -1.078126 2.792968 c -0.011718 0.964844 0.363282 1.921876 1.085938 2.835938 c 0.167969 0.214844 0.484375 0.25 0.699219 0.078125 c 0.214843 -0.167969 0.253906 -0.484375 0.082031 -0.699219 c -0.617188 -0.777344 -0.875 -1.5 -0.871094 -2.207031 c 0.007813 -0.703125 0.289063 -1.425781 0.875 -2.191406 c 0.167969 -0.21875 0.128906 -0.53125 -0.09375 -0.703125 c -0.082031 -0.0625 -0.183594 -0.097656 -0.289062 -0.101563 z m 9.015625 0 c -0.109375 0.003907 -0.210938 0.039063 -0.292969 0.105469 c -0.21875 0.164062 -0.261719 0.480469 -0.09375 0.699219 c 0.585938 0.765625 0.867188 1.488281 0.875 2.195312 c 0.007812 0.703125 -0.253906 1.425781 -0.867188 2.203125 c -0.171874 0.214844 -0.136718 0.53125 0.082032 0.703125 c 0.214844 0.167969 0.527344 0.132813 0.699218 -0.082031 c 0.722657 -0.914062 1.097657 -1.871094 1.085938 -2.835938 c -0.011719 -0.96875 -0.398438 -1.90625 -1.078125 -2.792968 c -0.097656 -0.128906 -0.253906 -0.199219 -0.410156 -0.195313 z m 0 0" fill="#222222"/>
</svg>
