<?xml version="1.0" encoding="UTF-8"?>
<svg height="16px" viewBox="0 0 16 16" width="16px" xmlns="http://www.w3.org/2000/svg">
    <path d="m 0 1.007812 c 0 -0.550781 0.445312 -0.9999995 1 -0.9999995 h 11 c 0.550781 0 1 0.4492185 1 0.9999995 v 4 h -2 v -3 h -9 v 10 h 3 v 2 h -4 c -0.554688 0 -1 -0.449218 -1 -1 z m 0 0"/>
    <path d="m 6 7.007812 c 0 -0.554687 0.449219 -1 1 -1 h 8.035156 c 0.550782 0 0.996094 0.445313 1 1 v 7 c -0.003906 0.550782 -0.449218 1 -1 1 h -8.035156 c -0.550781 0 -1 -0.449218 -1 -1 z m 2 1 v 5 h 6.035156 v -5 z m 0 0" fill-opacity="0.34902"/>
</svg>
