<?xml version="1.0" encoding="UTF-8"?>
<svg height="16px" viewBox="0 0 16 16" width="16px" xmlns="http://www.w3.org/2000/svg">
    <g fill="#222222">
        <path d="m 8 0 c -2.453125 0 -4.488281 1.757812 -4.917969 4.089844 l 1.878907 1.875 c 0.027343 -0.320313 0.039062 -0.640625 0.039062 -0.964844 c 0 -1.652344 1.347656 -3 3 -3 s 3 1.347656 3 3 c 0 1.359375 0.214844 2.707031 0.628906 4 h -3.632812 l 2 2 h 3.03125 c 0.324218 0 0.625 -0.15625 0.8125 -0.417969 c 0.1875 -0.265625 0.238281 -0.601562 0.132812 -0.90625 l -0.371094 -1.078125 c -0.398437 -1.15625 -0.601562 -2.375 -0.601562 -3.597656 c 0 -2.765625 -2.234375 -5 -5 -5 z m -5.054688 6.070312 c -0.082031 0.859376 -0.265624 1.707032 -0.546874 2.527344 l -0.371094 1.078125 c -0.105469 0.304688 -0.058594 0.640625 0.132812 0.90625 c 0.1875 0.261719 0.488282 0.417969 0.8125 0.417969 h 4.902344 l -2 -2 h -1.507812 c 0.128906 -0.390625 0.234374 -0.785156 0.320312 -1.183594 z m 3.1875 5.914063 c -0.398437 -0.0625 -0.796874 0.121094 -1.007812 0.46875 c -0.210938 0.34375 -0.191406 0.78125 0.046875 1.109375 c 0.648437 0.890625 1.675781 1.421875 2.777344 1.4375 c 1.042969 0.015625 2.03125 -0.433594 2.703125 -1.21875 l -1.410156 -1.414062 c -0.019532 0.015624 -0.039063 0.03125 -0.058594 0.050781 c -0.285156 0.371093 -0.734375 0.589843 -1.207032 0.582031 c -0.46875 -0.007812 -0.910156 -0.234375 -1.1875 -0.613281 c -0.15625 -0.21875 -0.390624 -0.359375 -0.65625 -0.402344 z m 0 0"/>
        <path d="m 1.53125 0.457031 l -1.0625 1.0625 l 14 14 l 1.0625 -1.0625 z m 0 0"/>
    </g>
</svg>
