<?xml version="1.0" encoding="UTF-8"?>
<svg height="16px" viewBox="0 0 16 16" width="16px" xmlns="http://www.w3.org/2000/svg">
    <g fill="#222222">
        <path d="m 8 1 c -0.828125 0 -1.5 0.671875 -1.5 1.5 c 0 0.09375 0.007812 0.191406 0.027344 0.28125 c -1.101563 0.4375 -1.953125 1.34375 -2.328125 2.46875 l 6.753906 6.75 h 1.546875 c 0.554688 0 1 -0.445312 1 -1 s -0.445312 -1 -1 -1 h -0.5 v -3.5 c 0 -1.640625 -1.003906 -3.113281 -2.527344 -3.71875 c 0.019532 -0.09375 0.027344 -0.1875 0.027344 -0.28125 c 0 -0.828125 -0.671875 -1.5 -1.5 -1.5 z m -4 6.171875 v 2.828125 h -0.5 c -0.554688 0 -1 0.445312 -1 1 s 0.445312 1 1 1 h 5.328125 z m 2 5.828125 c 0 0.714844 0.382812 1.375 1 1.734375 c 0.617188 0.355469 1.382812 0.355469 2 0 c 0.566406 -0.332031 0.9375 -0.917969 0.992188 -1.570313 l -0.164063 -0.164062 z m 0 0"/>
        <path d="m 1.53125 0.457031 l -1.0625 1.0625 l 14 14 l 1.0625 -1.0625 z m 0 0"/>
    </g>
</svg>
