<?xml version="1.0" encoding="UTF-8"?>
<svg height="16px" viewBox="0 0 16 16" width="16px" xmlns="http://www.w3.org/2000/svg">
    <path d="m 6.617188 0.0742188 c -0.375 0.1562502 -0.617188 0.5195312 -0.617188 0.9257812 v 3.585938 l -1.292969 -1.292969 c -0.390625 -0.390625 -1.023437 -0.390625 -1.414062 0 s -0.390625 1.023437 0 1.414062 l 2.707031 2.707031 v 1.171876 l -2.707031 2.707031 c -0.390625 0.390625 -0.390625 1.023437 0 1.414062 s 1.023437 0.390625 1.414062 0 l 1.292969 -1.292969 v 3.585938 c 0 0.40625 0.242188 0.769531 0.617188 0.921875 c 0.375 0.15625 0.804687 0.070313 1.089843 -0.214844 l 4 -4 c 0.390625 -0.390625 0.390625 -1.023437 0 -1.414062 l -2.292969 -2.292969 l 2.292969 -2.292969 c 0.390625 -0.390625 0.390625 -1.023437 0 -1.414062 l -4 -4 c -0.285156 -0.2851565 -0.714843 -0.371094 -1.089843 -0.2187502 z m 1.382812 3.3398432 l 1.585938 1.585938 l -1.585938 1.585938 z m 0 6 l 1.585938 1.585938 l -1.585938 1.585938 z m 0 0" fill="#222222"/>
</svg>
