<?xml version="1.0" encoding="UTF-8"?>
<svg height="16px" viewBox="0 0 16 16" width="16px" xmlns="http://www.w3.org/2000/svg">
    <path d="m 6 0 v 4.585938 l -1.292969 -1.292969 c -0.1875 -0.183594 -0.445312 -0.285157 -0.707031 -0.28125 v -0.011719 h -1 v 1 h 0.011719 c -0.003907 0.261719 0.097656 0.519531 0.28125 0.707031 l 2.707031 2.707031 v 1.171876 l -2.707031 2.707031 c -0.183594 0.1875 -0.285157 0.445312 -0.28125 0.707031 h -0.011719 v 1 h 1 v -0.011719 c 0.261719 0.003907 0.519531 -0.097656 0.707031 -0.28125 l 1.292969 -1.292969 v 4.585938 h 1 v -0.011719 c 0.261719 0.003907 0.519531 -0.097656 0.707031 -0.28125 l 4 -4 c 0.390625 -0.390625 0.390625 -1.023437 0 -1.414062 l -2.292969 -2.292969 l 2.292969 -2.292969 c 0.390625 -0.390625 0.390625 -1.023437 0 -1.414062 l -4 -4 c -0.1875 -0.183594 -0.441406 -0.2851565 -0.707031 -0.2812502 v -0.0117188 z m 2 3.414062 l 1.585938 1.585938 l -1.585938 1.585938 z m 0 6 l 1.585938 1.585938 l -1.585938 1.585938 z m 0 0" fill="#222222"/>
</svg>
