<?xml version="1.0" encoding="UTF-8"?>
<svg height="16px" viewBox="0 0 16 16" width="16px" xmlns="http://www.w3.org/2000/svg">
    <g fill="#222222">
        <path d="m 3.703125 4.289062 l -1.414063 1.414063 l 5.707032 5.707031 l 5.707031 -5.707031 l -1.414063 -1.414063 l -4.292968 4.296876 z m -1.703125 7.691407 v 2 l 1 0.003906 l 10 0.011719 l 1 0.003906 v -2 l -1 -0.003906 l -10 -0.011719 z m 0 0"/>
        <path d="m 2.996094 4.996094 v -1 h -1 v 1 z m 11 0 v -1 h -1 v 1 z m 0 0"/>
        <path d="m 13.996094 4.996094 c 0 -0.550782 -0.445313 -1 -1 -1 c -0.550782 0 -1 0.449218 -1 1 c 0 0.554687 0.449218 1 1 1 c 0.554687 0 1 -0.445313 1 -1 z m -10 0 c 0 -0.550782 -0.445313 -1 -1 -1 c -0.550782 0 -1 0.449218 -1 1 c 0 0.554687 0.449218 1 1 1 c 0.554687 0 1 -0.445313 1 -1 z m 0 0"/>
    </g>
</svg>
