<?xml version="1.0" encoding="UTF-8"?>
<svg height="16px" viewBox="0 0 16 16" width="16px" xmlns="http://www.w3.org/2000/svg">
    <g fill="#222222">
        <path d="m 9 1.972656 c 0 -1.105468 -0.894531 -1.9999998 -2 -1.9999998 s -2 0.8945318 -2 1.9999998 c 0 1.105469 0.894531 2 2 2 s 2 -0.894531 2 -2 z m 0 0"/>
        <path d="m 9 13.972656 c 0 -1.105468 -0.894531 -2 -2 -2 s -2 0.894532 -2 2 c 0 1.105469 0.894531 2 2 2 s 2 -0.894531 2 -2 z m 0 0"/>
        <path d="m 6 13.972656 v -12 h 2 v 12 z m 0 0"/>
        <path d="m 6 12 c 0 -1.335938 0.8125 -2.273438 1.550781 -2.644531 c 0.738281 -0.367188 1.433594 -0.355469 1.441407 -0.355469 l 2 -0.027344 h 0.007812 c 0.167969 0 0.449219 -0.113281 0.667969 -0.332031 s 0.332031 -0.503906 0.332031 -0.667969 v -3 h 2 v 3 c 0 0.832032 -0.386719 1.550782 -0.917969 2.082032 s -1.25 0.917968 -2.082031 0.917968 l -1.992188 0.027344 h -0.007812 s -0.292969 0.011719 -0.554688 0.144531 c -0.257812 0.128907 -0.445312 0.1875 -0.445312 0.855469 z m 0 0"/>
        <path d="m 15 3.972656 c 0 -1.105468 -0.894531 -2 -2 -2 s -2 0.894532 -2 2 c 0 1.105469 0.894531 2 2 2 s 2 -0.894531 2 -2 z m 0 0"/>
    </g>
</svg>
