<?xml version="1.0" encoding="UTF-8"?>
<svg height="16px" viewBox="0 0 16 16" width="16px" xmlns="http://www.w3.org/2000/svg">
    <path d="m 7 -0.0273438 c -1.105469 0 -2 0.8945318 -2 1.9999998 c 0.003906 0.710938 0.382812 1.371094 1 1.726563 v 8.542969 c -0.617188 0.359374 -1 1.015624 -1 1.730468 c 0 1.105469 0.894531 2 2 2 s 2 -0.894531 2 -2 c 0 -0.714844 -0.382812 -1.375 -1 -1.734375 v -0.238281 c 0 -0.667969 0.1875 -0.726562 0.445312 -0.859375 c 0.261719 -0.128906 0.554688 -0.144531 0.554688 -0.144531 h 0.007812 l 1.992188 -0.023438 c 0.832031 0 1.550781 -0.386718 2.082031 -0.917968 s 0.917969 -1.25 0.917969 -2.082032 v -2.273437 c 0.617188 -0.355469 0.996094 -1.015625 1 -1.726563 c 0 -1.105468 -0.894531 -2 -2 -2 s -2 0.894532 -2 2 c 0 0.710938 0.382812 1.371094 1 1.726563 v 2.273437 c 0 0.167969 -0.113281 0.449219 -0.332031 0.667969 s -0.5 0.332031 -0.667969 0.332031 h -0.007812 l -2 0.027344 c -0.007813 0 -0.445313 -0.003906 -0.992188 0.171875 v -5.472656 c 0.617188 -0.355469 0.996094 -1.015625 1 -1.726563 c 0 -1.105468 -0.894531 -1.9999998 -2 -1.9999998 z m 0 0" fill="#222222"/>
</svg>
