<?xml version="1.0" encoding="UTF-8"?>
<svg height="16px" viewBox="0 0 16 16" width="16px" xmlns="http://www.w3.org/2000/svg">
    <path d="m 1.941406 0.0117188 c -0.941406 0 -1.925781 0.9882812 -1.925781 1.9882812 v 12.90625 c 0 0.605469 0.488281 1.09375 1.09375 1.09375 h 0.8125 c 0.605469 0 1.09375 -0.488281 1.09375 -1.09375 v -0.90625 h 9.984375 v 0.90625 c 0 0.605469 0.488281 1.09375 1.09375 1.09375 h 0.8125 c 0.605469 0 1.09375 -0.488281 1.09375 -1.09375 v -12.960938 c 0 -0.945312 -1 -1.9335932 -1.976562 -1.9335932 z m 1.191406 1.9687502 h 9.796876 c 0.605468 0 1.09375 0.484375 1.09375 1.09375 v 4.832031 c 0 0.605469 -0.488282 1.09375 -1.09375 1.09375 h -9.796876 c -0.605468 0 -1.09375 -0.488281 -1.09375 -1.09375 v -4.832031 c 0 -0.609375 0.488282 -1.09375 1.09375 -1.09375 z m -0.613281 8.019531 c 0.828125 0 1.5 0.671875 1.5 1.5 s -0.671875 1.5 -1.5 1.5 s -1.5 -0.671875 -1.5 -1.5 s 0.671875 -1.5 1.5 -1.5 z m 11.027344 0 c 0.828125 0 1.5 0.671875 1.5 1.5 s -0.671875 1.5 -1.5 1.5 s -1.5 -0.671875 -1.5 -1.5 s 0.671875 -1.5 1.5 -1.5 z m 0 0" fill="#222222"/>
</svg>
