<?xml version="1.0" encoding="UTF-8"?>
<svg height="16px" viewBox="0 0 16 16" width="16px" xmlns="http://www.w3.org/2000/svg">
    <path d="m 4.445312 13.988281 c -0.269531 0 -0.496093 -0.226562 -0.496093 -0.492187 c 0 -0.269532 0.226562 -0.496094 0.496093 -0.496094 c 0.265626 0 0.492188 0.226562 0.492188 0.496094 c 0 0.265625 -0.226562 0.492187 -0.492188 0.492187 z m 0 -2.988281 c -1.382812 0 -2.496093 1.113281 -2.496093 2.496094 c 0 1.378906 1.113281 2.492187 2.496093 2.492187 c 1.378907 0 2.492188 -1.113281 2.492188 -2.492187 c 0 -1.382813 -1.113281 -2.496094 -2.492188 -2.496094 z m 0 0"/>
    <path d="m 10.027344 12.496094 h -4.015625 c -0.550781 0 -1 0.445312 -1 1 c 0 0.550781 0.449219 1 1 1 h 4.015625 c 0.550781 0 1 -0.449219 1 -1 c 0 -0.554688 -0.449219 -1 -1 -1 z m -7.304688 0 c -0.402344 0 -0.734375 -0.335938 -0.734375 -0.738282 v -4.371093 c 0 -0.203125 0.175781 -0.378907 0.382813 -0.378907 h 11.25 c 0.203125 0 0.378906 0.175782 0.378906 0.378907 v 4.148437 c 0 0.523438 -0.433594 0.960938 -0.957031 0.960938 c -0.550781 0 -1 0.449218 -1 1 c 0 0.550781 0.449219 1 1 1 c 1.640625 -0.003906 2.960937 -1.324219 2.957031 -2.960938 v -4.148437 c 0 -1.320313 -1.058594 -2.378907 -2.378906 -2.378907 h -11.25 c -1.320313 0 -2.3828128 1.058594 -2.3828128 2.378907 v 4.367187 c 0 1.515625 1.2148438 2.738282 2.7304688 2.742188 c 0.550781 0 1 -0.445313 1 -1 c 0.003906 -0.550782 -0.445312 -1 -0.996094 -1 z m 0 0"/>
    <path d="m 11.515625 13.988281 c -0.265625 0 -0.492187 -0.226562 -0.492187 -0.492187 c 0 -0.269532 0.226562 -0.496094 0.492187 -0.496094 c 0.269531 0 0.496094 0.226562 0.496094 0.496094 c 0 0.265625 -0.226563 0.492187 -0.496094 0.492187 z m 0 -2.988281 c -1.382813 0 -2.492187 1.113281 -2.492187 2.496094 c 0 1.378906 1.109374 2.492187 2.492187 2.492187 s 2.496094 -1.113281 2.496094 -2.492187 c 0 -1.382813 -1.113281 -2.496094 -2.496094 -2.496094 z m 0 0"/>
    <path d="m 2 9.96875 v -7.109375 c 0 -0.46875 0.390625 -0.859375 0.859375 -0.859375 h 8.59375 c 0.679687 0 1.292969 0.4375 1.511719 1.082031 l 0.507812 1.488281 c 0.363282 1.0625 0.546875 2.175782 0.546875 3.296876 v 1.054687 c 0 0.554687 0.449219 1 1 1 c 0.554688 0 1 -0.445313 1 -1 v -1.054687 c 0 -1.34375 -0.21875 -2.671876 -0.652343 -3.941407 l -0.507813 -1.488281 c -0.5 -1.460938 -1.863281 -2.4375 -3.40625 -2.4375 h -8.59375 c -1.585937 0 -2.859375 1.273438 -2.859375 2.859375 v 7.109375 c 0 0.550781 0.449219 1 1 1 s 1 -0.449219 1 -1 z m 0 0"/>
    <path d="m 3.886719 1 h 1.125 v 5 h -1.125 z m 0 0"/>
    <path d="m 6.875 1 h 1.125 v 5 h -1.125 z m 0 0"/>
    <path d="m 9.875 1 h 1.125 v 5 h -1.125 z m 0 0"/>
</svg>
