<?xml version="1.0" encoding="UTF-8"?>
<svg height="16px" viewBox="0 0 16 16" width="16px" xmlns="http://www.w3.org/2000/svg">
    <g fill="#222222">
        <path d="m 2.398438 2 c -1.328126 0 -2.398438 1.070312 -2.398438 2.398438 v 7.203124 c 0 1.328126 1.070312 2.398438 2.398438 2.398438 h 7.203124 c 1.328126 0 2.398438 -1.070312 2.398438 -2.398438 v -7.203124 c 0 -1.328126 -1.070312 -2.398438 -2.398438 -2.398438 z m 2.582031 3.988281 l 0.015625 0.011719 h 0.003906 v 0.003906 l 1 0.996094 l 1 -0.996094 v -0.003906 h 0.003906 l 0.011719 -0.015625 l 0.015625 0.015625 h 0.96875 v 0.972656 l 0.003906 0.007813 l -0.003906 0.003906 v 0.015625 h -0.015625 l -0.992187 0.988281 l 1.011718 1.007813 l -0.003906 0.003906 v 1 h -1 v -0.027344 l -1 -0.996094 l -1 0.996094 v 0.027344 h -1 v -1 l -0.007812 -0.003906 l 1.015624 -1.007813 l -0.992187 -0.988281 h -0.015625 v -0.015625 l -0.007812 -0.007813 l 0.007812 -0.003906 v -0.972656 h 0.96875 z m 0 0"/>
        <path d="m 12 8 l 3 -3 h 1 v 6 h -1 z m 0 0"/>
    </g>
</svg>
