<?xml version="1.0" encoding="UTF-8"?>
<svg height="16px" viewBox="0 0 16 16" width="16px" xmlns="http://www.w3.org/2000/svg">
    <g fill="#222222">
        <path d="m 6 13 c 0 0.550781 -0.449219 1 -1 1 s -1 -0.449219 -1 -1 s 0.449219 -1 1 -1 s 1 0.449219 1 1 z m 0 0"/>
        <path d="m 9 13 c 0 0.550781 -0.449219 1 -1 1 s -1 -0.449219 -1 -1 s 0.449219 -1 1 -1 s 1 0.449219 1 1 z m 0 0"/>
        <path d="m 12 13 c 0 0.550781 -0.449219 1 -1 1 s -1 -0.449219 -1 -1 s 0.449219 -1 1 -1 s 1 0.449219 1 1 z m 0 0"/>
        <path d="m 5 2 c -1.089844 0 -2 0.910156 -2 2 v 5 c 0 1.089844 0.910156 2 2 2 h 6 c 1.089844 0 2 -0.910156 2 -2 v -5 c 0 -1.089844 -0.910156 -2 -2 -2 z m 0 2 h 6 v 5 h -6 z m 0 0"/>
        <path d="m 2 3 c -1.089844 0 -2 0.910156 -2 2 v 3 c 0 1.089844 0.910156 2 2 2 z m 0 0"/>
        <path d="m 14 3 c 1.089844 0 2 0.910156 2 2 v 3 c 0 1.089844 -0.910156 2 -2 2 z m 0 0"/>
    </g>
</svg>
