<?xml version="1.0" encoding="UTF-8"?>
<svg height="16px" viewBox="0 0 16 16" width="16px" xmlns="http://www.w3.org/2000/svg">
    <g fill="#222222">
        <path d="m 8 1 c -3.84375 0 -7 3.15625 -7 7 s 3.15625 7 7 7 s 7 -3.15625 7 -7 s -3.15625 -7 -7 -7 z m 0 4 c 1.679688 0 3 1.320312 3 3 s -1.320312 3 -3 3 s -3 -1.320312 -3 -3 s 1.320312 -3 3 -3 z m 0 0"/>
        <path d="m 8 6 c -1.097656 0 -2 0.902344 -2 2 s 0.902344 2 2 2 s 2 -0.902344 2 -2 s -0.902344 -2 -2 -2 z m 0 1 c 0.558594 0 1 0.441406 1 1 s -0.441406 1 -1 1 s -1 -0.441406 -1 -1 s 0.441406 -1 1 -1 z m 0 0"/>
    </g>
</svg>
