<?xml version="1.0" encoding="UTF-8"?>
<svg height="16px" viewBox="0 0 16 16" width="16px" xmlns="http://www.w3.org/2000/svg">
    <path d="m 9.5 1 c -0.828125 0 -1.5 0.671875 -1.5 1.5 s 0.671875 1.5 1.5 1.5 s 1.5 -0.671875 1.5 -1.5 s -0.671875 -1.5 -1.5 -1.5 z m -2.632812 2.28125 l -2.921876 4.5625 l 3.054688 1.765625 v 3.421875 h 2 v -4.578125 l -2.242188 -1.292969 l 0.523438 -0.820312 c 0.402344 0.453125 0.847656 0.949218 1.636719 1.183594 c 0.601562 0.179687 1.304687 0.238281 1.933593 0.289062 c 0.628907 0.046875 1.148438 0.0625 1.148438 0.0625 l 0.0625 -2 s -0.480469 -0.015625 -1.058594 -0.058594 c -0.578125 -0.042968 -1.289062 -0.140625 -1.511718 -0.210937 c 0.039062 0.011719 -0.488282 -0.339844 -0.832032 -0.726563 c -0.140625 -0.15625 -0.144531 -0.175781 -0.246094 -0.304687 l 0.136719 -0.214844 z m -3.867188 5.71875 c -1.652344 0 -3 1.347656 -3 3 s 1.347656 3 3 3 s 3 -1.347656 3 -3 s -1.347656 -3 -3 -3 z m 10 0 c -1.652344 0 -3 1.347656 -3 3 s 1.347656 3 3 3 s 3 -1.347656 3 -3 s -1.347656 -3 -3 -3 z m -10 1 c 1.109375 0 2 0.890625 2 2 s -0.890625 2 -2 2 s -2 -0.890625 -2 -2 s 0.890625 -2 2 -2 z m 10 0 c 1.109375 0 2 0.890625 2 2 s -0.890625 2 -2 2 s -2 -0.890625 -2 -2 s 0.890625 -2 2 -2 z m 0 0" fill="#222222"/>
</svg>
