<?xml version="1.0" encoding="UTF-8"?>
<svg height="16px" viewBox="0 0 16 16" width="16px" xmlns="http://www.w3.org/2000/svg">
    <g fill="#222222">
        <path d="m 5 5 c -0.574219 0 -2 1 -2 5 c 0 0.5 0.488281 1 1 1 h 2 v 1.980469 l -1.5625 1.695312 l 1.449219 1.332031 l 2.144531 -2.269531 v -2.058593 l 2.027344 3.964843 l 1.722656 -0.875 l -2.78125 -5.507812 v -1.691407 l 2.269531 2.023438 c 0.367188 0.386719 1.070313 0.367188 1.421875 -0.03125 c 0.351563 -0.402344 0.277344 -1.101562 -0.152344 -1.417969 l -3.539062 -3.144531 z m 0 0"/>
        <path d="m 10.054688 1.980469 c 0 1.066406 -0.867188 1.933593 -1.9375 1.933593 c -1.066407 0 -1.933594 -0.867187 -1.933594 -1.933593 c 0 -1.070313 0.867187 -1.9375002 1.933594 -1.9375002 c 1.070312 0 1.9375 0.8671872 1.9375 1.9375002 z m 0 0"/>
    </g>
</svg>
