<?xml version="1.0" encoding="UTF-8"?>
<svg height="16px" viewBox="0 0 16 16" width="16px" xmlns="http://www.w3.org/2000/svg">
    <path d="m 8 14 c -2.203125 0 -4 -1.796875 -4 -4 s 1.796875 -4 4 -4 s 4 1.796875 4 4 s -1.796875 4 -4 4 z m 0 -10 c -3.320312 0 -6 2.679688 -6 6 s 2.679688 6 6 6 s 6 -2.679688 6 -6 s -2.679688 -6 -6 -6 z m 0 0"/>
    <path d="m 5.257812 7.039062 l 2.222657 3.292969 c 0.15625 0.226563 0.464843 0.289063 0.695312 0.132813 c 0.230469 -0.152344 0.289063 -0.464844 0.132813 -0.695313 l -2.222656 -3.292969 c -0.15625 -0.226562 -0.464844 -0.289062 -0.695313 -0.132812 c -0.226563 0.15625 -0.289063 0.464844 -0.132813 0.695312 z m 0 0"/>
    <path d="m 2 4.984375 c 0 0.542969 -0.441406 0.984375 -0.984375 0.984375 s -0.984375 -0.441406 -0.984375 -0.984375 s 0.441406 -0.984375 0.984375 -0.984375 s 0.984375 0.441406 0.984375 0.984375 z m 0 0"/>
    <path d="m 6 1.015625 c 0 0.542969 -0.441406 0.984375 -0.984375 0.984375 s -0.984375 -0.441406 -0.984375 -0.984375 s 0.441406 -0.984375 0.984375 -0.984375 s 0.984375 0.441406 0.984375 0.984375 z m 0 0"/>
    <path d="m 12 1.015625 c 0 0.542969 -0.441406 0.984375 -0.984375 0.984375 s -0.984375 -0.441406 -0.984375 -0.984375 s 0.441406 -0.984375 0.984375 -0.984375 s 0.984375 0.441406 0.984375 0.984375 z m 0 0"/>
    <path d="m 16 4.984375 c 0 0.542969 -0.441406 0.984375 -0.984375 0.984375 s -0.984375 -0.441406 -0.984375 -0.984375 s 0.441406 -0.984375 0.984375 -0.984375 s 0.984375 0.441406 0.984375 0.984375 z m 0 0"/>
</svg>
