<?xml version="1.0" encoding="UTF-8"?>
<svg height="16px" viewBox="0 0 16 16" width="16px" xmlns="http://www.w3.org/2000/svg">
    <g fill="#222222">
        <path d="m 9.5 10 c -1.382812 0 -2.5 1.121094 -2.5 2.5 c 0 0.21875 0.039062 0.421875 0.09375 0.625 c -0.179688 -0.074219 -0.386719 -0.125 -0.59375 -0.125 c -0.828125 0 -1.5 0.671875 -1.5 1.5 s 0.671875 1.5 1.5 1.5 h 8 c 0.828125 0 1.5 -0.671875 1.5 -1.5 s -0.671875 -1.5 -1.5 -1.5 c 0 -1.105469 -0.894531 -2 -2 -2 c -0.316406 0 -0.609375 0.089844 -0.875 0.21875 c -0.4375 -0.726562 -1.214844 -1.21875 -2.125 -1.21875 z m 0 0"/>
        <path d="m 6.820312 1.109375 c -3.296874 0.5625 -5.820312 3.4375 -5.820312 6.890625 c 0 2.328125 1.152344 4.394531 2.914062 5.667969 c 0.3125 -0.8125 1.0625 -1.394531 1.941407 -1.636719 c 0.140625 -1.046875 0.707031 -1.960938 1.515625 -2.558594 c -0.867188 -1.355468 -1.371094 -2.960937 -1.371094 -4.6875 c 0 -1.3125 0.296875 -2.554687 0.820312 -3.675781 z m 0 0"/>
        <path d="m 8 1 c -0.402344 0 -0.796875 0.042969 -1.179688 0.109375 c -0.523437 1.121094 -0.820312 2.363281 -0.820312 3.675781 c 0 1.726563 0.503906 3.332032 1.371094 4.6875 c 0.597656 -0.441406 1.328125 -0.710937 2.128906 -0.710937 c 0.996094 0 1.820312 0.484375 2.484375 1.125 c 0.179687 -0.035157 0.316406 -0.125 0.515625 -0.125 c 0.773438 0 1.472656 0.285156 2.019531 0.753906 c 0.304688 -0.78125 0.480469 -1.628906 0.480469 -2.515625 c 0 -3.855469 -3.144531 -7 -7 -7 z m 0 0" fill-opacity="0.34902"/>
    </g>
</svg>
