<?xml version="1.0" encoding="UTF-8"?>
<svg height="16px" viewBox="0 0 16 16" width="16px" xmlns="http://www.w3.org/2000/svg">
    <g fill="#222222">
        <path d="m 9.5 10 c -1.382812 0 -2.5 1.121094 -2.5 2.5 c 0 0.21875 0.039062 0.421875 0.09375 0.625 c -0.179688 -0.074219 -0.386719 -0.125 -0.59375 -0.125 c -0.828125 0 -1.5 0.671875 -1.5 1.5 s 0.671875 1.5 1.5 1.5 h 8 c 0.828125 0 1.5 -0.671875 1.5 -1.5 s -0.671875 -1.5 -1.5 -1.5 c 0 -1.105469 -0.894531 -2 -2 -2 c -0.316406 0 -0.609375 0.089844 -0.875 0.21875 c -0.4375 -0.726562 -1.214844 -1.21875 -2.125 -1.21875 z m 0 0"/>
        <path d="m 6.988281 4.007812 c -2.195312 0 -4 1.804688 -4 4 c 0 1.894532 1.347657 3.492188 3.128907 3.894532 c 0 -0.003906 0 -0.007813 0.003906 -0.011719 c 0.476562 -2.085937 2.136718 -3.003906 4.042968 -2.808594 c 0.191407 0.046875 0.371094 0.117188 0.546876 0.195313 c 0.015624 0.003906 0.03125 0.007812 0.042968 0.015625 c 0.140625 -0.40625 0.234375 -0.835938 0.234375 -1.289063 c 0 -2.191406 -1.804687 -4 -4 -4 z m 0 0"/>
        <path d="m 0 7.5 c 0 -0.277344 0.222656 -0.5 0.5 -0.5 h 1 c 0.277344 0 0.5 0.222656 0.5 0.5 v 1 c 0 0.277344 -0.222656 0.5 -0.5 0.5 h -1 c -0.277344 0 -0.5 -0.222656 -0.5 -0.5 z m 12 0 c 0 -0.277344 0.222656 -0.5 0.5 -0.5 h 1 c 0.277344 0 0.5 0.222656 0.5 0.5 v 1 c 0 0.277344 -0.222656 0.5 -0.5 0.5 h -1 c -0.277344 0 -0.5 -0.222656 -0.5 -0.5 z m 0 0"/>
        <path d="m 1.695312 12.597656 c -0.195312 -0.199218 -0.195312 -0.511718 0 -0.707031 l 0.707032 -0.707031 c 0.199218 -0.199219 0.511718 -0.199219 0.707031 0 l 0.707031 0.707031 c 0.199219 0.195313 0.199219 0.507813 0 0.707031 l -0.707031 0.707032 c -0.195313 0.195312 -0.507813 0.195312 -0.707031 0 z m 8.488282 -8.488281 c -0.199219 -0.195313 -0.199219 -0.507813 0 -0.707031 l 0.707031 -0.707032 c 0.195313 -0.195312 0.507813 -0.195312 0.707031 0 l 0.707032 0.707032 c 0.195312 0.199218 0.195312 0.511718 0 0.707031 l -0.707032 0.707031 c -0.199218 0.199219 -0.511718 0.199219 -0.707031 0 z m 0 0"/>
        <path d="m 6.5 3 c -0.277344 0 -0.5 -0.222656 -0.5 -0.5 v -1 c 0 -0.277344 0.222656 -0.5 0.5 -0.5 h 1 c 0.277344 0 0.5 0.222656 0.5 0.5 v 1 c 0 0.277344 -0.222656 0.5 -0.5 0.5 z m 0 0"/>
        <path d="m 3.109375 4.816406 c -0.195313 0.199219 -0.507813 0.199219 -0.707031 0 l -0.707032 -0.707031 c -0.195312 -0.195313 -0.195312 -0.507813 0 -0.707031 l 0.707032 -0.707032 c 0.199218 -0.195312 0.511718 -0.195312 0.707031 0 l 0.707031 0.707032 c 0.199219 0.199218 0.199219 0.511718 0 0.707031 z m 0 0"/>
    </g>
</svg>
