<?xml version="1.0" encoding="UTF-8"?>
<svg height="16px" viewBox="0 0 16 16" width="16px" xmlns="http://www.w3.org/2000/svg">
    <g fill="#222222">
        <path d="m 4.019531 14 h -2 l -0.019531 -12 h 2 z m 0 0"/>
        <path d="m 11.710938 12.296875 l -1.414063 1.414063 l -5.707031 -5.707032 l 5.707031 -5.707031 l 1.414063 1.414063 l -4.296876 4.292968 z m 0 0"/>
        <path d="m 11.003906 13.003906 h 1 v 1 h -1 z m 0 -11 h 1 v 1 h -1 z m 0 0"/>
        <path d="m 11.003906 2.003906 c 0.550782 0 1 0.445313 1 1 c 0 0.550782 -0.449218 1 -1 1 c -0.554687 0 -1 -0.449218 -1 -1 c 0 -0.554687 0.445313 -1 1 -1 z m 0 10 c 0.550782 0 1 0.445313 1 1 c 0 0.550782 -0.449218 1 -1 1 c -0.554687 0 -1 -0.449218 -1 -1 c 0 -0.554687 0.445313 -1 1 -1 z m 0 0"/>
    </g>
</svg>
