<?xml version="1.0" encoding="UTF-8"?>
<svg height="16px" viewBox="0 0 16 16" width="16px" xmlns="http://www.w3.org/2000/svg">
    <path d="m 7.96875 0 c -3.304688 0 -6.023438 3.007812 -5.96875 5.71875 c 0.027344 1.351562 0.21875 2.421875 0.4375 3.257812 c 0.015625 0.089844 0.035156 0.183594 0.0625 0.28125 l 0.425781 1.339844 c 0.3125 0.984375 1.242188 1.585938 2.078125 1.351563 c 0.839844 -0.234375 1.265625 -1.214844 0.953125 -2.199219 l -0.425781 -1.339844 c -0.304688 -0.953125 -1.183594 -1.542968 -2.003906 -1.363281 c -0.046875 -0.683594 -0.050782 -1.203125 -0.050782 -1.203125 c 0 -2.371094 2.007813 -4.3125 4.492188 -4.3125 s 4.5 1.921875 4.492188 4.375 c -0.007813 0.425781 -0.019532 0.78125 -0.050782 1.121094 c -0.785156 -0.101563 -1.601562 0.472656 -1.886718 1.382812 l -0.425782 1.339844 c -0.3125 0.984375 0.109375 1.964844 0.949219 2.199219 s 1.765625 -0.367188 2.078125 -1.351563 l 0.003906 -0.007812 l 0.867188 0.320312 l -0.015625 1.746094 c -0.003907 0.53125 -0.144531 0.859375 -0.320313 1.050781 c -0.179687 0.195313 -0.40625 0.292969 -0.722656 0.292969 h -2.925781 c 0 -0.554688 -0.441407 -1 -0.992188 -1 h -0.015625 c -0.550781 0 -0.992187 0.445312 -0.992187 1 c 0 0.488281 0.351562 0.875 0.808593 0.960938 c 0.058594 0.027343 0.121094 0.039062 0.183594 0.039062 h 0.011719 h 3.921875 c 0.546875 0 1.085938 -0.203125 1.460938 -0.621094 c 0.378906 -0.414062 0.574218 -1.003906 0.582031 -1.714844 l 0.023437 -2.449218 l -1.574218 -0.582032 l 0.121093 -0.378906 c 0.007813 -0.027344 0.011719 -0.050781 0.019531 -0.078125 c 0.226563 -0.800781 0.429688 -1.882812 0.429688 -3.363281 c 0 -2.828125 -2.726562 -5.8125 -6.03125 -5.8125 z m 0 0" fill="#222222"/>
</svg>
