<?xml version="1.0" encoding="UTF-8"?>
<svg height="16px" viewBox="0 0 16 16" width="16px" xmlns="http://www.w3.org/2000/svg">
    <path d="m 8.21875 1 c -3.304688 0 -6.023438 3.007812 -5.96875 5.71875 c 0.046875 2.367188 0.808594 4.695312 1 5.28125 h 0.003906 l 0.488282 1.613281 c 0.300781 0.988281 1.304687 1.558594 2.253906 1.28125 c 0.945312 -0.273437 1.46875 -1.292969 1.171875 -2.28125 l -0.675781 -2.226562 c -0.300782 -0.984375 -1.304688 -1.558594 -2.253907 -1.28125 c -0.113281 0.03125 -0.222656 0.078125 -0.320312 0.132812 c -0.226563 -1.339843 -0.191407 -2.394531 -0.191407 -2.394531 c 0 -2.371094 2.007813 -4.3125 4.492188 -4.3125 s 4.5 1.828125 4.492188 4.28125 c -0.011719 0.882812 -0.066407 1.585938 -0.230469 2.414062 c -0.074219 -0.03125 -0.140625 -0.066406 -0.214844 -0.089843 c -0.949219 -0.273438 -1.957031 0.296875 -2.253906 1.28125 l -0.675781 2.226562 c -0.300782 0.988281 0.222656 2.007813 1.171874 2.285157 c 0.945313 0.277343 1.953126 -0.292969 2.253907 -1.28125 l 0.496093 -1.648438 h 0.019532 c 0.222656 -0.644531 0.972656 -3.191406 0.972656 -5.28125 c 0 -2.828125 -2.726562 -5.71875 -6.03125 -5.71875 z m 0 0" fill="#222222"/>
</svg>
