<?xml version="1.0" encoding="UTF-8"?>
<svg height="16px" viewBox="0 0 16 16" width="16px" xmlns="http://www.w3.org/2000/svg">
    <path d="m 10 1 v 1 c 0 0.257812 0.128906 0.527344 0.3125 0.71875 l 1.28125 1.28125 h -4.59375 c -0.527344 -0.007812 -1 0.472656 -1 1 s 0.472656 1.007812 1 1 h 4.625 l -1.21875 1.28125 c -0.183594 0.191406 -0.40625 0.460938 -0.40625 0.71875 v 0.425781 c 0.621094 -0.378906 1.910156 -0.507812 2.480469 -0.394531 l 2.925781 -3.03125 l -3.65625 -3.71875 c -0.199219 -0.191406 -0.441406 -0.28125 -0.75 -0.28125 z m -5 6 c -0.308594 0 -0.613281 0.089844 -0.8125 0.28125 l -3.59375 3.71875 l 3.65625 3.71875 c 0.199219 0.191406 0.441406 0.28125 0.75 0.28125 h 1 v -1 c 0 -0.257812 -0.128906 -0.527344 -0.3125 -0.71875 l -1.28125 -1.28125 h 3.625 c 0.023438 -0.277344 0.113281 -1 0.722656 -2 h -4.378906 l 1.21875 -1.28125 c 0.183594 -0.191406 0.40625 -0.460938 0.40625 -0.71875 v -1 z m 0 0" fill="#222222" fill-opacity="0.34902"/>
    <path d="m 12.5 9 c -1.933594 0 -3.5 1.566406 -3.5 3.5 s 1.566406 3.5 3.5 3.5 s 3.5 -1.566406 3.5 -3.5 s -1.566406 -3.5 -3.5 -3.5 z m -2.5 2.96875 h 5 v 1.03125 h -5 z m 0 0" fill="#e01b24"/>
</svg>
