<?xml version="1.0" encoding="UTF-8"?>
<svg height="16px" viewBox="0 0 16 16" width="16px" xmlns="http://www.w3.org/2000/svg">
    <g fill="#222222">
        <path d="m 1.03125 1.03125 v 13.96875 h 13.96875 v -13.96875 z m 2 2 h 9.96875 v 9.96875 h -9.96875 z m 0 0"/>
        <path d="m 9.546875 7.816406 l -2.425781 2.390625 l -1.605469 -1.699219 l -3.257813 3.257813 l 0.707032 0.707031 l 2.53125 -2.53125 l 3.882812 4.101563 l 0.726563 -0.6875 l -2.296875 -2.421875 l 1.738281 -1.714844 l 3.597656 3.652344 l 0.699219 -0.714844 z m 0 0"/>
        <path d="m 6.988281 5.996094 c 0 0.550781 -0.449219 1 -1 1 c -0.554687 0 -1 -0.449219 -1 -1 c 0 -0.554688 0.445313 -1 1 -1 c 0.550781 0 1 0.445312 1 1 z m 0 0"/>
    </g>
</svg>
