<?xml version="1.0" encoding="UTF-8"?>
<svg height="16px" viewBox="0 0 16 16" width="16px" xmlns="http://www.w3.org/2000/svg">
    <g fill="#2e3436">
        <path d="m 4.015625 1.03125 c -1.644531 0 -3 1.355469 -3 3 v 8 c 0 1.644531 1.355469 3 3 3 h 8 c 1.644531 0 3 -1.355469 3 -3 v -8 c 0 -1.644531 -1.355469 -3 -3 -3 z m 4 1 c 0.972656 0 1.914063 0.355469 2.644531 1 h 1.355469 c 0.570313 0 1 0.429688 1 1 v 8 c 0 0.570312 -0.429687 1 -1 1 h -2.269531 c -0.34375 0.597656 -0.988282 1 -1.730469 1 s -1.386719 -0.402344 -1.734375 -1 h -2.265625 c -0.570313 0 -1 -0.429688 -1 -1 v -8 c 0 -0.570312 0.429687 -1 1 -1 h 1.371094 c 0.726562 -0.640625 1.660156 -0.996094 2.628906 -1 z m 2.554687 7.054688 c -0.171874 0.148437 -0.359374 0.28125 -0.554687 0.398437 v 2.546875 h 1.5 s 0.472656 -0.035156 0.5 -0.5 v -1 z m -4.824218 0.214843 l -1.730469 1.730469 v 0.5 c 0 0.5 0.5 0.5 0.5 0.5 h 1.5 v -2.546875 c -0.09375 -0.058594 -0.183594 -0.117187 -0.269531 -0.183594 z m 0 0" fill-opacity="0.35"/>
        <path d="m 8.171875 3.035156 c -0.4375 -0.023437 -0.882813 0.050782 -1.300781 0.222656 c -1.117188 0.464844 -1.851563 1.5625 -1.851563 2.773438 h 2 c 0 -0.410156 0.242188 -0.769531 0.617188 -0.925781 s 0.800781 -0.070313 1.089843 0.21875 c 0.289063 0.285156 0.375 0.710937 0.21875 1.089843 c -0.15625 0.375 -0.519531 0.617188 -0.925781 0.617188 c -0.550781 0 -1 0.445312 -1 1 v 2 h 2 v -1.179688 c 0.785157 -0.28125 1.441407 -0.875 1.773438 -1.671874 c 0.460937 -1.121094 0.203125 -2.414063 -0.652344 -3.269532 c -0.535156 -0.535156 -1.242187 -0.835937 -1.96875 -0.875 z m -0.152344 7.996094 c -0.550781 0 -1 0.445312 -1 1 c 0 0.550781 0.449219 1 1 1 c 0.554688 0 1 -0.449219 1 -1 c 0 -0.554688 -0.445312 -1 -1 -1 z m 0 0"/>
    </g>
</svg>
