<?xml version="1.0" encoding="UTF-8"?>
<svg height="16px" viewBox="0 0 16 16" width="16px" xmlns="http://www.w3.org/2000/svg">
    <g fill="#222222">
        <path d="m 3 1 c -0.550781 0 -1 0.449219 -1 1 v 13 c 0 0.550781 0.449219 1 1 1 h 10 c 0.550781 0 1 -0.449219 1 -1 v -9.5 c 0 -0.265625 -0.105469 -0.519531 -0.292969 -0.707031 l -3.5 -3.5 c -0.1875 -0.1875 -0.441406 -0.292969 -0.707031 -0.292969 z m 1 2 h 5.085938 l 2.914062 2.914062 v 8.085938 h -8 z m 0 0"/>
        <path d="m 9 2 v 4 h 4 z m 0 0"/>
        <path d="m 9.523438 8.808594 l -2.421876 2.390625 l -1.605468 -1.699219 l -3.144532 3.144531 l 0.703126 0.710938 l 2.421874 -2.421875 l 3.878907 4.101562 l 0.726562 -0.6875 l -2.292969 -2.421875 l 1.738282 -1.71875 l 2.6875 2.628907 l 0.699218 -0.710938 z m 0 0"/>
        <path d="m 6.96875 6.984375 c 0 0.554687 -0.449219 1 -1 1 c -0.554688 0 -1 -0.445313 -1 -1 c 0 -0.550781 0.445312 -1 1 -1 c 0.550781 0 1 0.449219 1 1 z m 0 0"/>
    </g>
</svg>
