<?xml version="1.0" encoding="UTF-8"?>
<svg height="16px" viewBox="0 0 16 16" width="16px" xmlns="http://www.w3.org/2000/svg">
    <path d="m 7.894531 0 c -4.378906 0 -7.894531 3.625 -7.894531 8 c 0 4.417969 3.582031 8 8 8 s 8 -3.582031 8 -8 s -3.582031 -8 -8 -8 c -0.035156 0 -0.070312 0 -0.105469 0 z m -0.394531 4 h 1 c 0.277344 0 0.5 0.222656 0.5 0.5 v 1 c 0 0.277344 -0.222656 0.5 -0.5 0.5 h -1 c -0.277344 0 -0.5 -0.222656 -0.5 -0.5 v -1 c 0 -0.277344 0.222656 -0.5 0.5 -0.5 z m -0.5 3 h 2 v 5 h -2 z m 0 0" fill="#222222"/>
</svg>
