<?xml version="1.0" encoding="UTF-8"?>
<svg height="16px" viewBox="0 0 16 16" width="16px" xmlns="http://www.w3.org/2000/svg">
    <path d="m 2 3 v 11 h 11 v -2 h -9 v -9 z m 0 0"/>
    <path d="m 3 -0.0234375 l -3 3.9999995 h 6 z m 0 0"/>
    <path d="m 16 12.976562 l -4 3 v -6 z m 0 0"/>
    <path d="m 5 6.839844 v 6.160156 h 4 l 0.09375 -2.511719 l -1.09375 -0.648437 l -1 -3 z m 0 0" fill-opacity="0.329412"/>
    <path d="m 3.398438 9.300781 l 1.460937 -1.941406 c 0.453125 -0.609375 1.390625 -0.492187 1.6875 0.203125 l 1.0625 2.496094 c 0.53125 1.25 2.28125 1.347656 2.949219 0.167968 l 3.375 -5.976562 l -0.867188 -0.492188 l -3.378906 5.976563 c -0.269531 0.472656 -0.945312 0.433594 -1.15625 -0.066406 l -1.066406 -2.496094 c -0.59375 -1.402344 -2.492188 -1.632813 -3.40625 -0.414063 l -1.457032 1.945313 z m 0 0"/>
</svg>
