<?xml version="1.0" encoding="UTF-8"?>
<svg height="16px" viewBox="0 0 16 16" width="16px" xmlns="http://www.w3.org/2000/svg">
    <g fill="#222222">
        <path d="m 5 0 c -1.089844 0 -2 0.910156 -2 2 v 9 c 0 1.089844 0.910156 2 2 2 h 9 c 1.089844 0 2 -0.910156 2 -2 v -9 c 0 -1.089844 -0.910156 -2 -2 -2 z m 4.5 2 c 1.105469 0 2 0.894531 2 2 s -0.894531 2 -2 2 s -2 -0.894531 -2 -2 s 0.894531 -2 2 -2 z m -0.5 5 h 1 c 1.660156 0 3 1.339844 3 3 v 0.332031 c 0 0.667969 -0.667969 0.667969 -0.667969 0.667969 h -5.664062 s -0.667969 0 -0.667969 -0.667969 v -0.332031 c 0 -1.660156 1.339844 -3 3 -3 z m 0 0"/>
        <path d="m 2 3 c -1.089844 0 -2 0.910156 -2 2 v 9 c 0 1.089844 0.910156 2 2 2 h 9 c 1.089844 0 2 -0.910156 2 -2 h -11 z m 0 0"/>
    </g>
</svg>
