<?xml version="1.0" encoding="UTF-8"?>
<svg height="16px" viewBox="0 0 16 16" width="16px" xmlns="http://www.w3.org/2000/svg">
    <g fill="#222222">
        <path d="m 6 3 h 8 v 2 h -8 z m 0 0"/>
        <path d="m 2.382812 3 h 1.234376 c 0.210937 0 0.382812 0.167969 0.382812 0.378906 v 1.242188 c 0 0.210937 -0.171875 0.378906 -0.382812 0.378906 h -1.234376 c -0.210937 0 -0.382812 -0.167969 -0.382812 -0.378906 v -1.242188 c 0 -0.210937 0.171875 -0.378906 0.382812 -0.378906 z m 0 0"/>
        <path d="m 6 7 h 8 v 2 h -8 z m 0 0"/>
        <path d="m 2.382812 7 h 1.234376 c 0.210937 0 0.382812 0.167969 0.382812 0.378906 v 1.242188 c 0 0.210937 -0.171875 0.378906 -0.382812 0.378906 h -1.234376 c -0.210937 0 -0.382812 -0.167969 -0.382812 -0.378906 v -1.242188 c 0 -0.210937 0.171875 -0.378906 0.382812 -0.378906 z m 0 0"/>
        <path d="m 6 11 h 8 v 2 h -8 z m 0 0"/>
        <path d="m 2.382812 11 h 1.234376 c 0.210937 0 0.382812 0.167969 0.382812 0.378906 v 1.242188 c 0 0.210937 -0.171875 0.378906 -0.382812 0.378906 h -1.234376 c -0.210937 0 -0.382812 -0.167969 -0.382812 -0.378906 v -1.242188 c 0 -0.210937 0.171875 -0.378906 0.382812 -0.378906 z m 0 0"/>
    </g>
</svg>
