<?xml version="1.0" encoding="UTF-8"?>
<svg height="16px" viewBox="0 0 16 16" width="16px" xmlns="http://www.w3.org/2000/svg">
    <g fill="#222222">
        <path d="m 9.65625 5.636719 l -2.761719 1.433593 l -0.445312 3.203126 l -2.148438 -2.316407 l -3.035156 0.546875 l 1.433594 -2.867187 l -1.433594 -2.867188 l 3.035156 0.550781 l 2.148438 -2.320312 l 0.445312 3.203125 z m 0 0"/>
        <path d="m 8.960938 7.960938 c -0.40625 0 -0.773438 0.246093 -0.925782 0.625 c -0.152344 0.375 -0.0625 0.808593 0.230469 1.09375 l 5.984375 5.984374 c 0.25 0.261719 0.621094 0.367188 0.972656 0.273438 c 0.351563 -0.089844 0.625 -0.363281 0.714844 -0.714844 c 0.089844 -0.351562 -0.011719 -0.722656 -0.273438 -0.972656 l -5.984374 -5.984375 c -0.1875 -0.195313 -0.449219 -0.304687 -0.71875 -0.304687 z m 0 0"/>
    </g>
</svg>
