<?xml version="1.0" encoding="UTF-8"?>
<svg height="16px" viewBox="0 0 16 16" width="16px" xmlns="http://www.w3.org/2000/svg">
    <g fill="#222222">
        <path d="m 0 6 v 7.976562 c 0 1.199219 0.980469 2 2.1875 2 h 11.625 c 1.207031 0 2.1875 -1.019531 2.1875 -2.21875 v -7.757812 s 0 -1 -1 -1 s -1 1 -1 1 v 8 h -12 v -8 s 0.070312 -1.070312 -1 -1 c -1 0 -1 1 -1 1 z m 0 0"/>
        <path d="m 7.714844 0.125 l -7 4.835938 l 0.570312 0.828124 l 6.714844 -4.644531 l 6.714844 4.644531 l 0.570312 -0.828124 l -7 -4.835938 c -0.171875 -0.12109375 -0.398437 -0.12109375 -0.570312 0 z m 0 0"/>
        <path d="m 1.300781 4.976562 l -0.601562 0.796876 l 7 5.25 c 0.179687 0.136718 0.421875 0.136718 0.601562 0 l 7 -5.25 l -0.601562 -0.796876 l -6.699219 5.023438 z m 0 0"/>
    </g>
</svg>
