<?xml version="1.0" encoding="UTF-8"?>
<svg height="16px" viewBox="0 0 16 16" width="16px" xmlns="http://www.w3.org/2000/svg">
    <g fill="#222222">
        <path d="m 8 0 c -3.3125 0 -5.996094 2.6875 -5.996094 6 s 2.683594 5.996094 5.996094 5.996094 s 5.996094 -2.683594 5.996094 -5.996094 s -2.683594 -6 -5.996094 -6 z m 0 4 c 1.105469 0 2 0.894531 2 2 c 0 1.101562 -0.894531 2 -2 2 s -2 -0.898438 -2 -2 c 0 -1.105469 0.894531 -2 2 -2 z m 0 0"/>
        <path d="m 8 16 c -2 -2 -5 -5.515625 -5.761719 -8.335938 l 5.761719 1.335938 z m 0 0"/>
        <path d="m 8 16 c 2 -2.003906 5 -5.515625 5.761719 -8.335938 l -5.761719 1.332032 z m 0 0"/>
    </g>
</svg>
