<?xml version="1.0" encoding="UTF-8"?>
<svg height="16px" viewBox="0 0 16 16" width="16px" xmlns="http://www.w3.org/2000/svg">
    <g fill="#222222">
        <path d="m 16 1 l -6 6 l 0.035156 4 l -1.066406 1.058594 v 2.941406 h 3.019531 l 1.011719 -1.023438 l 3 0.023438 z m 0 0"/>
        <path d="m 8 15 v -3 h -3 v 3 z m 0 0"/>
        <path d="m 4 13 v -1 h -1 v 1 z m 0 0"/>
        <path d="m 3 14 v -1 h -1 v 1 z m 0 0"/>
        <path d="m 4 15 v -1 h -1 v 1 z m 0 0"/>
        <path d="m 2 15 v -1 h -1 v 1 z m 0 0"/>
        <path d="m 5 14 v -1 h -1 v 1 z m 0 0"/>
    </g>
</svg>
