<?xml version="1.0" encoding="UTF-8"?>
<svg height="16px" viewBox="0 0 16 16" width="16px" xmlns="http://www.w3.org/2000/svg">
    <g fill="#222222">
        <path d="m 9 0 l -4 3 l 4 3 z m 0 0"/>
        <path d="m 5 13 c 0 1.105469 -0.894531 2 -2 2 s -2 -0.894531 -2 -2 s 0.894531 -2 2 -2 s 2 0.894531 2 2 z m 0 0"/>
        <path d="m 5 3 c 0 1.105469 -0.894531 2 -2 2 s -2 -0.894531 -2 -2 s 0.894531 -2 2 -2 s 2 0.894531 2 2 z m 0 0"/>
        <path d="m 2 3 v 10 h 2 v -10 z m 0 0"/>
        <path d="m 9 2 v 2 h 2 c 0.167969 0 0.449219 0.113281 0.667969 0.332031 s 0.332031 0.5 0.332031 0.667969 v 7 h 2 v -7 c 0 -0.832031 -0.386719 -1.550781 -0.917969 -2.082031 s -1.25 -0.917969 -2.082031 -0.917969 z m 0 0"/>
        <path d="m 15 13 c 0 1.105469 -0.894531 2 -2 2 s -2 -0.894531 -2 -2 s 0.894531 -2 2 -2 s 2 0.894531 2 2 z m 0 0"/>
    </g>
</svg>
