<?xml version="1.0" encoding="UTF-8"?>
<svg height="16px" viewBox="0 0 16 16" width="16px" xmlns="http://www.w3.org/2000/svg">
    <path d="m 4 0.988281 c -1.105469 0 -2 0.894531 -2 2 c 0 0.710938 0.382812 1.371094 1 1.726563 v 6.546875 c -0.617188 0.355469 -0.996094 1.011719 -1 1.726562 c 0 1.101563 0.894531 2 2 2 s 2 -0.898437 2 -2 c -0.003906 -0.714843 -0.382812 -1.371093 -1 -1.726562 v -2.476563 c 0.546875 0.179688 0.984375 0.171875 0.992188 0.171875 l 5 0.03125 h 0.007812 c 0.167969 0 0.449219 0.113281 0.667969 0.332031 c 0.21875 0.214844 0.332031 0.5 0.332031 0.667969 v 1.273438 c -0.617188 0.355469 -0.996094 1.011719 -1 1.726562 c 0 1.101563 0.894531 2 2 2 s 2 -0.898437 2 -2 c -0.003906 -0.714843 -0.382812 -1.371093 -1 -1.726562 v -1.273438 c 0 -0.835937 -0.386719 -1.550781 -0.917969 -2.082031 c -0.53125 -0.535156 -1.25 -0.917969 -2.082031 -0.917969 l -4.992188 -0.027343 h -0.007812 s -0.292969 -0.015626 -0.550781 -0.144532 c -0.261719 -0.128906 -0.449219 -0.191406 -0.449219 -0.859375 v -1.238281 c 0.617188 -0.355469 1 -1.019531 1 -1.730469 c 0 -1.105469 -0.894531 -2 -2 -2 z m 0 1.011719 c 0.550781 0 1 0.449219 1 1 s -0.449219 1 -1 1 s -1 -0.449219 -1 -1 s 0.449219 -1 1 -1 z m 0 0"/>
</svg>
