<?xml version="1.0" encoding="UTF-8"?>
<svg height="16px" viewBox="0 0 16 16" width="16px" xmlns="http://www.w3.org/2000/svg">
    <g fill="#222222">
        <path d="m 11.105469 10 c -0.78125 0.648438 -1.679688 1.519531 -3.066407 2.011719 l -7.039062 -0.011719 v 3 h 14 v -3 l -2 -2 z m -0.605469 1.796875 c 0.390625 0 0.703125 0.3125 0.703125 0.703125 s -0.3125 0.703125 -0.703125 0.703125 s -0.703125 -0.3125 -0.703125 -0.703125 s 0.3125 -0.703125 0.703125 -0.703125 z m 2 0.023437 c 0.375 0 0.679688 0.304688 0.679688 0.679688 s -0.304688 0.679688 -0.679688 0.679688 s -0.679688 -0.304688 -0.679688 -0.679688 s 0.304688 -0.679688 0.679688 -0.679688 z m 0 0"/>
        <path d="m 11.445312 3.054688 c 0.328126 0 0.597657 0.261718 0.597657 0.59375 v 0.039062 c -0.011719 4.0625 -3.308594 7.351562 -7.371094 7.351562 h -0.019531 c -0.335938 0 -0.59375 -0.273437 -0.59375 -0.613281 v -1.84375 c 0 -0.339843 0.273437 -0.613281 0.613281 -0.613281 h 1.226563 c 0.34375 0 0.617187 0.273438 0.617187 0.613281 v 0.289063 c 1.570313 -0.554688 2.800781 -1.789063 3.355469 -3.359375 h -0.285156 c -0.339844 0 -0.613282 -0.273438 -0.613282 -0.613281 v -1.230469 c 0 -0.339844 0.273438 -0.613281 0.613282 -0.613281 z m 0 0"/>
    </g>
</svg>
