<?xml version="1.0" encoding="UTF-8"?>
<svg height="16px" viewBox="0 0 16 16" width="16px" xmlns="http://www.w3.org/2000/svg">
    <g fill="#222222">
        <path d="m 7.992188 1 c -3.851563 0 -7 3.144531 -7 7 s 3.148437 7 7 7 c 3.855468 0 7 -3.144531 7 -7 s -3.144532 -7 -7 -7 z m 0 1.992188 c 2.773437 0 5.007812 2.234374 5.007812 5.007812 s -2.234375 5.007812 -5.007812 5.007812 c -2.773438 0 -5.003907 -2.234374 -5.003907 -5.007812 s 2.230469 -5.007812 5.003907 -5.007812 z m 0 0"/>
        <path d="m 8.007812 4 c -1.117187 0 -2.121093 0.457031 -2.847656 1.1875 c 0 0.082031 0.015625 0.164062 0.0625 0.242188 c 0.097656 0.167968 0.191406 0.332031 0.320313 0.464843 c 0.097656 -0.300781 0.40625 -0.519531 0.777343 -0.519531 c 0.3125 0 0.578126 0.15625 0.714844 0.382812 c 0.265625 -0.277343 0.515625 -0.605468 1.058594 -0.632812 c 0.902344 -0.042969 0.992188 0.667969 1.90625 0.855469 c 0.589844 0.121093 1.125 0.039062 1.441406 -0.03125 c -0.703125 -1.164063 -1.976562 -1.949219 -3.433594 -1.949219 z m -0.386718 0.421875 c 0.085937 -0.011719 0.164062 0.011719 0.203125 0.0625 c 0.054687 0.070313 0.007812 0.164063 -0.101563 0.210937 c -0.109375 0.046876 -0.246094 0.03125 -0.296875 -0.039062 c -0.050781 -0.066406 0 -0.164062 0.109375 -0.210938 c 0.027344 -0.011718 0.058594 -0.019531 0.085938 -0.023437 z m -0.601563 0.171875 c 0.101563 0.003906 0.191407 0.046875 0.242188 0.109375 c 0.085937 0.113281 0.007812 0.273437 -0.171875 0.351563 c -0.183594 0.082031 -0.402344 0.050781 -0.488282 -0.0625 c -0.085937 -0.113282 -0.007812 -0.273438 0.171876 -0.351563 c 0.046874 -0.019531 0.09375 -0.03125 0.144531 -0.039063 c 0.035156 -0.003906 0.066406 -0.007812 0.101562 -0.007812 z m 0.492188 0.335938 c 0.0625 -0.007813 0.121093 0.011718 0.148437 0.046874 c 0.039063 0.046876 0 0.117188 -0.078125 0.148438 c -0.078125 0.035156 -0.167969 0.019531 -0.203125 -0.03125 c -0.035156 -0.046875 -0.007812 -0.105469 0.070313 -0.140625 c 0.019531 -0.007813 0.042969 -0.019531 0.0625 -0.023437 z m 0.988281 0.90625 c -0.519531 -0.023438 -0.773438 0.402343 -0.816406 0.785156 c -0.042969 0.382812 0.972656 0.179687 0.644531 0.75 c -0.035156 0.058594 -0.0625 0.097656 -0.09375 0.132812 c -0.039063 0.285156 -0.316406 0.507813 -0.652344 0.507813 c -0.15625 0 -0.292969 -0.054688 -0.40625 -0.132813 c -0.015625 0.070313 -0.03125 0.152344 -0.039062 0.273438 c -0.03125 0.421875 0.265625 0.757812 0.328125 1.023437 c 0.070312 -0.128906 0.128906 -0.269531 0.179687 -0.429687 c 0.097657 0.398437 0.222657 0.652344 0.347657 0.90625 c 0.390624 -0.035156 0.699218 -0.226563 1.003906 -0.4375 c -0.183594 0.378906 -0.398438 0.738281 -0.667969 1.058594 c 0.570313 0.21875 1.097656 0.167968 1.609375 0.003906 c -0.359375 0.300781 -0.707031 0.53125 -1.4375 0.601562 c 0.527344 0.160156 1.113281 0.339844 1.84375 0.117188 c -0.671875 0.390625 -1.378906 0.683594 -2.195312 0.660156 l 0.808593 -0.007812 l -1.625 0.070312 l -0.847656 -0.15625 l 0.03125 -0.375 c -0.351563 0.039062 -0.746094 -0.160156 -1.128906 -0.28125 c 0.34375 -0.152344 0.710937 -0.273438 0.941406 -0.5625 c -0.402344 -0.082031 -0.617187 -0.34375 -0.886719 -0.558594 c -0.175781 0.214844 -0.304687 0.414063 -0.523437 0.410156 c -0.402344 -0.011718 -0.53125 -0.5625 -0.480469 -0.886718 c 0.050781 -0.320313 0.691406 -0.160156 0.683594 -0.40625 c 0.054687 0.058594 0.121094 0.113281 0.195312 0.15625 c 0.386719 0.222656 0.863282 0.128906 1.058594 -0.210938 c 0.199219 -0.339844 0.050781 -0.792968 -0.335938 -1.015625 c -0.386718 -0.222656 -0.863281 -0.128906 -1.058593 0.210938 c -0.117188 0.199219 -0.109375 0.425781 -0.007813 0.632812 c -0.210937 -0.183593 -0.566406 -0.351562 -0.566406 -0.351562 l -0.375 -0.8125 c -0.019531 0.160156 -0.03125 0.328125 -0.03125 0.492187 c 0 2.207032 1.792969 3.996094 4.007812 3.996094 c 2.09375 0 3.808594 -1.597656 3.992188 -3.636719 c -0.101562 -0.289062 -0.390625 -1.085937 -0.699219 -1.265625 c -0.019531 -0.011718 -0.039062 -0.015625 -0.0625 -0.023437 c 0.023438 0.054687 0.03125 0.113281 0.007813 0.15625 c -0.039063 0.066406 -0.128906 0.0625 -0.203125 -0.007813 c -0.050781 -0.046875 -0.082031 -0.109375 -0.085938 -0.164062 c -0.207031 0.070312 -0.359375 0.304687 -0.410156 0.546875 c -0.074219 0.367187 0.441406 0.953125 0.441406 0.953125 c -0.355469 0 -0.863281 0.027344 -1.050781 -0.476563 c -0.160156 -0.425781 0.15625 -1.042969 -0.175781 -1.359375 c 0 0 -0.742188 -0.859375 -1.261719 -0.882812 z m 2.28125 1.621093 c 0.019531 -0.003906 0.03125 0 0.046875 0 c 0.070313 0.003907 0.148437 0.039063 0.222656 0.109375 c 0.144531 0.136719 0.203125 0.34375 0.132813 0.46875 c -0.070313 0.125 -0.238282 0.113282 -0.386719 -0.023437 c -0.144531 -0.136719 -0.203125 -0.34375 -0.132813 -0.46875 c 0.027344 -0.046875 0.070313 -0.078125 0.117188 -0.085938 z m -4.507812 1.84375 c -0.074219 0.003907 -0.148438 0.015625 -0.226563 0.039063 c -0.257813 0.078125 -0.425781 0.238281 -0.566406 0.398437 c 0.371093 0.085938 0.726562 0.277344 1.128906 0.164063 c -0.070313 -0.195313 -0.113281 -0.390625 -0.148437 -0.585938 c -0.058594 -0.007812 -0.121094 -0.015625 -0.1875 -0.015625 z m 0.761718 0.1875 c 0.027344 0.046875 0.046875 0.089844 0.078125 0.132813 c 0.039063 -0.027344 0.074219 -0.058594 0.109375 -0.09375 c -0.058594 0.003906 -0.121094 -0.015625 -0.1875 -0.039063 z m 0.359375 0.640625 c -0.390625 0 -0.707031 0.242188 -0.707031 0.535156 c 0 0.289063 0.316406 0.523438 0.707031 0.523438 s 0.707031 -0.234375 0.707031 -0.523438 c 0 -0.292968 -0.316406 -0.535156 -0.707031 -0.535156 z m 0 0.214844 c 0.234375 0 0.421875 0.144531 0.421875 0.320312 c 0 0.171876 -0.1875 0.3125 -0.421875 0.3125 s -0.421875 -0.140624 -0.421875 -0.3125 c 0 -0.175781 0.1875 -0.320312 0.421875 -0.320312 z m 2.558594 0.226562 c 0.070313 0.003907 0.101563 0.089844 0.070313 0.1875 c -0.035157 0.09375 -0.117188 0.160157 -0.191407 0.15625 c -0.070312 -0.007812 -0.101562 -0.09375 -0.070312 -0.1875 c 0.035156 -0.097656 0.117187 -0.164062 0.191406 -0.15625 z m 0 0" fill-opacity="0.34902"/>
    </g>
</svg>
