<?xml version="1.0" encoding="UTF-8"?>
<svg height="16px" viewBox="0 0 16 16" width="16px" xmlns="http://www.w3.org/2000/svg">
    <g fill="#222222">
        <path d="m 8 1.058594 c -3.820312 0 -6.941406 3.121094 -6.941406 6.941406 s 3.121094 6.941406 6.941406 6.941406 s 6.941406 -3.121094 6.941406 -6.941406 s -3.121094 -6.941406 -6.941406 -6.941406 z m 0 1.980468 c 2.753906 0 4.960938 2.207032 4.960938 4.960938 s -2.207032 4.960938 -4.960938 4.960938 s -4.960938 -2.207032 -4.960938 -4.960938 s 2.207032 -4.960938 4.960938 -4.960938 z m 0 0"/>
        <path d="m 5.738281 11.660156 l 3.765625 -2.664062 l 0.757813 -4.65625 l -3.765625 2.664062 z m 2.578125 -2.789062 c -0.488281 0.203125 -1.046875 -0.027344 -1.25 -0.511719 c -0.207031 -0.488281 0.023438 -1.046875 0.507813 -1.253906 c 0.234375 -0.097657 0.5 -0.097657 0.734375 -0.003907 c 0.234375 0.097657 0.421875 0.28125 0.519531 0.515626 c 0.203125 0.488281 -0.023437 1.046874 -0.511719 1.253906 z m 0 0" fill-opacity="0.34902"/>
        <path d="m 9.492188 9.003906 l 0.007812 -0.007812 l 0.761719 -4.652344 l -3.753907 2.65625 l 0.65625 0.4375 c 0.101563 -0.148438 0.246094 -0.261719 0.410157 -0.332031 c 0.234375 -0.097657 0.5 -0.097657 0.734375 -0.003907 c 0.234375 0.097657 0.421875 0.285157 0.519531 0.519532 c 0.121094 0.289062 0.089844 0.617187 -0.078125 0.882812 z m 0 0"/>
    </g>
</svg>
