<?xml version="1.0" encoding="UTF-8"?>
<svg height="16px" viewBox="0 0 16 16" width="16px" xmlns="http://www.w3.org/2000/svg">
    <g fill="#222222">
        <path d="m 6 11.953125 v 2.046875 h -5.53125 c -0.261719 0 -0.46875 0.207031 -0.46875 0.46875 v 1.0625 c 0 0.261719 0.207031 0.46875 0.46875 0.46875 h 13.0625 c 0.261719 0 0.46875 -0.207031 0.46875 -0.46875 v -1.0625 c 0 -0.261719 -0.207031 -0.46875 -0.46875 -0.46875 h -5.53125 v -2.046875 z m 0 0"/>
        <path d="m 4.007812 2.273438 v 5.722656 h 5.992188 v -4.050782 l -2 -1.9375 h -3.726562 c -0.171876 0 -0.265626 0.09375 -0.265626 0.265626 z m -1.023437 5.734374 c -0.5625 0 -0.984375 0.351563 -0.984375 0.992188 v 2.96875 h 9.96875 v -2.96875 c 0 -0.640625 -0.40625 -0.988281 -0.953125 -0.988281 v 0.976562 l -8.03125 0.035157 z m 0 0"/>
    </g>
</svg>
