<?xml version="1.0" encoding="UTF-8"?>
<svg height="16px" viewBox="0 0 16 16" width="16px" xmlns="http://www.w3.org/2000/svg">
    <g fill="#222222">
        <path d="m 9 0 v 12.445312 c 0 1.953126 1.601562 3.554688 3.554688 3.554688 h 0.023437 c 1.917969 -0.042969 3.464844 -1.65625 3.421875 -3.574219 v -8.425781 h -5 v -4 z m 2 6 h 3 v 6.46875 c 0.019531 0.835938 -0.621094 1.503906 -1.457031 1.527344 c -0.863281 -0.007813 -1.542969 -0.683594 -1.542969 -1.550782 z m 0 0"/>
        <path d="m 0 0 v 12 c 0 2.199219 1.800781 4 4 4 h 9 v -2 h -9 c -1.117188 0 -2 -0.882812 -2 -2 v -10 h 9 v -2 z m 0 0"/>
    </g>
</svg>
