<?xml version="1.0" encoding="UTF-8"?>
<svg height="16px" viewBox="0 0 16 16" width="16px" xmlns="http://www.w3.org/2000/svg">
    <g fill="#222222">
        <path d="m 6 0 v 4.585938 l -1.292969 -1.292969 c -0.1875 -0.1875 -0.441406 -0.292969 -0.707031 -0.292969 h -1 v 1 c 0 0.265625 0.105469 0.519531 0.292969 0.707031 l 2.707031 2.707031 v 1.171876 l -2.707031 2.707031 c -0.1875 0.1875 -0.292969 0.441406 -0.292969 0.707031 v 1 h 0.96875 h 0.03125 c 0.265625 0 0.519531 -0.105469 0.707031 -0.292969 l 1.292969 -1.292969 v 4.585938 h 1 c 0.265625 0 0.519531 -0.105469 0.707031 -0.292969 l 2.566407 -2.566406 c -0.167969 -0.183594 -0.261719 -0.421875 -0.261719 -0.671875 v -1.46875 c 0 -0.546875 0.441406 -0.988281 0.988281 -0.988281 h 0.425781 l -2.011719 -2.011719 l 2.292969 -2.292969 c 0.390625 -0.390625 0.390625 -1.023437 0 -1.414062 l -4 -4 c -0.179687 -0.179688 -0.421875 -0.2851565 -0.675781 -0.292969 c -0.011719 0 -0.019531 0 -0.03125 0 z m 2 3.414062 l 1.585938 1.585938 l -1.585938 1.585938 z m 0 6 l 1.585938 1.585938 l -1.585938 1.585938 z m 0 0" fill-opacity="0.34902"/>
        <path d="m 11 11 h 1.375 l 1.125 1.09375 l 1.09375 -1.09375 h 1.40625 v 1.46875 l -1.09375 1.0625 l 1.09375 1.0625 v 1.40625 h -1.4375 l -1.0625 -1.0625 l -1.0625 1.0625 h -1.4375 v -1.40625 l 1.0625 -1.0625 l -1.0625 -1.0625 z m 0 0"/>
    </g>
</svg>
