<?xml version="1.0" encoding="UTF-8"?>
<svg height="16px" viewBox="0 0 16 16" width="16px" xmlns="http://www.w3.org/2000/svg">
    <g fill="#222222">
        <path d="m 6.375 0.0195312 c -0.132812 0.0273438 -0.257812 0.078125 -0.371094 0.1562498 c -0.34375 0.234375 -0.503906 0.660157 -0.402344 1.0625 c 0 0 0.375 1.523438 0.65625 3.222657 c 0.136719 0.847656 0.25 1.734374 0.285157 2.46875 c -0.203125 -0.195313 -0.359375 -0.226563 -0.535157 -0.457032 c -0.515624 -0.660156 -0.859374 -1.292968 -0.859374 -1.292968 c -0.183594 -0.339844 -0.546876 -0.542969 -0.933594 -0.519532 c -0.386719 0.019532 -0.726563 0.261719 -0.871094 0.617188 c 0 0 -0.539062 1.320312 -0.910156 2.910156 s -0.753906 3.488281 0.234375 5 c 1.597656 2.445312 4.648437 3.351562 7.332031 2.496094 v -2.148438 c -0.019531 0.011719 -0.039062 0.019532 -0.058594 0.027344 c -2 0.929688 -4.414062 0.351562 -5.601562 -1.46875 c -0.289063 -0.441406 -0.289063 -2.039062 0.039062 -3.449219 c 0.09375 -0.402343 0.128906 -0.398437 0.230469 -0.738281 c 0.605469 0.757812 1.355469 1.585938 2.523437 1.832031 c 0.445313 0.09375 0.898438 -0.125 1.101563 -0.535156 c 0.367187 -0.742187 0.34375 -1.488281 0.304687 -2.355469 c -0.035156 -0.867187 -0.164062 -1.816406 -0.3125 -2.710937 c -0.046874 -0.304688 -0.058593 -0.285157 -0.113281 -0.570313 c 0.378907 0.316406 0.398438 0.28125 0.816407 0.671875 c 1.496093 1.417969 2.945312 3.300781 3.121093 4.519531 c 0.066407 0.433594 0.09375 0.847657 0.085938 1.242188 h 1.980469 c 0.019531 -0.507812 -0.007813 -1.019531 -0.085938 -1.53125 c -0.324219 -2.226562 -2.109375 -4.148438 -3.726562 -5.679688 c -1.617188 -1.53125 -3.164063 -2.609374 -3.164063 -2.609374 c -0.222656 -0.1562505 -0.5 -0.2148442 -0.765625 -0.1601568 z m 0 0" fill-opacity="0.34902"/>
        <path d="m 11 11 h 1.375 l 1.125 1.09375 l 1.09375 -1.09375 h 1.40625 v 1.46875 l -1.09375 1.0625 l 1.09375 1.0625 v 1.40625 h -1.4375 l -1.0625 -1.0625 l -1.0625 1.0625 h -1.4375 v -1.40625 l 1.0625 -1.0625 l -1.0625 -1.0625 z m 0 0"/>
    </g>
</svg>
