<?xml version="1.0" encoding="UTF-8"?>
<svg height="16px" viewBox="0 0 16 16" width="16px" xmlns="http://www.w3.org/2000/svg">
    <g fill="#222222">
        <path d="m 7.5 0 c -4.15625 0 -7.5 3.34375 -7.5 7.5 s 3.34375 7.5 7.5 7.5 c 0.15625 0 0.3125 -0.007812 0.464844 -0.015625 c -0.707032 -0.539063 -1.265625 -1.261719 -1.601563 -2.101563 c -2.496093 -0.519531 -4.363281 -2.726562 -4.363281 -5.382812 c 0 -3.046875 2.453125 -5.5 5.5 -5.5 c 2.660156 0 4.867188 1.871094 5.386719 4.371094 c 0.835937 0.34375 1.558593 0.90625 2.09375 1.617187 c 0.011719 -0.160156 0.019531 -0.324219 0.019531 -0.488281 c 0 -4.15625 -3.34375 -7.5 -7.5 -7.5 z m 0 0"/>
        <path d="m 8 6 h 5.984375 c 1.105469 0 2 0.890625 2 2 v 6 c 0 1.109375 -0.894531 2 -2 2 h -5.984375 c -1.109375 0 -2 -0.890625 -2 -2 v -6 c 0 -1.109375 0.890625 -2 2 -2 z m 6 2 h -1 c -0.011719 0 -0.019531 0 -0.03125 0 c -0.253906 0.011719 -0.511719 0.128906 -0.6875 0.3125 l -1.28125 1.28125 l -1.3125 -1.28125 c -0.265625 -0.230469 -0.445312 -0.304688 -0.6875 -0.3125 h -1 v 1 c 0 0.285156 0.035156 0.550781 0.25 0.75 l 1.28125 1.28125 l -1.25 1.25 c -0.1875 0.1875 -0.285156 0.453125 -0.28125 0.71875 v 1 h 1 c 0.265625 0 0.542969 -0.082031 0.71875 -0.28125 l 1.28125 -1.28125 l 1.28125 1.28125 c 0.1875 0.1875 0.453125 0.273438 0.71875 0.28125 h 1 v -1 c 0 -0.265625 -0.09375 -0.53125 -0.28125 -0.71875 l -1.28125 -1.25 l 1.28125 -1.28125 c 0.210938 -0.195312 0.304688 -0.46875 0.28125 -0.75 z m 0 0"/>
        <path d="m 7.296875 1.027344 c -4.882813 2.726562 -4.882813 10.222656 0 12.917968 l 0.484375 -0.878906 c -4.195312 -2.3125 -4.195312 -8.820312 0.003906 -11.167968 z m 0 0"/>
        <path d="m 7.78125 1.027344 l -0.484375 0.871094 c 2.105469 1.179687 3.152344 3.390624 3.144531 5.621093 l 1 0.003907 c 0.011719 -2.546876 -1.207031 -5.128907 -3.660156 -6.496094 z m 0 0"/>
    </g>
</svg>
