<?xml version="1.0" encoding="UTF-8"?>
<svg height="16px" viewBox="0 0 16 16" width="16px" xmlns="http://www.w3.org/2000/svg">
    <path d="m 15 11 c 0 1.644531 -1.355469 3 -3 3 h -9 c -1.644531 0 -3 -1.355469 -3 -3 v -6 c 0 -1.644531 1.355469 -3 3 -3 h 7.5 c 0.265625 0 0.519531 0.105469 0.707031 0.292969 l 3.5 3.5 c 0.1875 0.1875 0.292969 0.441406 0.292969 0.707031 z m -2 0 v -4 h -1.5 c -1 0 -1.5 -0.5 -1.5 -1.5 v -1.5 h -7 c -0.570312 0 -1 0.429688 -1 1 v 6 c 0 0.570312 0.429688 1 1 1 h 9 c 0.570312 0 1 -0.429688 1 -1 z m -8.5 -6.035156 c -0.824219 0 -1.5 0.675781 -1.5 1.5 c 0 0.820312 0.675781 1.5 1.5 1.5 s 1.5 -0.679688 1.5 -1.5 c 0 -0.824219 -0.675781 -1.5 -1.5 -1.5 z m 0 1 c 0.28125 0 0.5 0.21875 0.5 0.5 s -0.21875 0.5 -0.5 0.5 s -0.5 -0.21875 -0.5 -0.5 s 0.21875 -0.5 0.5 -0.5 z m 0 0"/>
    <path d="m 13.460938 10 h -2.417969 c -0.558594 0 -1.09375 -0.195312 -1.523438 -0.550781 l -1.128906 -0.941407 c -0.804687 -0.671874 -1.972656 -0.675781 -2.78125 -0.003906 l -1.09375 0.898438 c -0.449219 0.375 -1.015625 0.578125 -1.597656 0.578125 h -1.339844 c -0.277344 0 -0.5 0.222656 -0.5 0.5 c 0 0.273437 0.222656 0.5 0.5 0.5 h 1.339844 c 0.816406 0 1.605469 -0.285157 2.234375 -0.804688 l 1.09375 -0.902343 c 0.4375 -0.363282 1.070312 -0.359376 1.503906 0.003906 l 1.128906 0.941406 c 0.609375 0.503906 1.371094 0.78125 2.164063 0.78125 h 2.417969 c 0.277343 0 0.5 -0.222656 0.5 -0.5 s -0.222657 -0.5 -0.5 -0.5 z m 0 0"/>
</svg>
