<?xml version="1.0" encoding="UTF-8"?>
<svg height="16px" viewBox="0 0 16 16" width="16px" xmlns="http://www.w3.org/2000/svg">
    <g fill="#222222">
        <path d="m 2 4 v 7 h -2 c 0 1.105469 0.894531 2 2 2 h 8 v -2 h -6 v -7 h 9 v 2 h 2 v -2 c 0 -1.105469 -0.894531 -2 -2 -2 h -9 c -1.105469 0 -2 0.894531 -2 2 z m 0 0"/>
        <path d="m 11 8 v 5 c 0 0.550781 0.449219 1 1 1 h 3 c 0.550781 0 1 -0.449219 1 -1 v -5 c 0 -0.550781 -0.449219 -1 -1 -1 h -3 c -0.550781 0 -1 0.449219 -1 1 z m 1 0 h 3 v 4 h -3 z m 0 0"/>
    </g>
</svg>
