<?xml version="1.0" encoding="UTF-8"?>
<svg height="16px" viewBox="0 0 16 16" width="16px" xmlns="http://www.w3.org/2000/svg">
    <path d="m 4 1 c -1.660156 0 -3 1.339844 -3 3 v 1 h 2 v -1 c 0 -0.554688 0.445312 -1 1 -1 h 8 c 0.554688 0 1 0.445312 1 1 v 6 c 0 0.554688 -0.445312 1 -1 1 h -3 v 2 h 3 c 1.660156 0 3 -1.339844 3 -3 v -6 c 0 -1.660156 -1.339844 -3 -3 -3 z m 5 13.023438 v 1.976562 h 3 c 1 0 1 -1 1 -1 s -0.050781 -0.84375 -4 -0.976562 z m 0 0"/>
    <path d="m 2.28125 6 c -0.710938 0 -1.28125 0.570312 -1.28125 1.28125 v 7.4375 c 0 0.710938 0.570312 1.28125 1.28125 1.28125 h 4.4375 c 0.710938 0 1.28125 -0.570312 1.28125 -1.28125 v -7.4375 c 0 -0.710938 -0.570312 -1.28125 -1.28125 -1.28125 z m 0.128906 1 h 0.589844 c 0 0.554688 0.445312 1 1 1 h 1 c 0.554688 0 1 -0.445312 1 -1 h 0.589844 c 0.226562 0 0.410156 0.183594 0.410156 0.410156 v 6.164063 c 0 0.226562 -0.183594 0.410156 -0.410156 0.410156 h -4.179688 c -0.226562 0 -0.410156 -0.183594 -0.410156 -0.410156 v -6.164063 c 0 -0.226562 0.183594 -0.410156 0.410156 -0.410156 z m 0 0"/>
</svg>
