<?xml version="1.0" encoding="UTF-8"?>
<svg height="16px" viewBox="0 0 16 16" width="16px" xmlns="http://www.w3.org/2000/svg">
    <path d="m 1.496094 0.5 l -1.058594 1.0625 l 0.957031 0.957031 c -0.25 0.433594 -0.394531 0.941407 -0.394531 1.480469 v 1 h 2 v -0.875 l 1.875 1.875 h -2.59375 c -0.710938 0 -1.28125 0.570312 -1.28125 1.28125 v 7.4375 c 0 0.710938 0.570312 1.28125 1.28125 1.28125 h 4.4375 c 0.710938 0 1.28125 -0.570312 1.28125 -1.28125 v -5.59375 l 1.875 1.875 h -0.875 v 2 h 2.875 l 2.5625 2.5625 l 1.0625 -1.0625 z m 2.5625 0.5 l 2 2 h 5.941406 c 0.554688 0 1 0.445312 1 1 v 5.9375 l 1.578125 1.578125 c 0.261719 -0.445313 0.421875 -0.960937 0.421875 -1.515625 v -6 c 0 -1.660156 -1.339844 -3 -3 -3 z m -1.648438 6 h 0.589844 c 0 0.554688 0.445312 1 1 1 h 1 c 0.515625 0 0.925781 -0.394531 0.980469 -0.894531 l 1.019531 1.019531 v 5.449219 c 0 0.226562 -0.183594 0.410156 -0.410156 0.410156 h -4.179688 c -0.226562 0 -0.410156 -0.183594 -0.410156 -0.410156 v -6.164063 c 0 -0.226562 0.183594 -0.410156 0.410156 -0.410156 z m 6.589844 7.023438 v 1.976562 h 3 c 1 0 1 -1 1 -1 s -0.050781 -0.84375 -4 -0.976562 z m 0 0" fill="#222222"/>
</svg>
