<?xml version="1.0" encoding="UTF-8"?>
<svg height="16px" viewBox="0 0 16 16" width="16px" xmlns="http://www.w3.org/2000/svg">
    <g fill="#222222">
        <path d="m 6 1 c -1.089844 0 -2 0.910156 -2 2 v 10 c 0 1.089844 0.910156 2 2 2 h 4 c 1.089844 0 2 -0.910156 2 -2 v -10 c 0 -1.089844 -0.910156 -2 -2 -2 z m 0 2 h 4 v 10 h -4 z m 0 0"/>
        <path d="m 2 4 v 8 h 1 v -8 z m 0 0"/>
        <path d="m 0 6 v 4 h 1 v -4 z m 0 0"/>
        <path d="m 15 6 v 4 h 1 v -4 z m 0 0"/>
        <path d="m 13 4 v 8 h 1 v -8 z m 0 0"/>
    </g>
</svg>
