<?xml version="1.0" encoding="UTF-8"?>
<svg height="16px" viewBox="0 0 16 16" width="16px" xmlns="http://www.w3.org/2000/svg">
    <g fill="#222222">
        <path d="m 10.992188 4.917969 c 0.898437 0.003906 1.339843 1.09375 0.695312 1.71875 l -1.777344 1.777343 c 0.1875 0.6875 -0.011718 1.425782 -0.515625 1.929688 c -0.78125 0.78125 -2.046875 0.78125 -2.828125 0 s -0.78125 -2.046875 0 -2.828125 c 0.507813 -0.503906 1.242188 -0.699219 1.929688 -0.515625 l 1.777344 -1.777344 c 0.191406 -0.195312 0.449218 -0.300781 0.71875 -0.304687 z m 0 0"/>
        <path d="m 0 8 c 0 -2.855469 1.527344 -5.5 4 -6.925781 c 2.472656 -1.429688 5.527344 -1.429688 8 0 c 2.472656 1.425781 4 4.070312 4 6.925781 h -2 c 0 -2.144531 -1.140625 -4.121094 -3 -5.195312 c -1.859375 -1.074219 -4.140625 -1.074219 -6 0 c -1.859375 1.074218 -3 3.050781 -3 5.195312 z m 0 0"/>
        <path d="m 9 12 v 4 l 3 -2 z m 0 0"/>
        <path d="m 12 12 v 4 l 3 -2 z m 0 0"/>
        <path d="m 2 12 v 4 l 4 -2 z m 0 0"/>
    </g>
</svg>
