<?xml version="1.0" encoding="UTF-8"?>
<svg height="16px" viewBox="0 0 16 16" width="16px" xmlns="http://www.w3.org/2000/svg">
    <path d="m 6 5 h 1 c 0.199219 0 0.390625 0.058594 0.554688 0.167969 l 3 2 c 0.59375 0.394531 0.59375 1.269531 0 1.664062 l -3 2 c -0.164063 0.109375 -0.355469 0.167969 -0.554688 0.167969 h -1 z m 0 0"/>
    <path d="m 10.46875 3.570312 c 2.109375 1.25 3.023438 3.832032 2.167969 6.128907 c -0.855469 2.300781 -3.234375 3.65625 -5.648438 3.222656 c -2.414062 -0.433594 -4.167969 -2.535156 -4.167969 -4.988281 c 0 -0.550782 -0.449218 -1 -1 -1 c -0.554687 0 -1 0.449218 -1 1 c 0 3.421875 2.445313 6.351562 5.8125 6.957031 c 3.367188 0.605469 6.683594 -1.285156 7.878907 -4.492187 c 1.191406 -3.207032 -0.082031 -6.804688 -3.027344 -8.546876 c -0.472656 -0.28125 -1.085937 -0.125 -1.367187 0.351563 c -0.28125 0.472656 -0.125 1.085937 0.351562 1.367187 z m 0 0"/>
    <path d="m 3.410156 8.949219 h -2.808594 c -0.210937 0 -0.40625 -0.109375 -0.5117182 -0.289063 c -0.109375 -0.183594 -0.1171876 -0.40625 -0.015625 -0.59375 l 1.4101562 -2.644531 c 0.09375 -0.175781 0.277344 -0.285156 0.476563 -0.289063 c 0.199218 0 0.382812 0.105469 0.480468 0.28125 l 1.480469 2.664063 c 0.101563 0.179687 0.101563 0.402344 -0.007813 0.582031 c -0.105468 0.179688 -0.296874 0.289063 -0.503906 0.289063 z m 0 0"/>
    <path d="m 3.628906 5.390625 l -2.089844 -1.628906 c -0.164062 -0.128907 -0.25 -0.335938 -0.222656 -0.546875 c 0.023438 -0.207032 0.15625 -0.386719 0.351563 -0.472656 l 2.375 -1.046876 c 0.1875 -0.082031 0.40625 -0.058593 0.570312 0.0625 c 0.164063 0.121094 0.253907 0.324219 0.230469 0.527344 l -0.3125 2.726563 c -0.023438 0.199219 -0.15625 0.375 -0.339844 0.453125 c -0.1875 0.078125 -0.402344 0.050781 -0.5625 -0.074219 z m 0 0"/>
    <path d="m 5.835938 3.304688 l -0.269532 -2.535157 c -0.023437 -0.210937 0.066406 -0.421875 0.234375 -0.550781 c 0.171875 -0.1328125 0.394531 -0.1640625 0.59375 -0.089844 l 2.660157 1.007813 c 0.179687 0.070312 0.3125 0.234375 0.335937 0.429687 c 0.023437 0.195313 -0.0625 0.386719 -0.222656 0.496094 l -2.402344 1.667969 c -0.171875 0.117187 -0.394531 0.136719 -0.585937 0.050781 c -0.191407 -0.085938 -0.320313 -0.269531 -0.34375 -0.476562 z m 0 0"/>
</svg>
