<?xml version="1.0" encoding="UTF-8"?>
<svg height="16px" viewBox="0 0 16 16" width="16px" xmlns="http://www.w3.org/2000/svg">
    <g fill="#2e3436">
        <path d="m 4 2 v 1 h 8 v -1 c 0 -0.550781 -0.449219 -1 -1 -1 h -6 c -0.550781 0 -1 0.449219 -1 1 z m 0 0"/>
        <path d="m 4 8 c -1.089844 0 -2 0.910156 -2 2 v 3 c 0 1.089844 0.910156 2 2 2 h 8 c 1.089844 0 2 -0.910156 2 -2 v -3 c 0 -1.089844 -0.910156 -2 -2 -2 z m 0 2 h 8 v 3 h -8 z m 0 0"/>
        <path d="m 2 4 c -1.109375 0 -2 0.890625 -2 2 v 4 c 0 1.109375 0.890625 2 2 2 h 1 v -2 c 0 -0.554688 0.445312 -1 1 -1 h 8 c 0.554688 0 1 0.445312 1 1 v 2 h 1 c 1.109375 0 2 -0.890625 2 -2 v -4 c 0 -1.109375 -0.890625 -2 -2 -2 z m 0 0"/>
    </g>
</svg>
