<?xml version="1.0" encoding="UTF-8"?>
<svg height="16px" viewBox="0 0 16 16" width="16px" xmlns="http://www.w3.org/2000/svg">
    <path d="m 11 2 c -1.699219 0.003906 -3.199219 1.078125 -3.765625 2.65625 c -0.109375 0.414062 -0.429687 0.34375 -0.429687 0.34375 h -5.773438 c -1.03125 0 -1.03125 1 -1.03125 1 v 5 s 0 1 1 1 h 1 v 0.5 c 0 0.277344 0.222656 0.5 0.5 0.5 h 2 c 0.277344 0 0.5 -0.222656 0.5 -0.5 v -0.5 h 6 v 0.5 c 0 0.277344 0.222656 0.5 0.5 0.5 h 2 c 0.277344 0 0.5 -0.222656 0.5 -0.5 v -0.5 h 1 c 1 0 1 -1 1 -1 v -5 c 0 -1 -1 -1 -1 -1 h 0.125 s -0.25 0.03125 -0.355469 -0.324219 c -0.554687 -1.589843 -2.0625 -2.671875 -3.769531 -2.675781 z m 0 2 c 1.105469 0 2 0.894531 2 2 s -0.894531 2 -2 2 s -2 -0.894531 -2 -2 s 0.894531 -2 2 -2 z m -8.5 2.976562 c 0.277344 0 0.5 0.226563 0.5 0.5 v 2.035157 c 0 0.277343 -0.222656 0.5 -0.5 0.5 s -0.5 -0.222657 -0.5 -0.5 v -2.035157 c 0 -0.273437 0.222656 -0.5 0.5 -0.5 z m 2 0 c 0.277344 0 0.5 0.226563 0.5 0.5 v 2.035157 c 0 0.277343 -0.222656 0.5 -0.5 0.5 s -0.5 -0.222657 -0.5 -0.5 v -2.035157 c 0 -0.273437 0.222656 -0.5 0.5 -0.5 z m 2 0 c 0.277344 0 0.5 0.226563 0.5 0.5 v 2.035157 c 0 0.277343 -0.222656 0.5 -0.5 0.5 s -0.5 -0.222657 -0.5 -0.5 v -2.035157 c 0 -0.273437 0.222656 -0.5 0.5 -0.5 z m 0 0" fill="#222222"/>
</svg>
