<?xml version="1.0" encoding="UTF-8"?>
<svg height="16px" viewBox="0 0 16 16" width="16px" xmlns="http://www.w3.org/2000/svg">
    <path class="error" d="m 4 1 c -1.105469 0 -2 0.894531 -2 2 c 0.003906 0.710938 0.382812 1.371094 1 1.726562 v 6.546876 c -0.617188 0.355468 -0.996094 1.015624 -1 1.726562 c 0 1.105469 0.894531 2 2 2 s 2 -0.894531 2 -2 c 0 -0.714844 -0.382812 -1.375 -1 -1.730469 v -6.542969 c 0.617188 -0.355468 0.996094 -1.015624 1 -1.726562 c 0 -1.105469 -0.894531 -2 -2 -2 z m 6 0 c -0.265625 0 -0.519531 0.105469 -0.707031 0.292969 c -0.390625 0.390625 -0.390625 1.023437 0 1.414062 l 1.292969 1.292969 l -1.292969 1.292969 c -0.390625 0.390625 -0.390625 1.023437 0 1.414062 s 1.023437 0.390625 1.414062 0 l 1.292969 -1.292969 l 1.292969 1.292969 c 0.390625 0.390625 1.023437 0.390625 1.414062 0 s 0.390625 -1.023437 0 -1.414062 l -1.292969 -1.292969 l 1.292969 -1.292969 c 0.390625 -0.390625 0.390625 -1.023437 0 -1.414062 c -0.1875 -0.1875 -0.441406 -0.292969 -0.707031 -0.292969 s -0.519531 0.105469 -0.707031 0.292969 l -1.292969 1.292969 l -1.292969 -1.292969 c -0.1875 -0.1875 -0.441406 -0.292969 -0.707031 -0.292969 z m -6 1 c 0.550781 0 1 0.449219 1 1 s -0.449219 1 -1 1 s -1 -0.449219 -1 -1 s 0.449219 -1 1 -1 z m 8 5 l -1 1 v 3.273438 c -0.617188 0.355468 -0.996094 1.015624 -1 1.726562 c 0 1.105469 0.894531 2 2 2 s 2 -0.894531 2 -2 c 0 -0.714844 -0.382812 -1.375 -1 -1.730469 v -3.269531 z m 0 0"/>
</svg>
