<?xml version="1.0" encoding="UTF-8"?>
<svg height="16px" viewBox="0 0 16 16" width="16px" xmlns="http://www.w3.org/2000/svg">
    <g fill="#222222">
        <path d="m 3.195312 0 c -1.203124 0 -2.195312 1 -2.195312 2.199219 v 7.601562 c 0 1.199219 0.992188 2.199219 2.195312 2.199219 h 6.609376 c 1.203124 0 2.195312 -1 2.195312 -2.199219 v -7.601562 c 0 -1.199219 -0.992188 -2.199219 -2.195312 -2.199219 z m 0.304688 2 h 6 c 0.277344 0 0.5 0.222656 0.5 0.5 v 7 c 0 0.277344 -0.222656 0.5 -0.5 0.5 h -6 c -0.277344 0 -0.5 -0.222656 -0.5 -0.5 v -7 c 0 -0.277344 0.222656 -0.5 0.5 -0.5 z m 0 0"/>
        <path d="m 13 4 v 9.8125 c 0 0.132812 -0.0625 0.1875 -0.1875 0.1875 h -6.625 c -0.125 0 -0.1875 -0.054688 -0.1875 -0.1875 v -0.8125 h -2 v 0.8125 c 0 1.199219 0.988281 2.1875 2.1875 2.1875 h 6.625 c 1.203125 0 2.1875 -0.988281 2.1875 -2.1875 v -7.625 c 0 -1.136719 -0.886719 -2.089844 -2 -2.1875 z m 0 0"/>
        <path d="m 6.496094 3.003906 c -1.371094 0 -2.515625 1.128906 -2.496094 2.496094 l -0.007812 2.5 h 2.503906 c 1.371094 0 2.496094 -1.125 2.496094 -2.5 c 0 -1.371094 -1.125 -2.496094 -2.496094 -2.496094 z m 0.003906 1.496094 c 0.550781 0 1 0.449219 1 1 s -0.449219 1 -1 1 s -1 -0.449219 -1 -1 s 0.449219 -1 1 -1 z m 0 0"/>
    </g>
</svg>
