<?xml version="1.0" encoding="UTF-8"?>
<svg height="16px" viewBox="0 0 16 16" width="16px" xmlns="http://www.w3.org/2000/svg">
    <g fill="#222222">
        <path d="m 9.492188 1 c -1.277344 0 -2.3125 0.972656 -2.457032 2.21875 c -0.324218 -0.121094 -0.65625 -0.21875 -1.023437 -0.21875 c -1.648438 0 -2.984375 1.34375 -2.984375 3 c 0 0.097656 0.023437 0.183594 0.03125 0.28125 c -0.296875 -0.179688 -0.652344 -0.28125 -1.027344 -0.28125 c -1.097656 0 -1.9882812 0.894531 -1.9882812 2 s 0.8906252 2 1.9882812 2 h 0.375 c 0.164062 -0.351562 0.367188 -0.679688 0.652344 -0.96875 l 2.453125 -2.46875 l 2.457031 2.46875 c 0.285156 0.285156 0.464844 0.621094 0.621094 0.96875 h 0.464844 l 1.429687 -1.4375 l 1.429687 1.4375 h 2.550782 c 0.824218 0 1.492187 -0.671875 1.492187 -1.5 s -0.667969 -1.5 -1.492187 -1.5 c -0.207032 0 -0.414063 0.050781 -0.589844 0.125 c 0.050781 -0.203125 0.089844 -0.40625 0.089844 -0.625 c 0 -1.230469 -0.886719 -2.226562 -2.050782 -2.4375 c 0.042969 -0.179688 0.0625 -0.367188 0.0625 -0.5625 c 0 -1.378906 -1.113281 -2.5 -2.484374 -2.5 z m 0 0"/>
        <path d="m 5.5 7.917969 l -1.769531 1.769531 c -0.96875 0.972656 -0.96875 2.5625 0 3.535156 c 0.972656 0.972656 2.566406 0.972656 3.535156 0 c 0.972656 -0.972656 0.972656 -2.5625 0 -3.535156 z m 0 1.414062 l 1.058594 1.0625 c 0.589844 0.589844 0.589844 1.53125 0 2.121094 s -1.53125 0.589844 -2.121094 0 s -0.589844 -1.53125 0 -2.121094 z m 0 0"/>
        <path d="m 10.5 9.917969 l -1.769531 1.769531 c -0.96875 0.972656 -0.96875 2.5625 0 3.535156 c 0.972656 0.972656 2.566406 0.972656 3.535156 0 c 0.972656 -0.972656 0.972656 -2.5625 0 -3.535156 z m 0 1.414062 l 1.058594 1.0625 c 0.589844 0.589844 0.589844 1.53125 0 2.121094 s -1.53125 0.589844 -2.121094 0 s -0.589844 -1.53125 0 -2.121094 z m 0 0"/>
    </g>
</svg>
