<?xml version="1.0" encoding="UTF-8"?>
<svg height="16px" viewBox="0 0 16 16" width="16px" xmlns="http://www.w3.org/2000/svg">
    <g fill="#2e3436">
        <path d="m 12 1 c 1.660156 0 3 1.339844 3 3 v 6 c 0 1.660156 -1.339844 3 -3 3 h -8 c -1.660156 0 -3 -1.339844 -3 -3 v -6 c 0 -1.660156 1.339844 -3 3 -3 h 0.992188 l 0.988281 -1 h 4 l 1.003906 1 z m 0 2 h -2 l -1.039062 -1 h -1.976563 l -0.984375 1 h -2 c -0.554688 0 -1 0.445312 -1 1 v 6 c 0 0.554688 0.445312 1 1 1 h 8 c 0.554688 0 1 -0.445312 1 -1 v -6 c 0 -0.554688 -0.445312 -1 -1 -1 z m 0 0"/>
        <path d="m 8 14 c -5 0 -5 1 -5 1 c 0 1 1 1 1 1 h 8 c 1 0 1 -1 1 -1 s 0 -1 -5 -1 z m 0 0"/>
        <path d="m 11 7 c 0 1.65625 -1.34375 3 -3 3 s -3 -1.34375 -3 -3 s 1.34375 -3 3 -3 s 3 1.34375 3 3 z m 0 0"/>
    </g>
</svg>
