<?xml version="1.0" encoding="UTF-8"?>
<svg height="16px" viewBox="0 0 16 16" width="16px" xmlns="http://www.w3.org/2000/svg">
    <path d="m 9.464844 0 c -1.273438 0 -2.308594 0.972656 -2.449219 2.21875 c -0.324219 -0.121094 -0.65625 -0.21875 -1.019531 -0.21875 c -1.644532 0 -2.976563 1.34375 -2.976563 3 c 0 0.097656 0.019531 0.183594 0.03125 0.28125 c -0.296875 -0.179688 -0.652343 -0.28125 -1.023437 -0.28125 c -1.09375 0 -1.9843752 0.894531 -1.9843752 2 s 0.8906252 2 1.9843752 2 h 12.394531 c 0.824219 0 1.488281 -0.671875 1.488281 -1.5 s -0.664062 -1.5 -1.488281 -1.5 c -0.203125 0 -0.410156 0.050781 -0.585937 0.125 c 0.050781 -0.203125 0.09375 -0.40625 0.09375 -0.625 c 0 -1.230469 -0.886719 -2.226562 -2.046876 -2.4375 c 0.042969 -0.179688 0.0625 -0.367188 0.0625 -0.5625 c 0 -1.378906 -1.109374 -2.5 -2.480468 -2.5 z m 0 0"/>
    <path d="m 12.496094 9.992188 c -0.234375 0.003906 -0.433594 0.171874 -0.480469 0.402343 l -1 4.921875 c -0.054687 0.269532 0.121094 0.53125 0.390625 0.585938 c 0.265625 0.054687 0.53125 -0.121094 0.582031 -0.390625 l 1 -4.917969 c 0.035157 -0.144531 -0.003906 -0.300781 -0.097656 -0.417969 c -0.097656 -0.117187 -0.242187 -0.1875 -0.394531 -0.183593 z m -2 0 c -0.234375 0.003906 -0.4375 0.171874 -0.480469 0.402343 l -1 4.921875 c -0.054687 0.269532 0.117187 0.53125 0.386719 0.585938 c 0.269531 0.054687 0.53125 -0.121094 0.585937 -0.390625 l 1 -4.917969 c 0.03125 -0.144531 -0.003906 -0.300781 -0.101562 -0.417969 c -0.09375 -0.117187 -0.238281 -0.1875 -0.390625 -0.183593 z m -2 0 c -0.234375 0.003906 -0.4375 0.171874 -0.480469 0.402343 l -1.003906 4.921875 c -0.054688 0.269532 0.121093 0.53125 0.390625 0.585938 c 0.265625 0.054687 0.53125 -0.121094 0.582031 -0.390625 l 1 -4.917969 c 0.035156 -0.144531 -0.003906 -0.300781 -0.097656 -0.417969 c -0.09375 -0.117187 -0.238281 -0.183593 -0.390625 -0.183593 z m -2.003906 0 c -0.234376 0.003906 -0.433594 0.171874 -0.480469 0.402343 l -1 4.921875 c -0.046875 0.179688 0.007812 0.367188 0.144531 0.492188 s 0.328125 0.164062 0.503906 0.101562 c 0.171875 -0.0625 0.296875 -0.214844 0.324219 -0.398437 l 1 -4.917969 c 0.035156 -0.144531 -0.003906 -0.300781 -0.097656 -0.417969 c -0.097657 -0.117187 -0.242188 -0.1875 -0.394531 -0.183593 z m -2 0.003906 c -0.234376 0.003906 -0.433594 0.171875 -0.480469 0.40625 l -1 4.914062 c -0.054688 0.269532 0.117187 0.53125 0.386719 0.585938 c 0.269531 0.054687 0.53125 -0.121094 0.585937 -0.386719 l 1 -4.914063 c 0.035156 -0.148437 -0.003906 -0.304687 -0.097656 -0.421874 c -0.097657 -0.117188 -0.242188 -0.1875 -0.394531 -0.183594 z m -2.003907 -0.003906 c -0.234375 0.003906 -0.433593 0.171874 -0.480469 0.402343 l -1 4.921875 c -0.054687 0.269532 0.121094 0.53125 0.390626 0.585938 c 0.265624 0.054687 0.53125 -0.121094 0.582031 -0.390625 l 1 -4.917969 c 0.035156 -0.144531 -0.003907 -0.300781 -0.097657 -0.417969 c -0.097656 -0.117187 -0.242187 -0.1875 -0.394531 -0.183593 z m 0 0"/>
</svg>
