<?xml version="1.0" encoding="UTF-8"?>
<svg height="16px" viewBox="0 0 16 16" width="16px" xmlns="http://www.w3.org/2000/svg">
    <path d="m 7.550781 1.019531 c -0.898437 0.066407 -1.769531 0.335938 -2.550781 0.785157 c -1.855469 1.070312 -3 3.050781 -3 5.195312 v 4 h 3 v 4 h 1 v -2 h 1 v 2 h 2 v -2 h 1 v 2 h 1 v -4 h 3 v -4 c 0 -2.144531 -1.144531 -4.125 -3 -5.195312 c -1.042969 -0.601563 -2.246094 -0.878907 -3.449219 -0.785157 z m -2.550781 5.980469 h 1 c 0.554688 0 1 0.445312 1 1 s -0.445312 1 -1 1 h -1 c -0.554688 0 -1 -0.445312 -1 -1 s 0.445312 -1 1 -1 z m 5 0 h 1 c 0.554688 0 1 0.445312 1 1 s -0.445312 1 -1 1 h -1 c -0.554688 0 -1 -0.445312 -1 -1 s 0.445312 -1 1 -1 z m -2 2 l 1 2 h -2 z m 0 0"/>
</svg>
