<?xml version="1.0" encoding="UTF-8"?>
<svg height="16px" viewBox="0 0 16 16" width="16px" xmlns="http://www.w3.org/2000/svg">
    <path d="m 8 1 c -0.089844 0 -0.179688 0.007812 -0.269531 0.027344 c -3 0.15625 -5.628907 2.21875 -6.453125 5.128906 c -0.761719 3.015625 0.570312 6.230469 3.242187 7.828125 c 2.71875 1.515625 6.167969 1.0625 8.402344 -1.105469 c 2.167969 -2.234375 2.621094 -5.683594 1.105469 -8.402344 c 1.503906 2.726563 1.03125 6.164063 -1.136719 8.371094 c -2.226563 2.148438 -5.652344 2.578125 -8.328125 1.066406 c -2.617188 -1.578124 -3.914062 -4.734374 -3.179688 -7.671874 c -0.710937 2.945312 0.621094 6.070312 3.21875 7.601562 c 2.65625 1.46875 6.027344 1.003906 8.175782 -1.109375 c 2.09375 -2.167969 2.511718 -5.53125 1.035156 -8.132813 c 1.453125 2.617188 0.992188 5.953126 -1.09375 8.074219 c -2.136719 2.066407 -5.464844 2.480469 -8.035156 1.023438 c -2.515625 -1.507813 -3.773438 -4.570313 -3.0625 -7.394531 c -0.6875 2.828124 0.605468 5.859374 3.101562 7.324218 c 2.546875 1.417969 5.820313 0.964844 7.878906 -1.070312 c 2.015626 -2.078125 2.421876 -5.339844 1 -7.835938 c 1.398438 2.511719 0.949219 5.75 -1.058593 7.777344 c -2.046875 1.988281 -5.273438 2.390625 -7.734375 0.988281 c -2.417969 -1.445312 -3.640625 -4.417969 -2.949219 -7.125 c -0.664063 2.714844 0.589844 5.65625 2.988281 7.054688 c 2.4375 1.363281 5.613282 0.921875 7.582032 -1.03125 c 1.933593 -1.988281 2.328124 -5.152344 0.957031 -7.542969 c 1.347656 2.402344 0.910156 5.542969 -1.015625 7.484375 c -1.957032 1.90625 -5.089844 2.296875 -7.441406 0.945313 c -2.320313 -1.378907 -3.5 -4.257813 -2.832032 -6.847657 c -0.640625 2.597657 0.574219 5.445313 2.871094 6.777344 c 2.332031 1.308594 5.40625 0.882813 7.285156 -0.992187 c 1.855469 -1.898438 2.238282 -4.964844 0.921875 -7.242188 c 1.292969 2.292969 0.867188 5.335938 -0.980469 7.183594 c -1.867187 1.828125 -4.898437 2.207031 -7.144531 0.910156 c -2.21875 -1.3125 -3.359375 -4.101562 -2.71875 -6.574219 c -0.613281 2.480469 0.5625 5.234375 2.761719 6.503907 c 2.222656 1.253906 5.199219 0.839843 6.988281 -0.953126 c 1.773438 -1.808593 2.140625 -4.777343 0.878907 -6.949218 c 1.238281 2.1875 0.828124 5.132812 -0.9375 6.890625 c -1.777344 1.746093 -4.710938 2.113281 -6.847657 0.867187 c -2.121093 -1.246094 -3.222656 -3.941406 -2.605469 -6.296875 c -0.59375 2.363281 0.546876 5.027344 2.644532 6.226563 c 2.117187 1.203125 4.996094 0.800781 6.691406 -0.914063 c 1.695312 -1.71875 2.050781 -4.585937 0.84375 -6.648437 c 1.183594 2.078125 0.789062 4.921875 -0.902344 6.589844 c -1.6875 1.667968 -4.519531 2.019531 -6.550781 0.832031 c -2.019531 -1.179688 -3.082031 -3.789063 -2.488281 -6.027344 c -0.570313 2.246094 0.53125 4.820313 2.53125 5.957031 c 2.007812 1.148438 4.785156 0.757813 6.394531 -0.875 c 1.617187 -1.628906 1.957031 -4.398437 0.800781 -6.355468 c 1.132813 1.972656 0.75 4.71875 -0.859375 6.296874 c -1.597656 1.585938 -4.332031 1.925782 -6.253906 0.789063 c -1.921875 -1.113281 -2.949219 -3.628906 -2.375 -5.75 c -0.546875 2.128906 0.515625 4.613281 2.414063 5.679687 c 1.902343 1.09375 4.582031 0.71875 6.097656 -0.835937 c 1.539062 -1.535156 1.867187 -4.207031 0.765625 -6.054687 c 1.078125 1.863281 0.707031 4.507812 -0.824219 5.996093 c -1.503906 1.511719 -4.140625 1.835938 -5.957031 0.753907 c -1.820313 -1.050782 -2.808594 -3.472657 -2.257813 -5.476563 c -0.523437 2.011719 0.5 4.402344 2.300782 5.40625 c 1.792968 1.039063 4.371093 0.675781 5.800781 -0.796875 c 1.457031 -1.449219 1.769531 -4.019531 0.722656 -5.761719 c 1.023437 1.757813 0.667969 4.304688 -0.78125 5.703125 c -1.417969 1.429688 -3.953125 1.742188 -5.660156 0.710938 c -1.722657 -0.980469 -2.671875 -3.3125 -2.144531 -5.203125 c -0.5 1.894531 0.484374 4.199219 2.183593 5.132812 c 1.6875 0.988281 4.167969 0.640625 5.503907 -0.757812 c 1.378906 -1.355469 1.679687 -3.828125 0.6875 -5.460938 c 0.96875 1.648438 0.625 4.09375 -0.746094 5.402344 c -1.324219 1.351563 -3.761719 1.648437 -5.363282 0.675781 c -1.621093 -0.917968 -2.53125 -3.15625 -2.027343 -4.929687 c -0.480469 1.78125 0.46875 3.988281 2.070312 4.859375 c 1.574219 0.933594 3.960938 0.597656 5.207031 -0.71875 c 1.296876 -1.269532 1.585938 -3.640625 0.644532 -5.167969 c 0.917968 1.542969 0.585937 3.890625 -0.703125 5.109375 c -1.238281 1.269531 -3.574219 1.554688 -5.066407 0.632812 c -1.523437 -0.847656 -2.394531 -3 -1.914062 -4.652343 c -0.457031 1.660156 0.453125 3.777343 1.953125 4.582031 c 1.46875 0.878906 3.753906 0.554688 4.910156 -0.679688 c 1.214844 -1.175781 1.492188 -3.449218 0.605469 -4.867187 c 0.875 1.425781 0.578125 3.683594 -0.636719 4.835937 c -1.148437 1.214844 -3.410156 1.511719 -4.835937 0.636719 c -1.46875 -0.796875 -2.339844 -2.90625 -1.867188 -4.507812 c 0.390625 -1.625 2.199219 -3.011719 3.871094 -2.96875 v -0.003907 c 0.8125 0 1.472656 -0.660156 1.472656 -1.472656 s -0.660156 -1.472656 -1.472656 -1.472656 z m 0 0" fill="#222222"/>
</svg>
