<?xml version="1.0" encoding="UTF-8"?>
<svg height="16px" viewBox="0 0 16 16" width="16px" xmlns="http://www.w3.org/2000/svg">
    <g fill="#222222">
        <path d="m 13.003906 1.023438 c -1.648437 0 -3.003906 1.351562 -3.015625 2.996093 h -0.507812 c -0.1875 0 -0.34375 0.09375 -0.449219 0.273438 l -0.5625 1.128906 l -1.550781 -3.101563 c -0.058594 -0.121093 -0.164063 -0.210937 -0.289063 -0.25 c -0.125 -0.042968 -0.261718 -0.035156 -0.382812 0.023438 c -0.246094 0.125 -0.347656 0.425781 -0.222656 0.671875 l 2 4 c 0.203124 0.355469 0.679687 0.371094 0.894531 0 l 0.871093 -1.746094 h 0.378907 c 0.414062 1.175781 1.527343 2.035157 2.835937 2.035157 c 1.652344 0 3.015625 -1.363282 3.015625 -3.015626 c 0 -1.65625 -1.363281 -3.015624 -3.015625 -3.015624 z m -12.339844 1.019531 c -0.125 -0.042969 -0.261718 -0.035157 -0.382812 0.023437 c -0.2460938 0.125 -0.3476562 0.425782 -0.2226562 0.671875 l 1.9648442 4.027344 c 0.121093 0.246094 0.421874 0.34375 0.671874 0.222656 c 0.246094 -0.125 0.34375 -0.421875 0.222657 -0.667969 l -1.964844 -4.027343 c -0.058594 -0.121094 -0.164063 -0.210938 -0.289063 -0.25 z m 1.964844 0.023437 c -0.125 -0.039062 -0.261718 -0.03125 -0.382812 0.027344 c -0.246094 0.125 -0.347656 0.425781 -0.222656 0.671875 l 2 4 c 0.125 0.246094 0.421874 0.34375 0.671874 0.222656 c 0.246094 -0.125 0.34375 -0.421875 0.222657 -0.671875 l -2 -4 c -0.058594 -0.117187 -0.164063 -0.207031 -0.289063 -0.25 z m 2 0 c -0.125 -0.039062 -0.261718 -0.03125 -0.382812 0.027344 c -0.246094 0.125 -0.347656 0.425781 -0.222656 0.671875 l 2 4 c 0.125 0.246094 0.421874 0.34375 0.671874 0.222656 c 0.246094 -0.125 0.34375 -0.421875 0.222657 -0.671875 l -2 -4 c -0.058594 -0.117187 -0.164063 -0.207031 -0.289063 -0.25 z m 8.375 0.964844 c 0.566406 0 1.007813 0.4375 1.007813 1.003906 c 0 0.570313 -0.441407 1.007813 -1.007813 1.007813 s -1.003906 -0.4375 -1.003906 -1.007813 c 0 -0.566406 0.4375 -1.003906 1.003906 -1.003906 z m 0 0"/>
        <path d="m 11.003906 9.023438 c -1.648437 0 -3.003906 1.351562 -3.015625 2.996093 h -0.507812 c -0.238281 0 -0.445313 0.167969 -0.492188 0.40625 l -0.257812 0.847657 l -1.730469 -3.273438 h -5 v 4 h 0.519531 c 0.304688 0 0.476563 -0.195312 0.476563 -0.519531 l 0.003906 -0.480469 l 2 3 h 4 l 0.894531 -2.980469 h 0.273438 c 0.414062 1.175781 1.527343 2.03125 2.835937 2.03125 c 1.652344 0 3.015625 -1.359375 3.015625 -3.011719 c 0 -1.65625 -1.363281 -3.015624 -3.015625 -3.015624 z m 0 2.007812 c 0.566406 0 1.007813 0.4375 1.007813 1.007812 c 0 0.566407 -0.441407 1.003907 -1.007813 1.003907 s -1.003906 -0.4375 -1.003906 -1.003907 c 0 -0.570312 0.4375 -1.007812 1.003906 -1.007812 z m 0 0"/>
        <path d="m 0.5 2 c 0.277344 0 0.5 0.222656 0.5 0.5 v 3 c 0 0.277344 -0.222656 0.5 -0.5 0.5 s -0.5 0.007812 -0.5 0.007812 v -3.507812 c 0 -0.277344 0.222656 -0.5 0.5 -0.5 z m 0 0"/>
    </g>
</svg>
