<?xml version="1.0" encoding="UTF-8"?>
<svg height="16px" viewBox="0 0 16 16" width="16px" xmlns="http://www.w3.org/2000/svg">
    <path d="m 7.957031 0.125 v 0.003906 c -0.414062 0.007813 -0.757812 0.207032 -0.980469 0.402344 c -0.222656 0.199219 -0.367187 0.414062 -0.496093 0.628906 c -0.261719 0.433594 -0.445313 0.90625 -0.625 1.375 c -0.179688 0.46875 -0.347657 0.929688 -0.496094 1.265625 c -0.085937 0.195313 -0.066406 0.167969 -0.113281 0.238281 l -3.417969 -0.007812 c -0.4375 -0.003906 -0.824219 0.28125 -0.957031 0.699219 c -0.238282 0.765625 0.101562 1.261719 0.375 1.683593 c 0.269531 0.421876 0.609375 0.816407 0.953125 1.199219 c 0.339843 0.382813 0.6875 0.753907 0.949219 1.054688 c 0.152343 0.183593 0.269531 0.355469 0.332031 0.449219 c -0.007813 0.078124 -0.011719 0.238281 -0.0625 0.425781 c -0.101563 0.34375 -0.269531 0.800781 -0.429688 1.269531 c -0.164062 0.472656 -0.328125 0.945312 -0.402343 1.4375 c -0.039063 0.242188 -0.066407 0.496094 -0.011719 0.800781 c 0.054687 0.308594 0.238281 0.710938 0.597656 0.953125 c 0.355469 0.238282 0.746094 0.261719 1.042969 0.226563 c 0.292968 -0.03125 0.535156 -0.121094 0.773437 -0.21875 c 0.472657 -0.203125 0.921875 -0.480469 1.367188 -0.761719 c 0.445312 -0.28125 0.875 -0.566406 1.21875 -0.761719 c 0.191406 -0.105469 0.363281 -0.167969 0.457031 -0.203125 c 0.085938 0.035156 0.253906 0.09375 0.433594 0.203125 c 0.332031 0.195313 0.75 0.480469 1.183594 0.765625 c 0.433593 0.285156 0.867187 0.566406 1.332031 0.769532 c 0.230469 0.105468 0.472656 0.191406 0.769531 0.226562 c 0.292969 0.035156 0.707031 0.003906 1.058594 -0.253906 c 0.066406 -0.046875 0.125 -0.105469 0.175781 -0.164063 c 0.429687 -0.519531 0.507813 -1.257812 0.386719 -1.769531 c -0.125 -0.511719 -0.347656 -0.894531 -0.535156 -1.261719 c -0.363282 -0.707031 -0.578126 -1.183593 -0.410157 -1.710937 c -0.011719 0.066406 0.128907 -0.183594 0.371094 -0.414063 c 0.273437 -0.265625 0.648437 -0.59375 1.023437 -0.949219 c 0.375 -0.359374 0.75 -0.738281 1.050782 -1.199218 c 0.296875 -0.460938 0.570312 -1.121094 0.3125 -1.828125 c -0.144532 -0.398438 -0.519532 -0.664063 -0.941406 -0.660157 h -3.617188 c -0.019531 -0.035156 -0.019531 -0.027343 -0.042969 -0.070312 c -0.140625 -0.273438 -0.316406 -0.746094 -0.492187 -1.238281 c -0.179688 -0.488281 -0.363282 -1 -0.601563 -1.460938 c -0.121093 -0.234375 -0.253906 -0.457031 -0.46875 -0.679687 c -0.21875 -0.222656 -0.585937 -0.472656 -1.0625 -0.464844 z m 0.042969 2.773438 c 0.066406 0.164062 0.132812 0.316406 0.207031 0.519531 c 0.179688 0.492187 0.359375 1 0.597657 1.464843 c 0.121093 0.230469 0.25 0.457032 0.460937 0.679688 c 0.207031 0.21875 0.566406 0.476562 1.042969 0.476562 h 2.347656 c -0.085938 0.089844 -0.121094 0.148438 -0.214844 0.242188 c -0.332031 0.3125 -0.703125 0.636719 -1.035156 0.957031 c -0.332031 0.324219 -0.652344 0.5625 -0.855469 1.15625 c -0.480469 1.371094 0.121094 2.570313 0.507813 3.324219 c 0.011718 0.03125 0.011718 0.035156 0.027344 0.0625 c -0.125 -0.074219 -0.207032 -0.109375 -0.335938 -0.199219 c -0.410156 -0.265625 -0.84375 -0.5625 -1.265625 -0.8125 c -0.421875 -0.253906 -0.761719 -0.519531 -1.441406 -0.519531 c -0.015625 0 -0.027344 0 -0.042969 0 z m 0 0" fill="#222222"/>
</svg>
