<?xml version="1.0" encoding="UTF-8"?>
<svg height="16px" viewBox="0 0 16 16" width="16px" xmlns="http://www.w3.org/2000/svg">
    <g fill="#222222">
        <path d="m 8 1.5 c 0.925781 -0.003906 1.4375 3.132812 2.1875 3.65625 s 4.023438 0.027344 4.3125 0.875 s -2.65625 2.273438 -2.9375 3.125 s 1.246094 3.691406 0.5 4.21875 s -3.105469 -1.722656 -4.03125 -1.71875 c -0.007812 0 -0.023438 0 -0.03125 0 z m 0 0"/>
        <path d="m 8.042969 0.128906 c 0.414062 0.007813 0.757812 0.207032 0.980469 0.402344 c 0.222656 0.199219 0.367187 0.414062 0.5 0.628906 c 0.257812 0.433594 0.441406 0.90625 0.621093 1.375 c 0.179688 0.46875 0.347657 0.929688 0.496094 1.265625 c 0.085937 0.195313 0.066406 0.167969 0.113281 0.238281 l 3.417969 -0.011718 c 0.4375 0 0.824219 0.285156 0.957031 0.703125 c 0.238282 0.765625 -0.101562 1.261719 -0.371094 1.683593 c -0.273437 0.421876 -0.613281 0.816407 -0.953124 1.199219 c -0.34375 0.382813 -0.691407 0.753907 -0.949219 1.054688 c -0.261719 0.304687 -0.421875 0.613281 -0.386719 0.511719 c 0.085938 -0.265626 0.015625 0.015624 0.117188 0.359374 c 0.097656 0.347657 0.265624 0.804688 0.429687 1.273438 c 0.160156 0.472656 0.324219 0.945312 0.402344 1.433594 c 0.035156 0.246094 0.0625 0.5 0.007812 0.804687 c -0.054687 0.304688 -0.238281 0.710938 -0.597656 0.953125 c -0.355469 0.238282 -0.746094 0.261719 -1.039063 0.226563 c -0.296874 -0.03125 -0.539062 -0.121094 -0.777343 -0.222657 c -0.472657 -0.199218 -0.921875 -0.476562 -1.367188 -0.757812 c -0.445312 -0.28125 -0.875 -0.566406 -1.21875 -0.761719 c -0.339843 -0.191406 -0.65625 -0.242187 -0.464843 -0.242187 c 0.226562 0 -0.09375 0.042968 -0.425782 0.238281 c -0.332031 0.199219 -0.75 0.484375 -1.183594 0.769531 c -0.429687 0.285156 -0.867187 0.566406 -1.332031 0.769532 c -0.230469 0.105468 -0.46875 0.191406 -0.765625 0.226562 s -0.710937 0 -1.0625 -0.253906 c -0.066406 -0.046875 -0.125 -0.105469 -0.175781 -0.167969 c -0.429687 -0.515625 -0.507813 -1.253906 -0.382813 -1.765625 c 0.121094 -0.511719 0.34375 -0.898438 0.53125 -1.261719 c 0.375 -0.726562 0.589844 -1.203125 0.402344 -1.75 c -0.003906 0 -0.003906 -0.003906 -0.003906 -0.007812 c 0.0625 0.183593 -0.082031 -0.101563 -0.355469 -0.367188 c -0.277343 -0.265625 -0.652343 -0.59375 -1.027343 -0.953125 c -0.375 -0.355468 -0.75 -0.734375 -1.046876 -1.195312 c -0.300781 -0.460938 -0.570312 -1.121094 -0.316406 -1.832032 c 0.144532 -0.394531 0.519532 -0.660156 0.941406 -0.660156 h 3.617188 c 0.019531 -0.03125 0.019531 -0.023437 0.042969 -0.070312 c 0.140625 -0.273438 0.316406 -0.742188 0.496093 -1.234375 c 0.175782 -0.488281 0.359376 -1 0.601563 -1.464844 c 0.117187 -0.230469 0.25 -0.457031 0.46875 -0.675781 c 0.214844 -0.222656 0.582031 -0.472656 1.058594 -0.464844 z m 0.015625 2.632813 c -0.089844 0.222656 -0.167969 0.394531 -0.265625 0.65625 c -0.179688 0.492187 -0.359375 1 -0.597657 1.464843 c -0.121093 0.230469 -0.25 0.457032 -0.457031 0.675782 c -0.210937 0.222656 -0.570312 0.480468 -1.046875 0.480468 h -2.34375 c 0.082032 0.089844 0.117188 0.148438 0.214844 0.242188 c 0.328125 0.3125 0.699219 0.636719 1.035156 0.957031 c 0.328125 0.324219 0.648438 0.5625 0.855469 1.160157 c 0.476563 1.367187 -0.125 2.566406 -0.507813 3.320312 c -0.015624 0.03125 -0.015624 0.035156 -0.03125 0.0625 c 0.125 -0.074219 0.207032 -0.109375 0.339844 -0.199219 c 0.40625 -0.265625 0.839844 -0.5625 1.261719 -0.816406 c 0.421875 -0.25 0.761719 -0.515625 1.441406 -0.519531 h 0.003907 c 0.667968 0 1.023437 0.261718 1.457031 0.507812 c 0.429687 0.246094 0.875 0.539063 1.296875 0.804688 c 0.199218 0.128906 0.339844 0.191406 0.523437 0.296875 c -0.046875 -0.140625 -0.058593 -0.226563 -0.113281 -0.382813 c -0.152344 -0.441406 -0.332031 -0.914062 -0.460938 -1.378906 c -0.132812 -0.460938 -0.324218 -0.867188 -0.09375 -1.546875 c 0.175782 -0.535156 0.457032 -0.8125 0.765626 -1.175781 c 0.304687 -0.359375 0.65625 -0.730469 0.976562 -1.089844 c 0.082031 -0.089844 0.121094 -0.15625 0.199219 -0.246094 l -2.242188 0.007813 c -0.207031 0.003906 -0.40625 -0.058594 -0.574219 -0.179688 c -0.550781 -0.382812 -0.6875 -0.804687 -0.882812 -1.25 c -0.195312 -0.441406 -0.367188 -0.917969 -0.535156 -1.359375 c -0.078125 -0.203125 -0.144532 -0.316406 -0.21875 -0.492187 z m 0 0"/>
    </g>
</svg>
