<?xml version="1.0" encoding="UTF-8"?>
<svg height="16px" viewBox="0 0 16 16" width="16px" xmlns="http://www.w3.org/2000/svg">
    <path d="m 11 3 c 0.554688 0 1 0.445312 1 1 v 6 c 0 0.554688 -0.445312 1 -1 1 h -7 c -0.554688 0 -1 -0.445312 -1 -1 v -6 c 0 -0.554688 0.445312 -1 1 -1 z m -10 1 v 6 c 0 1.660156 1.339844 3 3 3 h 7 c 1.660156 0 3 -1.339844 3 -3 v -6 c 0 -1.660156 -1.339844 -3 -3 -3 h -7 c -1.660156 0 -3 1.339844 -3 3 z m 0 0"/>
    <path d="m 3 6 h 9 v 1 h -9 z m 0 0" fill-rule="evenodd"/>
    <path d="m 12.488281 11.992188 c -0.132812 0 -0.261719 0.050781 -0.355469 0.148437 c -0.195312 0.191406 -0.195312 0.511719 0 0.703125 l 1.980469 1.984375 c 0.195313 0.195313 0.515625 0.195313 0.710938 0 c 0.191406 -0.195313 0.191406 -0.511719 0 -0.707031 l -1.984375 -1.980469 c -0.09375 -0.097656 -0.222656 -0.148437 -0.351563 -0.148437 z m 0 0"/>
    <path d="m 2.472656 11.992188 c 0.132813 0 0.257813 0.050781 0.351563 0.148437 c 0.195312 0.191406 0.195312 0.511719 0 0.703125 l -1.980469 1.984375 c -0.195312 0.195313 -0.511719 0.195313 -0.707031 0 c -0.1953128 -0.195313 -0.1953128 -0.511719 0 -0.707031 l 1.980469 -1.980469 c 0.097656 -0.097656 0.222656 -0.148437 0.355468 -0.148437 z m 0 0"/>
    <g fill-rule="evenodd">
        <path d="m 6 9 c 0 0.550781 -0.449219 1 -1 1 s -1 -0.449219 -1 -1 s 0.449219 -1 1 -1 s 1 0.449219 1 1 z m 0 0"/>
        <path d="m 11 9 c 0 0.550781 -0.449219 1 -1 1 s -1 -0.449219 -1 -1 s 0.449219 -1 1 -1 s 1 0.449219 1 1 z m 0 0"/>
    </g>
</svg>
