<?xml version="1.0" encoding="UTF-8"?>
<svg height="16px" viewBox="0 0 16 16" width="16px" xmlns="http://www.w3.org/2000/svg">
    <g fill="#222222">
        <path d="m 12.402344 4.148438 l -4.953125 4.953124 l -0.449219 1.898438 l 1.871094 -0.390625 l 5 -5 c 0.546875 -0.59375 0.628906 -1.109375 0.128906 -1.609375 s -1.167969 -0.277344 -1.597656 0.148438 z m 0 0"/>
        <path d="m 8 0 v 1.5 c 0 0.132812 -0.054688 0.261719 -0.144531 0.355469 c -0.09375 0.09375 -0.21875 0.144531 -0.347657 0.144531 h -3.011718 c -0.535156 0 -1.03125 0.289062 -1.296875 0.75 c -0.265625 0.464844 -0.265625 1.035156 0 1.5 c 0.265625 0.460938 0.761719 0.75 1.292969 0.75 h 3.011718 c 0.179688 0 0.339844 0.09375 0.429688 0.25 c 0.042968 0.074219 0.066406 0.164062 0.066406 0.25 v 0.5 h -5.808594 l -1.929687 9 h 15.472656 l -1.734375 -8.105469 l -1.683594 1.6875 l 0.945313 4.417969 h -10.523438 l 1.070313 -5 h 3.328125 l 2 -2 h -0.136719 v -0.5 c 0 -0.257812 -0.066406 -0.515625 -0.199219 -0.75 c -0.265625 -0.460938 -0.761719 -0.75 -1.296875 -0.75 h -3.011718 c -0.175782 0 -0.335938 -0.09375 -0.425782 -0.25 c -0.089844 -0.152344 -0.089844 -0.347656 0 -0.5 c 0.089844 -0.15625 0.25 -0.25 0.429688 -0.25 h 3.011718 c 0.398438 0 0.777344 -0.160156 1.054688 -0.441406 c 0.28125 -0.28125 0.4375 -0.660156 0.4375 -1.058594 v -1.5 z m 0 0"/>
    </g>
</svg>
