<?xml version="1.0" encoding="UTF-8"?>
<svg height="16px" viewBox="0 0 16 16" width="16px" xmlns="http://www.w3.org/2000/svg">
    <path d="m 2.5 3 c -1.382812 0 -2.5 1.113281 -2.5 2.5 v 6 c 0 1.386719 1.117188 2.5 2.5 2.5 h 11 c 1.386719 0 2.5 -1.113281 2.5 -2.5 v -6 c 0 -1.386719 -1.113281 -2.5 -2.5 -2.5 z m 2 3 c 1.375 0 2.5 1.125 2.5 2.5 c 0 0.566406 -0.210938 1.082031 -0.53125 1.5 h 3.0625 c -0.320312 -0.417969 -0.53125 -0.933594 -0.53125 -1.5 c 0 -1.375 1.125 -2.5 2.5 -2.5 s 2.5 1.125 2.5 2.5 s -1.125 2.5 -2.5 2.5 h -7 c -1.375 0 -2.5 -1.125 -2.5 -2.5 s 1.125 -2.5 2.5 -2.5 z m 0 1 c -0.832031 0 -1.5 0.664062 -1.5 1.5 s 0.667969 1.5 1.5 1.5 c 0.835938 0 1.5 -0.664062 1.5 -1.5 s -0.664062 -1.5 -1.5 -1.5 z m 7 0 c -0.832031 0 -1.5 0.664062 -1.5 1.5 s 0.667969 1.5 1.5 1.5 c 0.835938 0 1.5 -0.664062 1.5 -1.5 s -0.664062 -1.5 -1.5 -1.5 z m 0 0" fill="#222222"/>
</svg>
