<?xml version="1.0" encoding="UTF-8"?>
<svg height="16px" viewBox="0 0 16 16" width="16px" xmlns="http://www.w3.org/2000/svg">
    <g fill="#222222">
        <path d="m 5.992188 0.0507812 v 1.9999998 h 6 c 0.429687 0 1 0.613281 1 1 v 1 h -5 c -0.917969 0 -1.734376 0.382813 -2.25 0.96875 c -0.511719 0.582031 -0.753907 1.308594 -0.75 2.03125 c 0.007812 0.71875 0.269531 1.453125 0.78125 2.03125 c 0.515624 0.578125 1.3125 0.96875 2.21875 0.96875 h 7 v -7 c 0 -1.636719 -1.316407 -2.9999998 -3 -2.9999998 z m 2 5.9999998 h 5 v 2 h -5 c -0.394532 0 -0.566407 -0.109375 -0.71875 -0.28125 c -0.148438 -0.171875 -0.277344 -0.441406 -0.28125 -0.71875 c 0 -0.28125 0.105468 -0.554687 0.25 -0.71875 c 0.148437 -0.167969 0.328124 -0.28125 0.75 -0.28125 z m 0 0"/>
        <path d="m 2.992188 9 c -0.261719 0 -0.527344 0.09375 -0.71875 0.28125 l -2.2812505 2.28125 v 0.875 l 2.2812505 2.28125 c 0.191406 0.1875 0.457031 0.28125 0.71875 0.28125 h 1 v -1 c 0 -0.265625 -0.089844 -0.53125 -0.28125 -0.71875 l -0.28125 -0.28125 h 11.546874 v -2 h -11.546874 l 0.28125 -0.28125 c 0.191406 -0.1875 0.285156 -0.453125 0.28125 -0.71875 v -1 z m 0 0"/>
    </g>
</svg>
