<?xml version="1.0" encoding="UTF-8"?>
<svg height="16px" viewBox="0 0 16 16" width="16px" xmlns="http://www.w3.org/2000/svg">
    <g fill="#222222">
        <path d="m 2 0 v 2 h 6 c 0.429688 0 1 0.613281 1 1 v 1 h -5 c -0.917969 0 -1.734375 0.382812 -2.25 0.96875 s -0.757812 1.3125 -0.75 2.03125 s 0.269531 1.453125 0.78125 2.03125 s 1.308594 0.96875 2.21875 0.96875 h 7 v -7 c 0 -1.632812 -1.320312 -3 -3 -3 z m 2 6 h 5 v 2 h -5 c -0.398438 0 -0.566406 -0.109375 -0.71875 -0.28125 s -0.277344 -0.4375 -0.28125 -0.71875 s 0.105469 -0.554688 0.25 -0.71875 s 0.328125 -0.28125 0.75 -0.28125 z m 0 0"/>
        <path d="m 12 9 v 1 c 0 0.265625 0.09375 0.53125 0.28125 0.71875 l 0.28125 0.28125 h -11.625 v 2 h 11.625 l -0.28125 0.28125 c -0.1875 0.1875 -0.28125 0.453125 -0.28125 0.71875 v 1 h 1 c 0.265625 0 0.53125 -0.09375 0.71875 -0.28125 l 2.28125 -2.28125 v -0.875 l -2.28125 -2.28125 c -0.1875 -0.1875 -0.453125 -0.28125 -0.71875 -0.28125 z m 0 0"/>
    </g>
</svg>
