<?xml version="1.0" encoding="UTF-8"?>
<svg height="16px" viewBox="0 0 16 16" width="16px" xmlns="http://www.w3.org/2000/svg">
    <g fill="#222222">
        <path d="m 7 8 v 6 l -1 1 h 4 l -1 -1 v -5 l 3 -1 h -3 v -3 h -5 l 3 1 z m 0 0"/>
        <path d="m 4.203125 0 c -1.1875 0 -2.171875 0.984375 -2.171875 2.167969 v 7.664062 c 0 1.183594 0.984375 2.167969 2.171875 2.167969 h 1.574219 v -2 h -1.574219 c -0.113281 0 -0.171875 -0.058594 -0.171875 -0.167969 v -7.664062 c 0 -0.109375 0.058594 -0.167969 0.171875 -0.167969 h 7.625 c 0.113281 0 0.171875 0.058594 0.171875 0.167969 v 7.664062 c 0 0.109375 -0.058594 0.167969 -0.171875 0.167969 h -1.609375 v 2 h 1.609375 c 1.1875 0 2.171875 -0.984375 2.171875 -2.167969 v -7.664062 c 0 -1.183594 -0.984375 -2.167969 -2.171875 -2.167969 z m 0 0"/>
    </g>
</svg>
