<?xml version="1.0" encoding="UTF-8"?>
<svg height="16px" viewBox="0 0 16 16" width="16px" xmlns="http://www.w3.org/2000/svg">
    <path d="m 3 1 c -1.097656 0 -2 0.902344 -2 2 s 0.902344 2 2 2 v 2 c -1.097656 0 -2 0.902344 -2 2 s 0.902344 2 2 2 s 2 -0.902344 2 -2 h 2 v 2 c -1.097656 0 -2 0.902344 -2 2 s 0.902344 2 2 2 s 2 -0.902344 2 -2 h 2 c 0 1.097656 0.902344 2 2 2 s 2 -0.902344 2 -2 s -0.902344 -2 -2 -2 v -2 c 1.097656 0 2 -0.902344 2 -2 s -0.902344 -2 -2 -2 s -2 0.902344 -2 2 h -2 v -2 c 1.097656 0 2 -0.902344 2 -2 s -0.902344 -2 -2 -2 s -2 0.902344 -2 2 h -2 c 0 -1.097656 -0.902344 -2 -2 -2 z m 0 1 c 0.558594 0 1 0.441406 1 1 c 0 0.015625 -0.007812 0.027344 -0.007812 0.039062 c -0.46875 0.117188 -0.835938 0.484376 -0.953126 0.953126 c -0.011718 0 -0.023437 0.007812 -0.039062 0.007812 c -0.558594 0 -1 -0.441406 -1 -1 s 0.441406 -1 1 -1 z m 6 0 c 0.558594 0 1 0.441406 1 1 s -0.441406 1 -1 1 c -0.015625 0 -0.027344 -0.007812 -0.039062 -0.007812 c -0.117188 -0.46875 -0.484376 -0.835938 -0.953126 -0.953126 c 0 -0.011718 -0.007812 -0.023437 -0.007812 -0.039062 c 0 -0.558594 0.441406 -1 1 -1 z m 4 4 c 0.558594 0 1 0.441406 1 1 s -0.441406 1 -1 1 c -0.105469 0 -0.203125 -0.03125 -0.300781 -0.0625 c -0.160157 -0.257812 -0.378907 -0.476562 -0.636719 -0.636719 c -0.03125 -0.097656 -0.0625 -0.195312 -0.0625 -0.300781 c 0 -0.558594 0.441406 -1 1 -1 z m -10 2 c 0.015625 0 0.027344 0.007812 0.039062 0.007812 c 0.117188 0.46875 0.484376 0.835938 0.953126 0.953126 c 0 0.011718 0.007812 0.023437 0.007812 0.039062 c 0 0.558594 -0.441406 1 -1 1 s -1 -0.441406 -1 -1 s 0.441406 -1 1 -1 z m 5.976562 0 h 2.050782 c 0.101562 0 0.191406 0.027344 0.285156 0.054688 c 0.160156 0.257812 0.375 0.472656 0.632812 0.636718 c 0.027344 0.089844 0.054688 0.179688 0.054688 0.28125 v 2.054688 c 0 0.101562 -0.027344 0.191406 -0.054688 0.285156 c -0.257812 0.160156 -0.472656 0.375 -0.632812 0.632812 c -0.09375 0.027344 -0.183594 0.054688 -0.285156 0.054688 h -2.050782 c -0.105468 0 -0.195312 -0.027344 -0.289062 -0.054688 c -0.160156 -0.257812 -0.375 -0.472656 -0.632812 -0.632812 c -0.027344 -0.09375 -0.054688 -0.183594 -0.054688 -0.285156 v -2.054688 c 0 -0.003906 0.003906 -0.007812 0.003906 -0.011718 c 0.472656 -0.113282 0.84375 -0.484376 0.957032 -0.957032 c 0.003906 -0.003906 0.007812 -0.003906 0.015624 -0.003906 z m -1.976562 4 c 0.109375 0 0.203125 0.03125 0.300781 0.0625 c 0.160157 0.257812 0.378907 0.476562 0.636719 0.636719 c 0.03125 0.097656 0.0625 0.195312 0.0625 0.300781 c 0 0.558594 -0.441406 1 -1 1 s -1 -0.441406 -1 -1 s 0.441406 -1 1 -1 z m 6 0 c 0.558594 0 1 0.441406 1 1 s -0.441406 1 -1 1 s -1 -0.441406 -1 -1 c 0 -0.105469 0.03125 -0.203125 0.0625 -0.300781 c 0.257812 -0.160157 0.476562 -0.378907 0.636719 -0.636719 c 0.097656 -0.03125 0.195312 -0.0625 0.300781 -0.0625 z m 0 0" fill="#222222"/>
</svg>
