<?xml version="1.0" encoding="UTF-8"?>
<svg height="16px" viewBox="0 0 16 16" width="16px" xmlns="http://www.w3.org/2000/svg">
    <g fill="#222222">
        <path d="m 1.703125 12.707031 l -1.414063 -1.414062 l 7.707032 -7.707031 l 7.707031 7.707031 l -1.414063 1.414062 l -6.292968 -6.292969 z m 0 0"/>
        <path d="m 15.996094 12 v 1 h -1 v -1 z m 0 0"/>
        <path d="m 0.996094 12 v 1 h -1.00000025 v -1 z m 0 0"/>
        <path d="m 1.996094 12 c 0 0.554688 -0.445313 1 -1 1 c -0.550782 0 -1.00000025 -0.445312 -1.00000025 -1 s 0.44921825 -1 1.00000025 -1 c 0.554687 0 1 0.445312 1 1 z m 0 0"/>
        <path d="m 15.996094 12 c 0 0.554688 -0.445313 1 -1 1 c -0.550782 0 -1 -0.445312 -1 -1 s 0.449218 -1 1 -1 c 0.554687 0 1 0.445312 1 1 z m 0 0"/>
    </g>
</svg>
