<?xml version="1.0" encoding="UTF-8"?>
<svg height="16px" viewBox="0 0 16 16" width="16px" xmlns="http://www.w3.org/2000/svg">
    <path d="m 6.5 1 c -1.921875 0 -3.5 1.578125 -3.5 3.5 c 0 0.941406 0.386719 1.789062 1 2.417969 v 1.882812 l -2.445312 -1.632812 c -0.164063 -0.109375 -0.359376 -0.164063 -0.554688 -0.167969 h -1 v 6 h 1 v -0.003906 c 0.1875 0.003906 0.378906 -0.046875 0.554688 -0.164063 l 2.445312 -1.632812 v 1.800781 c 0 0.832031 0.5625 1.523438 1.050781 1.769531 c 0.492188 0.246094 0.949219 0.230469 0.949219 0.230469 h 7 s 0.457031 0.015625 0.949219 -0.230469 c 0.488281 -0.246093 1.050781 -0.9375 1.050781 -1.769531 v -2 l 1 -1 v -2 h -1 v -1.082031 c 0.613281 -0.628907 1 -1.476563 1 -2.417969 c 0 -1.921875 -1.578125 -3.5 -3.5 -3.5 c -1.277344 0 -2.386719 0.703125 -3 1.734375 c -0.613281 -1.03125 -1.722656 -1.734375 -3 -1.734375 z m 0 2 c 0.839844 0 1.5 0.660156 1.5 1.5 s -0.660156 1.5 -1.5 1.5 s -1.5 -0.660156 -1.5 -1.5 s 0.660156 -1.5 1.5 -1.5 z m 6 0 c 0.839844 0 1.5 0.660156 1.5 1.5 s -0.660156 1.5 -1.5 1.5 s -1.5 -0.660156 -1.5 -1.5 s 0.660156 -1.5 1.5 -1.5 z m 0 0" fill="#222222"/>
</svg>
