<?xml version="1.0" encoding="UTF-8"?>
<svg height="16px" viewBox="0 0 16 16" width="16px" xmlns="http://www.w3.org/2000/svg">
    <g fill="#222222">
        <path d="m 11 5 v 7 h 2 v -3 l 1 3 h 2 v -7 h -2 v 3 l -1 -3 z m 0 0"/>
        <path d="m 6 5 v 7 h 2 v -2 h 0.5 c 1.378906 0 2.5 -1.121094 2.5 -2.5 s -1.121094 -2.5 -2.5 -2.5 z m 2 1.75 h 0.5 c 0.414062 0 0.75 0.335938 0.75 0.75 s -0.335938 0.75 -0.75 0.75 h -0.5 z m 0 0"/>
        <path d="m 0 5 l 2 7 h 2 l 2 -7 h -2 l -1 3.5 l -1 -3.5 z m 0 0"/>
    </g>
</svg>
