<?xml version="1.0" encoding="UTF-8"?>
<svg height="16px" viewBox="0 0 16 16" width="16px" xmlns="http://www.w3.org/2000/svg">
    <g fill="#222222">
        <path d="m 5.738281 5.03125 l -1.695312 1.933594 l -1 2.789062 c -0.257813 0.496094 0.015625 1.183594 0.542969 1.359375 c 0.527343 0.179688 1.175781 -0.207031 1.269531 -0.753906 l 0.882812 -2.394531 l 0.261719 -0.304688 v 5.324219 l -1.5625 1.691406 l 1.449219 1.332031 l 2.144531 -2.269531 v -2.054687 l 2.027344 3.960937 l 1.722656 -0.878906 l -2.78125 -5.503906 v -1.691407 l 2.269531 2.027344 c 0.367188 0.382813 1.070313 0.363282 1.421875 -0.035156 c 0.351563 -0.402344 0.277344 -1.101562 -0.152344 -1.417969 l -3.539062 -3.144531 z m 0 0"/>
        <path d="m 10.054688 1.980469 c 0 1.066406 -0.867188 1.933593 -1.9375 1.933593 c -1.066407 0 -1.933594 -0.867187 -1.933594 -1.933593 c 0 -1.070313 0.867187 -1.9375002 1.933594 -1.9375002 c 1.070312 0 1.9375 0.8671872 1.9375 1.9375002 z m 0 0"/>
    </g>
</svg>
