<?xml version="1.0" encoding="UTF-8"?>
<svg height="16px" viewBox="0 0 16 16" width="16px" xmlns="http://www.w3.org/2000/svg">
    <path d="m 8 0.0625 c -1.105469 0 -2 0.894531 -2 2 s 0.894531 2 2 2 s 2 -0.894531 2 -2 s -0.894531 -2 -2 -2 z m -1 4.9375 s -1 0 -1 1 v 3 c 0 2 2 2 2 2 h 2 v -0.0625 h 0.371094 l 2.710937 4.515625 c 0.28125 0.472656 0.894531 0.625 1.367188 0.34375 c 0.476562 -0.285156 0.628906 -0.898437 0.34375 -1.375 l -3.289063 -5.484375 h -1.503906 v -0.9375 h 3 c 0.550781 0 1 -0.449219 1 -1 s -0.449219 -1 -1 -1 h -2.585938 l -0.707031 -0.707031 c -0.1875 -0.1875 -0.441406 -0.292969 -0.707031 -0.292969 z m -2 1.972656 c -1.613281 0.183594 -3.027344 1.21875 -3.65625 2.742188 c -0.699219 1.679687 -0.308594 3.621094 0.976562 4.90625 c 1.28125 1.28125 3.222657 1.671875 4.902344 0.972656 c 1.523438 -0.628906 2.558594 -2.042969 2.738282 -3.65625 h -2.015626 c -0.164062 0.804688 -0.710937 1.488281 -1.488281 1.8125 c -0.9375 0.386719 -2.007812 0.171875 -2.726562 -0.546875 c -0.714844 -0.714844 -0.929688 -1.785156 -0.542969 -2.722656 c 0.324219 -0.777344 1.007812 -1.324219 1.8125 -1.484375 z m 0 0" fill="#222222"/>
</svg>
