<?xml version="1.0" encoding="UTF-8"?>
<svg height="16px" viewBox="0 0 16 16" width="16px" xmlns="http://www.w3.org/2000/svg">
    <path d="m 14 4 c 1.105469 0 2 -0.894531 2 -2 s -0.894531 -2 -2 -2 s -2 0.894531 -2 2 s 0.894531 2 2 2 z m 0 0"/>
    <path d="m 6.28125 14.097656 c -1.855469 0 -3.367188 -1.511718 -3.367188 -3.367187 c 0 -0.699219 0.214844 -1.347657 0.582032 -1.886719 l -1.335938 -1.339844 c -0.699218 0.890625 -1.113281 2.011719 -1.113281 3.226563 c 0 2.890625 2.34375 5.238281 5.234375 5.238281 c 1.21875 0 2.335938 -0.417969 3.226562 -1.113281 l -1.335937 -1.339844 c -0.539063 0.367187 -1.191406 0.582031 -1.890625 0.582031 z m 8.417969 -7.8125 c -0.203125 -0.214844 -0.492188 -0.324218 -0.789063 -0.308594 l -4.054687 0.460938 l 1.433593 -1.777344 c 0.28125 -0.316406 0.359376 -0.742187 0.253907 -1.121094 c -0.058594 -0.261718 -0.214844 -0.496093 -0.457031 -0.648437 c -0.007813 -0.003906 -4.695313 -2.730469 -4.695313 -2.730469 c -0.382813 -0.2187498 -0.867187 -0.1718748 -1.199219 0.121094 l -2.289062 2.042969 c -0.421875 0.378906 -0.457032 1.023437 -0.082032 1.445312 s 1.023438 0.460938 1.445313 0.085938 l 1.738281 -1.550781 l 1.433594 0.835937 l -2.003906 2.421875 c -1.050782 0.171875 -1.996094 0.65625 -2.738282 1.355469 l 1.324219 1.324219 c 0.597657 -0.546876 1.390625 -0.878907 2.261719 -0.878907 c 1.855469 0 3.367188 1.511719 3.367188 3.367188 c 0 0.871093 -0.332032 1.664062 -0.875 2.261719 l 1.320312 1.324218 c 0.882812 -0.9375 1.421875 -2.195312 1.421875 -3.585937 c 0 -0.824219 -0.242187 -1.691407 -0.582031 -2.386719 l 1.917968 -0.257812 l -0.335937 4.121093 c -0.046875 0.566407 0.375 1.058594 0.9375 1.105469 c 0.027344 0 0.054687 0.003906 0.085937 0.003906 c 0.527344 0 0.972657 -0.40625 1.019532 -0.941406 l 0.429687 -5.292969 c 0.023438 -0.296875 -0.082031 -0.585937 -0.289062 -0.796875 z m 0 0"/>
</svg>
