<?xml version="1.0" encoding="UTF-8"?>
<svg height="16px" viewBox="0 0 16 16" width="16px" xmlns="http://www.w3.org/2000/svg">
    <path d="m 1 14 h 6 v 2 h -6 z m 0 0" fill-rule="evenodd"/>
    <path d="m 3 9.8125 h 2 v 6.1875 h -2 z m 0 0" fill-rule="evenodd"/>
    <path d="m 7 1.980469 l -1 -1 v 6.019531 c 0 1.085938 -0.890625 1.976562 -1.976562 1.976562 h -0.046876 c -1.085937 0 -1.976562 -0.890624 -1.976562 -1.976562 v -6.019531 l -1 1 z m -7 5.019531 c 0 2.203125 1.777344 3.976562 3.976562 3.976562 h 0.046876 c 2.199218 0 3.976562 -1.773437 3.976562 -3.976562 v -7.0195312 h -8 z m 0 0"/>
    <path d="m 9 14 h 6 v 2 h -6 z m 0 0" fill-rule="evenodd"/>
    <path d="m 11 9.8125 h 2 v 6.1875 h -2 z m 0 0" fill-rule="evenodd"/>
    <path d="m 15 1.980469 l -1 -1 v 6.019531 c 0 1.085938 -0.890625 1.976562 -1.976562 1.976562 h -0.046876 c -1.085937 0 -1.976562 -0.890624 -1.976562 -1.976562 v -6.019531 l -1 1 z m -7 5.019531 c 0 2.203125 1.777344 3.976562 3.976562 3.976562 h 0.046876 c 2.199218 0 3.976562 -1.773437 3.976562 -3.976562 v -7.0195312 h -8 z m 0 0"/>
    <path d="m 1.019531 4.976562 h 13.960938 c 0.011719 0 0.019531 0.007813 0.019531 0.019532 v 0.972656 c 0 0.011719 -0.007812 0.019531 -0.019531 0.019531 h -13.960938 c -0.011719 0 -0.019531 -0.007812 -0.019531 -0.019531 v -0.972656 c 0 -0.011719 0.007812 -0.019532 0.019531 -0.019532 z m 0 0" fill-rule="evenodd"/>
</svg>
