<?xml version="1.0" encoding="UTF-8"?>
<svg height="16px" viewBox="0 0 16 16" width="16px" xmlns="http://www.w3.org/2000/svg">
    <g fill="#222222">
        <path d="m 12 0 c -2.210938 0 -4 1.789062 -4 4 s 1.789062 4 4 4 s 4 -1.789062 4 -4 c 0 -0.566406 -0.121094 -1.128906 -0.355469 -1.644531 l -2.644531 2.644531 h -2 v -2 l 2.644531 -2.644531 c -0.515625 -0.234375 -1.078125 -0.355469 -1.644531 -0.355469 z m 0 0"/>
        <path d="m 8.585938 4.585938 l -8 8 c -0.78125 0.78125 -0.78125 2.046874 0 2.828124 s 2.046874 0.78125 2.828124 0 l 8 -8 z m -6.585938 8.414062 c 0.550781 0 1 0.449219 1 1 s -0.449219 1 -1 1 s -1 -0.449219 -1 -1 s 0.449219 -1 1 -1 z m 0 0"/>
    </g>
</svg>
