<?xml version="1.0" encoding="UTF-8"?>
<svg height="16px" viewBox="0 0 16 16" width="16px" xmlns="http://www.w3.org/2000/svg" xmlns:xlink="http://www.w3.org/1999/xlink">
    <filter id="a" height="100%" width="100%" x="0%" y="0%">
        <feColorMatrix in="SourceGraphic" type="matrix" values="0 0 0 0 1 0 0 0 0 1 0 0 0 0 1 0 0 0 1 0"/>
    </filter>
    <mask id="b">
        <g filter="url(#a)">
            <path d="m 0 0 h 16 v 16 h -16 z" fill-opacity="0.3"/>
        </g>
    </mask>
    <clipPath id="c">
        <path d="m 0 0 h 800 v 800 h -800 z"/>
    </clipPath>
    <mask id="d">
        <g filter="url(#a)">
            <path d="m 0 0 h 16 v 16 h -16 z" fill-opacity="0.35"/>
        </g>
    </mask>
    <clipPath id="e">
        <path d="m 0 0 h 800 v 800 h -800 z"/>
    </clipPath>
    <mask id="f">
        <g filter="url(#a)">
            <path d="m 0 0 h 16 v 16 h -16 z" fill-opacity="0.35"/>
        </g>
    </mask>
    <clipPath id="g">
        <path d="m 0 0 h 800 v 800 h -800 z"/>
    </clipPath>
    <mask id="h">
        <g filter="url(#a)">
            <path d="m 0 0 h 16 v 16 h -16 z" fill-opacity="0.35"/>
        </g>
    </mask>
    <clipPath id="i">
        <path d="m 0 0 h 800 v 800 h -800 z"/>
    </clipPath>
    <mask id="j">
        <g filter="url(#a)">
            <path d="m 0 0 h 16 v 16 h -16 z" fill-opacity="0.35"/>
        </g>
    </mask>
    <clipPath id="k">
        <path d="m 0 0 h 800 v 800 h -800 z"/>
    </clipPath>
    <g clip-path="url(#c)" mask="url(#b)" transform="matrix(1 0 0 1 -260 -620)">
        <path d="m 142.5 351 h 10.449219 c -1.183594 0.492188 -1.296875 2.457031 0 3 h -10.449219 z m 0 0" fill="#2e3436"/>
    </g>
    <g clip-path="url(#e)" mask="url(#d)" transform="matrix(1 0 0 1 -260 -620)">
        <path d="m 104 502 c 0 0.550781 -0.449219 1 -1 1 s -1 -0.449219 -1 -1 s 0.449219 -1 1 -1 s 1 0.449219 1 1 z m 0 0" fill="#2e3436"/>
    </g>
    <g clip-path="url(#g)" mask="url(#f)" transform="matrix(1 0 0 1 -260 -620)">
        <path d="m 106 501 v 2 h 8 v -2 z m 0 0" fill="#2e3436" fill-rule="evenodd"/>
    </g>
    <g clip-path="url(#i)" mask="url(#h)" transform="matrix(1 0 0 1 -260 -620)">
        <path d="m 104 514 c 0 0.550781 -0.449219 1 -1 1 s -1 -0.449219 -1 -1 s 0.449219 -1 1 -1 s 1 0.449219 1 1 z m 0 0" fill="#2e3436"/>
    </g>
    <g clip-path="url(#k)" mask="url(#j)" transform="matrix(1 0 0 1 -260 -620)">
        <path d="m 106 513 v 2 h 8 v -2 z m 0 0" fill="#2e3436" fill-rule="evenodd"/>
    </g>
    <g fill="#2e3436">
        <path d="m 4 5 v 1 h 1 v 4 h -1 v 1 h 4 v -1 h -1 v -1.5 c 1 0 1 2.5 2 2.5 h 2 c 1 0 1 -3 1 -3 h -1 s 0 1 -1 1 c -0.472656 0 -1 -1 -1 -1 h 0.5 c 0.832031 0 1.5 -0.667969 1.5 -1.5 s -0.671875 -1.574219 -1.5 -1.5 z m 3 1 h 1.5 c 0.277344 0 0.5 0.222656 0.5 0.5 s -0.222656 0.5 -0.5 0.5 h -1.5 z m 0 0"/>
        <path d="m 8 2 c -3.300781 0 -6 2.699219 -6 6 s 2.699219 6 6 6 s 6 -2.699219 6 -6 s -2.699219 -6 -6 -6 z m 0 2 c 2.21875 0 4 1.78125 4 4 s -1.78125 4 -4 4 s -4 -1.78125 -4 -4 s 1.78125 -4 4 -4 z m 0 0"/>
        <path d="m 7.5 1 h 1 c 0.277344 0 0.5 0.222656 0.5 0.5 v 1 c 0 0.277344 -0.222656 0.5 -0.5 0.5 h -1 c -0.277344 0 -0.5 -0.222656 -0.5 -0.5 v -1 c 0 -0.277344 0.222656 -0.5 0.5 -0.5 z m 0 0"/>
        <path d="m 7.5 13 h 1 c 0.277344 0 0.5 0.222656 0.5 0.5 v 1 c 0 0.277344 -0.222656 0.5 -0.5 0.5 h -1 c -0.277344 0 -0.5 -0.222656 -0.5 -0.5 v -1 c 0 -0.277344 0.222656 -0.5 0.5 -0.5 z m 0 0"/>
        <path d="m 11.066406 1.6875 l 0.867188 0.5 c 0.238281 0.136719 0.320312 0.445312 0.183594 0.683594 l -0.5 0.867187 c -0.140626 0.238281 -0.445313 0.320313 -0.683594 0.179688 l -0.867188 -0.5 c -0.238281 -0.136719 -0.320312 -0.441407 -0.183594 -0.679688 l 0.5 -0.867187 c 0.140626 -0.238282 0.445313 -0.320313 0.683594 -0.183594 z m 0 0"/>
        <path d="m 5.066406 12.082031 l 0.867188 0.5 c 0.238281 0.136719 0.320312 0.441407 0.183594 0.679688 l -0.5 0.867187 c -0.140626 0.238282 -0.445313 0.320313 -0.683594 0.183594 l -0.867188 -0.5 c -0.238281 -0.136719 -0.320312 -0.445312 -0.183594 -0.683594 l 0.5 -0.867187 c 0.140626 -0.238281 0.445313 -0.320313 0.683594 -0.179688 z m 0 0"/>
        <path d="m 13.8125 4.066406 l 0.5 0.867188 c 0.136719 0.238281 0.054688 0.542968 -0.183594 0.683594 l -0.867187 0.5 c -0.238281 0.136718 -0.542969 0.054687 -0.679688 -0.183594 l -0.5 -0.867188 c -0.140625 -0.238281 -0.058593 -0.542968 0.179688 -0.683594 l 0.867187 -0.5 c 0.238282 -0.136718 0.546875 -0.054687 0.683594 0.183594 z m 0 0"/>
        <path d="m 3.417969 10.066406 l 0.5 0.867188 c 0.140625 0.238281 0.058593 0.542968 -0.179688 0.683594 l -0.867187 0.5 c -0.238282 0.136718 -0.546875 0.054687 -0.683594 -0.183594 l -0.5 -0.867188 c -0.136719 -0.238281 -0.054688 -0.542968 0.183594 -0.683594 l 0.867187 -0.5 c 0.238281 -0.136718 0.542969 -0.054687 0.679688 0.183594 z m 0 0"/>
        <path d="m 15 7.5 v 1 c 0 0.277344 -0.222656 0.5 -0.5 0.5 h -1 c -0.277344 0 -0.5 -0.222656 -0.5 -0.5 v -1 c 0 -0.277344 0.222656 -0.5 0.5 -0.5 h 1 c 0.277344 0 0.5 0.222656 0.5 0.5 z m 0 0"/>
        <path d="m 3 7.5 v 1 c 0 0.277344 -0.222656 0.5 -0.5 0.5 h -1 c -0.277344 0 -0.5 -0.222656 -0.5 -0.5 v -1 c 0 -0.277344 0.222656 -0.5 0.5 -0.5 h 1 c 0.277344 0 0.5 0.222656 0.5 0.5 z m 0 0"/>
        <path d="m 14.3125 11.066406 l -0.5 0.867188 c -0.136719 0.238281 -0.445312 0.320312 -0.683594 0.183594 l -0.867187 -0.5 c -0.238281 -0.140626 -0.320313 -0.445313 -0.179688 -0.683594 l 0.5 -0.867188 c 0.136719 -0.238281 0.441407 -0.320312 0.679688 -0.183594 l 0.867187 0.5 c 0.238282 0.140626 0.320313 0.445313 0.183594 0.683594 z m 0 0"/>
        <path d="m 3.917969 5.066406 l -0.5 0.867188 c -0.136719 0.238281 -0.441407 0.320312 -0.679688 0.183594 l -0.867187 -0.5 c -0.238282 -0.140626 -0.320313 -0.445313 -0.183594 -0.683594 l 0.5 -0.867188 c 0.136719 -0.238281 0.445312 -0.320312 0.683594 -0.183594 l 0.867187 0.5 c 0.238281 0.140626 0.320313 0.445313 0.179688 0.683594 z m 0 0"/>
        <path d="m 11.933594 13.8125 l -0.867188 0.5 c -0.238281 0.136719 -0.542968 0.054688 -0.683594 -0.183594 l -0.5 -0.867187 c -0.136718 -0.238281 -0.054687 -0.542969 0.183594 -0.679688 l 0.867188 -0.5 c 0.238281 -0.140625 0.542968 -0.058593 0.683594 0.179688 l 0.5 0.867187 c 0.136718 0.238282 0.054687 0.546875 -0.183594 0.683594 z m 0 0"/>
        <path d="m 5.933594 3.417969 l -0.867188 0.5 c -0.238281 0.140625 -0.542968 0.058593 -0.683594 -0.179688 l -0.5 -0.867187 c -0.136718 -0.238282 -0.054687 -0.546875 0.183594 -0.683594 l 0.867188 -0.5 c 0.238281 -0.136719 0.542968 -0.054688 0.683594 0.183594 l 0.5 0.867187 c 0.136718 0.238281 0.054687 0.542969 -0.183594 0.679688 z m 0 0"/>
    </g>
</svg>
