<?xml version="1.0" encoding="UTF-8"?>
<svg height="16px" viewBox="0 0 16 16" width="16px" xmlns="http://www.w3.org/2000/svg" xmlns:xlink="http://www.w3.org/1999/xlink">
    <filter id="a" height="100%" width="100%" x="0%" y="0%">
        <feColorMatrix in="SourceGraphic" type="matrix" values="0 0 0 0 1 0 0 0 0 1 0 0 0 0 1 0 0 0 1 0"/>
    </filter>
    <mask id="b">
        <g filter="url(#a)">
            <path d="m 0 0 h 16 v 16 h -16 z" fill-opacity="0.3"/>
        </g>
    </mask>
    <clipPath id="c">
        <path d="m 0 0 h 800 v 800 h -800 z"/>
    </clipPath>
    <mask id="d">
        <g filter="url(#a)">
            <path d="m 0 0 h 16 v 16 h -16 z" fill-opacity="0.35"/>
        </g>
    </mask>
    <clipPath id="e">
        <path d="m 0 0 h 800 v 800 h -800 z"/>
    </clipPath>
    <mask id="f">
        <g filter="url(#a)">
            <path d="m 0 0 h 16 v 16 h -16 z" fill-opacity="0.35"/>
        </g>
    </mask>
    <clipPath id="g">
        <path d="m 0 0 h 800 v 800 h -800 z"/>
    </clipPath>
    <mask id="h">
        <g filter="url(#a)">
            <path d="m 0 0 h 16 v 16 h -16 z" fill-opacity="0.35"/>
        </g>
    </mask>
    <clipPath id="i">
        <path d="m 0 0 h 800 v 800 h -800 z"/>
    </clipPath>
    <mask id="j">
        <g filter="url(#a)">
            <path d="m 0 0 h 16 v 16 h -16 z" fill-opacity="0.35"/>
        </g>
    </mask>
    <clipPath id="k">
        <path d="m 0 0 h 800 v 800 h -800 z"/>
    </clipPath>
    <g clip-path="url(#c)" mask="url(#b)" transform="matrix(1 0 0 1 -160 -600)">
        <path d="m 142.5 351 h 10.449219 c -1.183594 0.492188 -1.296875 2.457031 0 3 h -10.449219 z m 0 0" fill="#2e3436"/>
    </g>
    <g clip-path="url(#e)" mask="url(#d)" transform="matrix(1 0 0 1 -160 -600)">
        <path d="m 104 502 c 0 0.550781 -0.449219 1 -1 1 s -1 -0.449219 -1 -1 s 0.449219 -1 1 -1 s 1 0.449219 1 1 z m 0 0" fill="#2e3436"/>
    </g>
    <g clip-path="url(#g)" mask="url(#f)" transform="matrix(1 0 0 1 -160 -600)">
        <path d="m 106 501 v 2 h 8 v -2 z m 0 0" fill="#2e3436" fill-rule="evenodd"/>
    </g>
    <g clip-path="url(#i)" mask="url(#h)" transform="matrix(1 0 0 1 -160 -600)">
        <path d="m 104 514 c 0 0.550781 -0.449219 1 -1 1 s -1 -0.449219 -1 -1 s 0.449219 -1 1 -1 s 1 0.449219 1 1 z m 0 0" fill="#2e3436"/>
    </g>
    <g clip-path="url(#k)" mask="url(#j)" transform="matrix(1 0 0 1 -160 -600)">
        <path d="m 106 513 v 2 h 8 v -2 z m 0 0" fill="#2e3436" fill-rule="evenodd"/>
    </g>
    <g fill="#2e3436">
        <path d="m 9.25 5 c 0 0.691406 -0.558594 1.25 -1.25 1.25 s -1.25 -0.558594 -1.25 -1.25 s 0.558594 -1.25 1.25 -1.25 s 1.25 0.558594 1.25 1.25 z m 0 0"/>
        <path d="m 7 9 v 2 h 1 l -0.5 2 h 1 l 0.5 -2 v -2 z m 0 0"/>
        <path d="m 4 3 c -0.832031 0 -1.523438 0.5625 -1.769531 1.050781 c -0.246094 0.492188 -0.230469 0.949219 -0.230469 0.949219 v 2 h -1 c -0.546875 0.007812 -0.984375 0.453125 -0.984375 1 s 0.4375 0.992188 0.984375 1 h 1 v 2 s -0.015625 0.457031 0.230469 0.949219 c 0.246093 0.488281 0.9375 1.050781 1.769531 1.050781 h 1 v -2 h -1 v -6 h 1 v -2 z m 0 0" fill-rule="evenodd"/>
        <path d="m 11 3 v 2 h 1 v 6 h -1 v 2 h 1 c 0.832031 0 1.523438 -0.5625 1.769531 -1.050781 c 0.246094 -0.492188 0.230469 -0.949219 0.230469 -0.949219 v -2 h 1 c 0.546875 -0.007812 0.984375 -0.453125 0.984375 -1 s -0.4375 -0.992188 -0.984375 -1 h -1 v -2 s 0.015625 -0.457031 -0.230469 -0.949219 c -0.246093 -0.488281 -0.9375 -1.050781 -1.769531 -1.050781 z m 0 0" fill-rule="evenodd"/>
    </g>
</svg>
